<svg version="1.1" id="Layer_1" xmlns="http://www.w3.org/2000/svg" xmlns:xlink="http://www.w3.org/1999/xlink" x="0px" y="0px"
	 width="100%" viewBox="0 0 339 78" enable-background="new 0 0 339 78" xml:space="preserve">
<path fill="#F6F5F1" opacity="1.000000" stroke="none" 
	d="
M340.000000,8.999998 
	C340.000000,32.307926 340.000000,55.615849 340.000000,79.000000 
	C229.645782,79.000000 119.291550,79.000000 8.529530,78.653183 
	C9.948269,77.265854 11.723197,76.118759 13.611046,75.204948 
	C19.155598,72.521118 23.492451,68.538719 26.391880,63.136257 
	C30.683781,55.139236 34.810486,47.053440 38.994659,38.998764 
	C45.845066,25.811497 55.965618,18.801893 71.553017,18.858232 
	C154.114975,19.156647 236.678604,19.030350 319.241547,18.943640 
	C326.659119,18.935850 333.954102,17.941093 337.999023,10.229870 
	C338.311584,9.633992 339.316742,9.401424 340.000000,8.999998 
z"/>
<path fill="#FFFFFF" opacity="1.000000" stroke="none" 
	d="
M340.000000,8.505264 
	C339.316742,9.401424 338.311584,9.633992 337.999023,10.229870 
	C333.954102,17.941093 326.659119,18.935850 319.241547,18.943640 
	C236.678604,19.030350 154.114975,19.156647 71.553017,18.858232 
	C55.965618,18.801893 45.845066,25.811497 38.994659,38.998764 
	C34.810486,47.053440 30.683781,55.139236 26.391880,63.136257 
	C23.492451,68.538719 19.155598,72.521118 13.611046,75.204948 
	C11.723197,76.118759 9.948269,77.265854 8.060873,78.653183 
	C5.669313,79.000000 3.338627,79.000000 1.005955,79.000000 
	C1.003970,53.032139 1.003970,27.064280 1.003970,1.048209 
	C113.999985,1.048209 226.999985,1.048209 340.000000,1.048209 
	C340.000000,3.349161 340.000000,5.679847 340.000000,8.505264 
z"/>
</svg>