<svg version="1.2" xmlns="http://www.w3.org/2000/svg" viewBox="0 0 1114 1114">
	<title>g8</title>
	<style>
		.s0 { fill: #eee9e3 } 
	</style>
	<g id="g8">
		<g id="g10">
			<path id="path62" fill-rule="evenodd" class="s0" d="m1113.5 557c0 148.7-57.9 288.6-163 393.7-51.1 51.2-110.6 91.3-176.9 119.4-68.5 29-141.4 43.7-216.4 43.7-75.2 0-148-14.7-216.7-43.7-66.3-28.1-125.8-68.2-176.9-119.4-105.2-105.1-163.1-245-163.1-393.7 0-148.8 57.9-288.6 163.1-393.8 51.1-51.1 110.6-91.2 176.9-119.3 68.7-29 141.5-43.7 216.7-43.7 75 0 147.9 14.7 216.4 43.7 66.3 28.1 125.8 68.2 176.9 119.3 105.1 105.2 163 245.1 163 393.8zm-95.3 248.9c-0.4 0.1-0.5 0-1-0.4-0.9-2.1-0.9-2.1-1.5-4.2 2.4-3 2.4-3 4.8-5.3 0.3 1.4 0.3 1.4 0.9 2.3 0.2 0.3 0.3 0.5 0.4 0.7 37.8-72.4 59.3-154.8 59.3-242 0-115.3-37.4-221.9-100.6-308.5-0.1-0.1-0.2-0.2-0.4-0.2 0 1.7 0 1.7-0.3 3.5 0.3 2.7 0.3 2.7 0.6 5.7 0 0 0.9 4.4-0.3 2.9-1.7-1.8-4.7-5.6-4.7-5.6-2.7-3.3-2.7-3.3-5.1-5.9 0 0-3.5 0.2-3.8 0.5-0.6 0.3-4.5 0.9-4.5 0.9-1.4 0.9-1.4 0.9-2.9 2.1 0.6 2.7 0.6 2.7 1.2 5.3 1.7 3 1.7 3 3.5 6.3 2.7 3.5 2.7 3.5 5.4 7.1 1.1 1.8 1.1 1.8 2.3 3.3-0.3 1.5-0.3 1.5-0.9 2.3 0.9 3 0.9 3 1.8 6 0.3 2.4 0.3 2.4 0.9 4.7-0.9 0-0.9 0-2.1-0.3-0.3 0.6-0.3 0.6-0.9 1.2 0.3 3.3 0.3 3.3 0.3 6.9-0.3 2.9-0.3 2.9-0.3 5.9-0.3 2.7-0.3 2.7-0.8 5-0.9 0.6-0.9 0.6-1.8 1.8-2.1-2.4-2.1-2.4-3.9-4.4-2.1-3.3-2.1-3.3-4.1-7.2-3-5.9-3-5.9-6-12.1-2-2.7-2-2.7-4.4-5.7-1.8-5.3-1.8-5.3-3.6-10.7-0.9-4.1-0.9-4.1-1.8-8.3 1.2-4.1 1.2-4.1 2.1-8.3 2.4-2.7 2.4-2.7 4.8-5 1.5-1.8 1.5-1.8 2.9-3.3-0.3-2.4-0.3-2.4-0.3-4.1-1.4-2.7-1.4-2.7-2.6-5.1-1.8-1.2-1.8-1.2-3.6-2.4-0.3 0.9-0.3 0.9-0.3 1.8-0.9 1.8-0.9 1.8-1.5 4.2-0.9 0.3-0.9 0.3-2 0-2.4-2.7-2.4-2.7-5.1-5.7-1.8-1.7-1.8-1.7-3.8-3.2-2.4-0.6-2.4-0.6-5.1-1.8-1.5 0.3-1.5 0.3-3.2 0.6-0.3 1.5-0.3 1.5-0.3 3.5 0.3 2.1 0.3 2.1 0.5 4.5 0.3 3.6 0.3 3.6 0.3 6.8-2.6 0.6-2.6 0.6-5.6 1.2-2.7-1.5-2.7-1.5-5-2.7-2.7-3.2-2.7-3.2-5.1-6.2-2.1-0.3-2.1-0.3-3.8-0.3-0.9 1.2-0.9 1.2-1.8 2.7 0 0-2.1 2.1-3.9 0.9-1.4-0.9-7.7-4.8-7.7-4.8 0 0-6.2-2.1-7.1-1.8-0.9 0.3-5.6 0-6.8 0-1.5 0-6.2 1.2-6.2 1.2-0.9 2.1-0.9 2.1-2.1 3.9-1.2 4.4-1.2 4.4-2.7 9.2-2.1 3-2.1 3-4.1 6.2-2.1 1.8-2.1 1.8-4.2 3.3 0.3 2.1 0.3 2.1 0.6 4.4 3.3 1.8 3.3 1.8 6.2 3.6 1.5 1.2 1.5 1.2 3 2.1 1.2 2.4 1.2 2.4 2.1 4.7 1.4 0.6 1.4 0.6 2.9 0.9 1.5-1.2 1.5-1.2 3-2.4 2.1 0.3 2.1 0.3 4.7 0.9 2.7 1.8 2.7 1.8 5.1 3.6 3.5 4.1 3.5 4.1 6.8 8 0.6 3.6 0.6 3.6 1.2 6.8 0.6 4.5 0.6 4.5 1.2 8.9 0 3 0 3-0.3 5.7 2.1 4.4 2.1 4.4 3.8 8.6-0.3 5.3-0.3 5.3-0.3 10.7-1.7 7.1-1.7 7.1-3.8 14.2-1.2 7.2-1.2 7.2-2.7 14.3-4.4 1.8-4.4 1.8-8.9 4.1-5-0.6-5-0.6-10.1-0.6-2.9 2.4-2.9 2.4-5.9 4.2 0.3 3.6 0.3 3.6 0.6 6.5-2.4 4.5-2.4 4.5-4.5 9.2-4.4 2.7-4.4 2.7-8.6 5.7 0 1.8 0 1.8 0.3 4.1 3.9 2.7 3.9 2.7 7.5 5.1 3.5 4.4 3.5 4.4 7.1 8.6 3.5 5 3.5 5 7.1 9.5 0.3 3.8 0.3 3.8 0.6 7.7-0.6 4.2-0.6 4.2-0.9 8.9-3 1.2-3 1.2-6.2 2.4-3.3 0.6-3.3 0.6-6.6 0.9-2-2.1-2-2.1-4.1-4.5-0.3-3.2-0.3-3.2-0.3-6.5 0 0-1.2-4.2-2.4-6-0.9-1.7-3.2-4.4-3.2-5.9 0-1.5-3-5.6-3-5.6-3-1.8-3-1.8-5.9-3.9 0 0-6-3.6-5.7-4.4 0.3-1.2 2.4-2.1 3.6-3.6 1.2-1.5 2.4-1.8 2.1-4.4-0.6-2.7-5.7-6-5.7-6 0 0-2.3 1.8-4.1 3-1.8 1.2-6.8 2.4-6.8 2.4 0 0-7.2 2.3-7.8 1.1-0.6-1.4-1.4-4.4-1.4-4.4 0-3 0-3-0.3-5.9-2.1-1.5-2.1-1.5-4.2-3-0.9 1.2-0.9 1.2-1.8 2.1-2.9 2-2.9 2-5.6 4.4-2.7 2.7-2.7 2.7-5.3 5.4 0.5 4.4 0.5 4.4 1.4 8.9 3 3.5 3 3.5 5.7 7.1 3.5-1.5 3.5-1.5 6.8-3.3 0 0 4.1-2.6 6.8-2.4 2.4 0 6.8 2.7 6.8 2.7 0 0 1.8 3.6 2.1 4.5 0 1.2-0.9 7.1-0.9 7.1-4.7 0.9-4.7 0.9-9.2 2.1 0 0-4.4 4.4-4.4 5.6 0.3 1.2 5 8.6 5 8.6 8 11.3 8 11.3 15.7 22.3 0.6 5.6 0.6 5.6 1.2 11.3 2.7 7.1 2.7 7.1 5.1 14.2-2.4 6-2.4 6-4.5 12.2 0 0-5.9 4.1-6.5 5.3-0.9 1.2-3.6 9.5-3.6 9.5 0 0-9.2 13.1-9.8 14.6-0.2 1.5-3.8 6.5-5.3 7.4-1.2 0.9-5.9 2.1-7.7 2.1-1.8 0.3-15.7 0.6-15.7 0.6-4.2 4.1-4.2 4.1-8 7.7-6 3.8-6 3.8-11.9 8-1.5-4.2-1.5-4.2-3-7.7-2.3-0.9-2.3-0.9-5-2.1-1.5 4.5-1.5 4.5-2.7 9.2-4.7 2.7-4.7 2.7-9.5 5.4 0 0-4.4 1.7-3.8 5.6 0.3 4.2 7.7 14 7.7 14 8.3 8.8 8.3 8.8 16.6 18.1 3 8.6 3 8.6 5.9 17.5-3.8 8.9-3.8 8.9-7.4 18.1-5.3 5.9-5.3 5.9-10.4 11.9-4.4 5-4.4 5-8.9 9.8-3.8 0.2-3.8 0.2-7.7 0.2-0.6-4.7-0.6-4.7-0.9-9.8-2-3.8-2-3.8-3.8-8 0 0-7.1 2.4-7.7 0-0.9-2.3-1.5-3.2-1.5-6.8 0-3.6-1.2-10.4-3.9-10.7-2.6-0.6-12.4 1.2-12.4 1.2 0 0-1.2 10.1-0.9 12.5 0.3 2.4 6.8 14.8 6.8 14.8 0.6 3.9 0.6 3.9 1.2 8 2.1 2.1 2.1 2.1 3.8 4.5 4.5 2.1 4.5 2.1 8.9 3.8 2.7 4.2 2.7 4.2 5.4 8.1 3 6.5 3 6.5 5.6 13-0.6 6.3-0.6 6.3-0.9 12.2 0 4.4 0 4.4 0 9.5-3.2 1.5-3.2 1.5-6.5 3-3-1.5-3-1.5-5.9-3-3.6-3.6-3.6-3.6-7.1-7.1-4.5-5.7-4.5-5.7-8.9-11.3-1.8-8-1.8-8-3.3-16-0.3-6.6-0.3-6.6-0.3-12.8-1.2-4.8-1.2-4.8-2.1-9.2-4.4-5.7-4.4-5.7-9.2-11.3-2.9-5.6-2.9-5.6-5.9-11.3 0-5 0-5 0-10.1-3-3.8-3-3.8-5.6-7.7 1.1-5.3 1.1-5.3 2.3-10.7 0-5.6 0-5.6-0.3-11.8-2.9-3.6-2.9-3.6-5.9-7.5-2.1 4.8-2.1 4.8-4.2 9.5-3.8 2.7-3.8 2.7-7.7 5.4-2.6-3-2.6-3-5.6-5.7 0 0-1.8-8.9-1.8-10.3 0-1.5-1.8-12.5-1.8-12.5-3.8-4.8-3.8-4.8-7.7-9.8-3.5-5.1-3.5-5.1-7.1-10.1-1.8-5.6-1.8-5.6-3.8-11-0.3-3.6-0.3-3.6-0.9-6.8-3.3 0.3-3.3 0.3-6.3 0.6 0 0-3.8 5.9-4.1 7.1-0.3 1.2-2.4 8.9-2.4 8.9-4.4 0-4.4 0-8.9-0.3-3.2 0.3-3.2 0.3-6.8 0.6-0.9 3-0.9 3-1.8 5.6-0.9 3.3-0.9 3.3-1.8 6.3-3.2 4.1-3.2 4.1-6.5 8.3 0 0-6.8 3.3-8.3 4.4-1.5 0.9-4.4 6.6-6.2 8.1-1.8 1.4-5.7 1.4-5.7 1.4-1.7 2.4-1.7 2.4-3.2 4.5 0 0-1.5 4.1-2.1 5.3-0.9 1.2-3.3 2.7-5.6 3.6-2.4 0.6-8.6 3.9-8.6 3.9-0.9 5.3-0.9 5.3-1.8 10.6 0.9 5.4 0.9 5.4 1.8 10.4 0.3 6 0.3 6 0.3 11.6-0.6 5.1-0.6 5.1-1.5 9.8 0 3 0 3 0 6.2-4.8 5.1-4.8 5.1-9.5 10.1-2.7 3-2.7 3-5.1 6-2.9-1.8-2.9-1.8-5.6-3.3 0 0-2.7-7.1-3-8.9-0.6-1.5-6.2-17.8-6.2-17.8-3.5-6.8-3.5-6.8-7.4-13.4 0 0-4.2-10.7-5.9-14.5-1.5-3.6-8-12.8-8-12.8-0.9-10.7-0.9-10.7-1.5-21.1-0.3-6.5-0.3-6.5-0.6-13 0.3-5.4 0.3-5.4 0.3-10.4-2.4-1.2-2.4-1.2-4.5-2.4-1.5 2.1-1.5 2.1-2.9 4.2-3.3 1.8-3.3 1.8-6.6 3.2 0 0-9.8 0-10.6-1.7-0.6-1.8-4.5-5.7-4.5-5.7-0.6-2.4-0.6-2.4-1.2-4.7-0.3-2.7-0.3-2.7-0.6-5.1-2.3-2.7-2.3-2.7-4.7-5.3-3-2.1-3-2.1-5.7-4.2-3.2-2.1-3.2-2.1-6.5-4.4-0.9-2.4-0.9-2.4-1.5-4.8-1.1-0.6-1.1-0.6-2-1.2-3.6 0-3.6 0-7.5 0.3-3.8 1.2-3.8 1.2-7.7 2.1-2.9-3.3-2.9-3.3-6.2-6.2-2.1-1.5-2.1-1.5-4.4-3-1.2 3.3-1.2 3.3-2.1 6.2-6.5 0-6.5 0-13.1 0-6.2 0.6-6.2 0.6-12.7 0.9-3.6-2.4-3.6-2.4-7.4-4.4 0 0-2.4-6-3.6-7.7-0.9-1.5-1.5-4.2-3.6-4.5-1.7 0-5 1.5-5 1.5-2.7 0.6-2.7 0.6-5.3 1.5-7.2 0.3-7.2 0.3-13.7 0.3 0 0-5.6-3-6.5-4.2-0.9-1.5-6.8-8.6-6.8-8.6 0 0-3.9-1.2-3.9-4.5 0.3-3.5 1.2-6.2 0-7.4-0.9-1.2-4.4-3.2-4.4-3.2-1.2 1.4-1.2 1.4-2.4 2.6-1.8-0.9-1.8-0.9-3.6-1.8-1.5-0.5-1.5-0.5-2.6-1.4-2.1 1.4-2.1 1.4-4.2 2.6 0.6 3.3 0.6 3.3 0.9 6 3.3 3.5 3.3 3.5 6.8 6.8 2.4 4.8 2.4 4.8 5.1 9.5 2.6 4.2 2.6 4.2 5.3 8.3 3.3 2.1 3.3 2.1 6.5 3.9 1.5 4.4 1.5 4.4 3 8.6 0.9 2.1 0.9 2.1 2.1 4.1 2.9 1.2 2.9 1.2 6.2 2.4 0 0 3.3 1.2 5.3 0.6 2.1-0.6 7.2-1.5 8.9-3.6 1.5-1.7 6.3-7.1 7.5-7.4 1.1-0.3 4.7 3.3 4.7 3.3 0.9 2.4 0.9 2.4 1.8 4.4 3.5 2.4 3.5 2.4 7.1 4.5 2.7 0.6 2.7 0.6 5.3 1.2 3.6 3.2 3.6 3.2 7.2 6.2 0.3 5.4 0.3 5.4 0.8 10.7-2.9 4.5-2.9 4.5-5.9 9.2 0 0-3.5 2.7-3.8 4.2 0 1.5-1.8 12.4-1.8 12.4-10.4 6.3-10.4 6.3-21.1 12.5-2.9 3.6-2.9 3.6-5.9 7.1-5.1 0.9-5.1 0.9-9.8 2.1-1.8 4.8-1.8 4.8-3.6 9.2-4.4 0.6-4.4 0.6-9.2 1.2-4.4 1.8-4.4 1.8-8.9 3.6-8 0-8 0-15.7 0-4.7 5.6-4.7 5.6-9.5 11.8-5.3 1.5-5.3 1.5-10.6 3.6-3-5.4-3-5.4-6.3-11 0 0 1.2-11.6-0.3-14.5-1.5-2.7-6.2-9.5-7.1-12.2-1.2-2.7-3.8-11-3.8-11-7.5-13.7-7.5-13.7-15.2-27.9-2.6-8.6-2.6-8.6-5.6-17.5-6.5-8.3-6.5-8.3-12.8-16.9 0.3-6 0.3-6 0.9-11.9-4.1-3.3-4.1-3.3-8.3-6.5-3.5 0-3.5 0-7.1-0.3-2.1-5.1-2.1-5.1-4.1-10.1-3.3-1.5-3.3-1.5-6.6-2.7-0.3 3.3-0.3 3.3-0.6 6.2 2.7 6 2.7 6 5.7 11.9 5.6 4.2 5.6 4.2 11.8 8.9 2.4 7.4 2.4 7.4 4.8 15.1-0.6 6-0.6 6-1.5 12.2 3 5.1 3 5.1 5.6 10.1 3 3 3 3 5.7 6.3 0.6 4.1 0.6 4.1 1.2 8 2.3 6.5 2.3 6.5 5 12.7 4.4 8.3 4.4 8.3 9.2 15.8 1.2 5.6 1.2 5.6 2.4 11.2 4.4 2.1 4.4 2.1 8.6 4.2 2.9 5.6 2.9 5.6 5.6 11.3 0 0 2.1 8.9 2.4 11.3 0.3 2.3 5.6 9.8 5.6 9.8 9.2 3.8 9.2 3.8 18.4 7.7 5-1.5 5-1.5 9.8-3.3 0 0 6.5-3 9.2-3 2.7 0 11.3-7.1 11.3-7.1 3.2 0 3.2 0 6.2 0.3 1.2 3.3 1.2 3.3 2.4 6.5-2.1 6.9-2.1 6.9-3.9 13.4-5.9 12.2-5.9 12.2-11.3 24-0.9 6-0.9 6-1.8 11.6-3.2 5.1-3.2 5.1-6.8 9.5-6.5 7.7-6.5 7.7-13 15.5-6.3 4.1-6.3 4.1-12.5 8.3-4.4 8.3-4.4 8.3-9.2 16.3 0 0-8.3 8-8.9 10.1-0.6 2.1-3.5 8.3-3.5 8.3 0.3 5.1 0.3 5.1 0.6 10.4-1.2 2.4-1.2 2.4-1.8 5 2.6 4.8 2.6 4.8 5.3 9.5 0 5.1 0 5.1 0 10.1 1.5 5.4 1.5 5.4 3.3 10.4 0.9 1.8 0.9 1.8 1.5 3.3 2.6 15.4 2.6 15.4 5.3 30-2.4 3.5-2.4 3.5-4.4 7.1-1.5 3-1.5 3-3 5.6-4.2 0-4.2 0-8-0.3-3 3-3 3-6 6-0.8 3.8-0.8 3.8-1.7 7.4-3-0.3-3-0.3-6-0.3-0.3 1.2-0.3 1.2-0.9 1.8-0.3 5.3-0.3 5.3-0.5 10.4 0.8 3.8 0.8 3.8 1.7 7.4 1.2 4.4 1.2 4.4 2.1 8.3-0.3 4.8-0.3 4.8-0.3 9.2-2.4 1.5-2.4 1.5-4.1 3-2.7-0.3-2.7-0.3-5.1-0.6-0.3 2.7-0.3 2.7-0.6 5.6 0.6 3.6 0.6 3.6 0.9 6.9 0 2.9 0 2.9 0 5.6-3.3 0.6-3.3 0.6-6.2 1.2-0.6 2.7-0.6 2.7-0.9 5.3 0.3 2.4 0.3 2.4 0.6 5.1-5.1 1.8-5.1 1.8-10.7 3.2-0.9 3.3-0.9 3.3-2.1 6.3-1.7 0.3-1.7 0.3-3.2 0.9 0 0-5.4-1.8-6-1.2-0.9 0.3-3.8 3-3.8 3-2.7-1.2-2.7-1.2-6-2.7 0 0-1.7-2.4-3.2-2.4-1.5-0.3-5.6-0.3-5.6-0.3-1.8 2.1-1.8 2.1-3.9 3.9 0 0-6.8-2.4-7.4-3.3-0.6-0.6-4.8-5-5.1-5.9-0.3-0.6-1.7-6.3-1.7-6.3-0.3-2-0.3-2-0.9-4.4-2.1-2.1-2.1-2.1-4.2-4.2-1.2-2.4-1.2-2.4-2.4-4.4-1.7-2.4-1.7-2.4-3.8-4.5-1.5-3.9-1.5-3.9-3.3-7.4-2.1-2.7-2.1-2.7-3.8-5.7-2.1-1.4-2.1-1.4-3.9-3.2-2.1-3.9-2.1-3.9-4.1-8.3 0 0-3-11.3-3.3-12.2 0-0.6-1.2-7.4-1.2-8-0.3-0.9-7.4-13.4-7.4-13.4-4.5-6.2-4.5-6.2-8.6-12.4-0.9-1.2-0.9-1.2-1.5-2.4-1.8-8.9-1.8-8.9-3.3-17.2-0.5-4.8-0.5-4.8-0.8-9.2 1.1-3.3 1.1-3.3 2-7.2 1.8-2.3 1.8-2.3 3.3-5.3 0.3-2.7 0.3-2.7 0.3-5.9-1.5-3.6-1.5-3.6-3-7.5-1.8-4.4-1.8-4.4-3.5-9.2-1.8-3.5-1.8-3.5-3.3-7.4-2.1-4.7-2.1-4.7-4.1-9.8 0 0 0.5-5.6 0.2-6.5 0-0.9-3.5-7.4-3.5-7.4-2.4-2.4-2.4-2.4-5.1-5.4-1.4-2.4-1.4-2.4-2.9-5-2.4-4.8-2.4-4.8-4.8-9.8-1.2-3.9-1.2-3.9-2-7.4 1.1-1.8 1.1-1.8 2.6-3.6-0.6-4.5-0.6-4.5-1.2-9.5-0.3-3.9-0.3-3.9-0.6-8 0 0 2.4-2.1 2.1-3.3 0-0.9-4.7-6.8-4.7-6.8-2.7-0.3-2.7-0.3-5.1-0.9-2.9 0-2.9 0-6.2-0.6-1.2-2.1-1.2-2.1-2.7-4.2-1.1-2.3-1.1-2.3-2.3-5-0.6-2.7-0.6-2.7-1.2-5.9-1.8-1.8-1.8-1.8-3.3-3.9-1.5-0.3-1.5-0.3-2.9-0.6 0 0-2.1 1.5-2.7 1.5-0.6 0.3-5.4 1.5-6.2 1.8-0.6 0.6-3 0.9-3.6 2.1-0.3 1.4-2.1 2.6-2.4 3.2-0.6 0.6-1.2 1.8-2.1 2.1-0.8-0.6-2.6-1.2-3.2-1.5-0.6 0.3-8.6-3.3-8.6-3.3-1.2 0.3-1.2 0.3-2.4 0 0 0-3 0-3 0.9 0.3 1.5 0.6 3 0 4.2-0.6 1.2-0.8 2.7-2 2.4-1.2-0.3-1.2-0.3-2.1-1.2-0.6-0.9-2.1-1.2-2.4-2.1 0-0.9-3-7.1-3-7.1-2.3-6.3-2.3-6.3-4.7-12.5-2.7-4.7-2.7-4.7-5.3-9.5 0 0-2.4-5.9-2.7-7.1-0.3-0.9-0.9-2.4-1.2-3.9-0.3-0.9-0.9-5.6-0.9-5.6 0 0-0.6-3-0.9-3.6-0.6-0.3-2.6-2.4-2.6-2.4-0.3-2.9-0.3-2.9-0.9-6.2 0.3-1.5 0.3-1.5 0.6-3.6 0.3-0.8 0.3-0.8 0.9-1.4-1.2-3.6-1.2-3.6-2.7-6.6 0-2 0-2-0.3-4.7 0.9-1.2 0.9-1.2 1.8-2.7 0.6-2.1 0.6-2.1 1.2-4.7 0 0 0-8.3 0-9.2 0-1.5-0.6-8.9-0.6-8.9 0-8.6 0-8.6 0.3-17.6 0.3-3.5 0.3-3.5 0.5-6.5 1.8-7.7 1.8-7.7 3.3-15.7 1.2-3.6 1.2-3.6 2.4-7.2 1.2-4.4 1.2-4.4 3-9.4 1.7-1.8 1.7-1.8 3.8-3 2.1-4.8 2.1-4.8 4.2-9.8 1.4-6.2 1.4-6.2 2.6-12.2 0.6-5.6 0.6-5.6 0.9-10.7 2.4-3.5 2.4-3.5 4.8-7.7 1.4 0.3 1.4 0.3 3.2 0.9 1.5-3.9 1.5-3.9 3-7.7 2.1-3 2.1-3 4.1-6.6 1.8 0.4 1.8 0.4 3.6 0.9 2.4 0.6 2.4 0.6 4.8 1.8 1.7-3.5 1.7-3.5 3.8-7.7 2.7-0.6 2.7-0.6 5.3-1.5 1.2-2.1 1.2-2.1 2.7-4.1 5.4-1.8 5.4-1.8 11-3.6 2.4-2.7 2.4-2.7 5-5.3 3.3 1.4 3.3 1.4 6.9 2.6 0 0 3.2-0.9 5.3-1.7 2.4-1.2 5.9-4.8 5.9-4.8 3.6 2.7 3.6 2.7 7.4 4.8-0.6 4.7-0.6 4.7-0.8 9.2-2.1 3.2-2.1 3.2-4.2 6.8 0 0 0 5 1.5 6.8 1.2 1.8 7.1 5.1 7.1 5.1 3.6-0.3 3.6-0.3 7.1-0.6 1.8 2 1.8 2 3.6 4.4 1.2 1.5 1.2 1.5 2.1 3 2.9 1.2 2.9 1.2 5.9 2.1 2.4 1.4 2.4 1.4 4.7 2.3 3 1.2 3 1.2 5.7 2.7 3.5-1.2 3.5-1.2 7.1-2.7 0.9-7.1 0.9-7.1 1.8-13.9 3.8-1.5 3.8-1.5 7.7-2.7 4.1 2.4 4.1 2.4 8 5.4 3.8-0.3 3.8-0.3 7.7-0.9 0.9 2.9 0.9 2.9 1.5 6.2 6.2-1.2 6.2-1.2 12.4-2.1 2.1 3.3 2.1 3.3 3.9 6.9 4.1-1.8 4.1-1.8 8.6-3.6 0 0 5.3-4.5 8.3-3.9 3 0.6 6.5 2.1 6.5 2.1 0 0 2.4 0 7.1-3.9 4.8-3.8 7.5-9.5 7.5-9.5 0 0 1.7-8.3 2-14.5 0.6-5.9-0.6-11.9-0.6-11.9-3.8-1.5-3.8-1.5-8.3-2.9-2.9 0.9-2.9 0.9-5.9 1.4-3 0.3-3 0.3-5.9 0.9-2.4-1.8-2.4-1.8-5.4-3.5-3.2 2.3-3.2 2.3-6.8 4.7-4.4-3.5-4.4-3.5-8.9-7.1-4.7-7.1-4.7-7.1-9.2-14 6-8.6 6-8.6 11.9-16.6 0.9-2.7 0.9-2.7 2.1-5 5.6 0.3 5.6 0.3 10.9 0.6 5.4-3.6 5.4-3.6 10.4-7.5 5.9-1.7 5.9-1.7 11.9-3.5 5.3 3.5 5.3 3.5 10.4 7.1 3.2 1.8 3.2 1.8 6.8 3.3 4.4-0.3 4.4-0.3 9.2-0.6 4.4-0.9 4.4-0.9 8.9-1.5 0 0 5.9-5.4 6.2-7.1 0-1.5 0.9-5.7 0.3-6.9-0.3-1.1-5.3-5.3-5.3-5.3-3.9-0.6-3.9-0.6-7.7-1.5-2.7-1.8-2.7-1.8-5.7-3.2-1.5-3.3-1.5-3.3-2.9-6.3-2.4-0.9-2.4-0.9-5.1-2.1-1.5-2-1.5-2-3-4.1 3.3-3 3.3-3 6-6 0 0 0.6-0.9 2.9-1.7 2.1-0.9 4.2-2.1 4.2-2.1-1.2-2.7-1.2-2.7-2.7-5.4-1.5 0.6-1.5 0.6-3.2 1.5-2.7 1.2-2.7 1.2-5.7 2.7-3.2 1.2-3.2 1.2-6.5 2.4-2.4 1.7-2.4 1.7-5 3.8-1.8 1.8-1.8 1.8-3 3 0 2.7 0 2.7 0.3 4.7 4.1 0.3 4.1 0.3 8.3 0.6-0.6 2.4-0.6 2.4-0.9 4.5-5.3 2.4-5.3 2.4-10.7 4.7-4.7 1.2-4.7 1.2-9.2 2.4-1.2-0.9-1.2-0.9-2-1.8 0.3-2.6 0.3-2.6 0.8-5 3.3-2.4 3.3-2.4 6.9-5.1-0.9-2.3-0.9-2.3-2.1-4.7-1.5-0.6-1.5-0.6-3-1.8 0-2.4 0-2.4 0.3-5-1.5-0.6-1.5-0.6-2.6-1.5-1.2 0.6-1.2 0.6-2.1 0.9-1.8 2.9-1.8 2.9-3.6 5.6 0 0-0.9 5.7-1.8 8-0.6 1.8-2.6 4.8-2.6 4.8-2.7 0.3-2.7 0.3-5.7 1.2 0 0-2.3 2.3-2.9 3.2-0.6 1.5-2.4 4.2-2.4 4.2 0 0-0.3 3.8-0.6 5.6 0 1.8-0.3 4.5-0.3 4.5-1.8 2.1-1.8 2.1-3.9 4.1-0.5 3.3-0.5 3.3-0.8 6 0 3.5 0 3.5 0.3 7.4-2.4 1.2-2.4 1.2-4.8 2.1-2.7-0.3-2.7-0.3-5.3-0.9-1.8 0.3-1.8 0.3-3.6 0.3-1.8 2.4-1.8 2.4-3.3 4.7-1.7 1.8-1.7 1.8-3.5 3-0.6 2.1-0.6 2.1-0.9 3.6 3 2.6 3 2.6 5.6 5.6-0.9 1.8-0.9 1.8-1.7 3.6 0 0-3 2.3-3.3 4.1-0.3 1.5-0.3 4.5-0.3 4.5-1.2 0.9-1.2 0.9-2.1 1.8-2.4 0.2-2.4 0.2-4.4 0.2-1.8-1.1-1.8-1.1-3.9-2.3-0.6-4.2-0.6-4.2-0.9-8.3-0.6-3-0.6-3-1.2-6.3 0 0-3.2-5-2.9-6.2 0-1.5-1.5-7.1-1.5-7.1-1.5-0.6-1.5-0.6-3-1.5 0.3-2.7 0.3-2.7 0.9-5.7-2.1-2.6-2.1-2.6-4.1-5.6-1.5-1.8-1.5-1.8-3-3.6 0 0-3-0.8-3.9-1.4-0.9 0-2.3-0.6-2.6-1.8-0.3-1.2-1.2-3.6-1.2-3.6-1.2-1.8-1.2-1.8-2.4-3.5-0.3-1.8-0.3-1.8-0.3-3.9-0.3-1.5-0.3-1.5-0.6-3.3-1.5-0.3-1.5-0.3-2.9-0.6-1.2 0.3-1.2 0.3-2.7 0.6-0.6 2.1-0.6 2.1-1.2 3.9-0.6 2.4-0.6 2.4-0.9 4.4 0 0 0.9 4.2 1.8 5.7 0.6 2.4 5 10.4 5 10.4 0.6 2.3 0.6 2.3 1.2 4.4 2.4 0 2.4 0 4.5 0.6 1.4-0.3 1.4-0.3 2.9 0 0.9 1.5 0.9 1.5 2.1 3 0 0 2.4 1.8 3 3 0.6 1.1 3.8 7.1 3.8 7.1-0.6 2.4-0.6 2.4-1.2 4.4-1.7 0-1.7 0-3.2 0.3-0.9-0.3-0.9-0.3-1.8-0.9-0.9 0.3-0.9 0.3-2.1 0.6 0 1.5 0 1.5 0 3.3-0.6 2.1-0.6 2.1-1.2 4.5-0.9 1.1-0.9 1.1-1.4 2-2.1 1.2-2.1 1.2-4.2 2.1-0.6 3-0.6 3-1.5 5.9-0.6 1.5-0.6 1.5-1.2 2.7-1.2 0-1.2 0-2.3 0-1.8-0.3-1.8-0.3-3.3-0.6-1.5-1.2-1.5-1.2-2.7-2.1-0.3-1.7-0.3-1.7-0.6-3.8 2.7-0.3 2.7-0.3 5.7-1.2 0 0 2.9-0.9 3.8-2.7 0.6-1.8 0.6-2.1 1.2-3.5 0.9-1.5 0.9-5.1 0.9-5.1-1.8-2.7-1.8-2.7-3.6-5.3-0.8-2.7-0.8-2.7-1.7-5.7-1.8-0.6-1.8-0.6-3.6-1.5-1.8-0.5-1.8-0.5-3.6-1.4-2-3.3-2-3.3-3.8-6.6-1.5-1.2-1.5-1.2-2.7-2.6 0-3.3 0-3.3 0-6.3-1.5-1.2-1.5-1.2-2.4-2.6-1.1 0.5-1.1 0.5-2.6 1.4 0 0-0.3 1.8-3.3 3-3.3 1.2-3.8 2.1-3.8 2.1-0.9 3-0.9 3-2.1 5.9-1.5-0.9-1.5-0.9-3-1.5-0.6-1.7-0.6-1.7-1.5-3.2-2.9 1.2-2.9 1.2-5.9 2.6-1.8 1.8-1.8 1.8-3.6 4.2-0.3 3-0.3 3-0.9 6.2-3.5 6-3.5 6-7.1 11.9-3.8 3.6-3.8 3.6-7.7 7.4-0.3 3.6-0.3 3.6-0.6 6.6 0.6 0 0.6 0 1.2 0.9-0.3 2.3-0.3 2.3-0.6 4.7-0.6 1.2-0.6 1.2-1.5 3-1.7 1.5-1.7 1.5-3.5 2.9-0.6 3.3-0.6 3.3-1.5 6.6-1.8 0.6-1.8 0.6-3.3 1.2-2.3-0.6-2.3-0.6-4.4-1.2-2.1 2-2.1 2-3.9 3.5-1.5 0.6-1.5 0.6-2.6 1.5-0.3-2.4-0.3-2.4-0.9-4.4 0 0-1.2-0.9-2.4 0-0.9 0.3-2.7 0.6-2.7 0.6-1.5-0.9-1.5-0.9-2.9-1.8 0.3-2.4 0.3-2.4 0.6-5.1-0.9-1.7-0.9-1.7-1.5-4.1 0 0 0.3-4.8 0.9-5.1 0.8-0.9 2.9-3.2 2.9-3.2 0 0 1.5-5.1 1.5-6 0.3-0.9 0.9-4.7 0.9-4.7 0.9-2.4 0.9-2.4 1.8-4.5 0-2.3 0-2.3 0.3-5 0.9-2.7 0.9-2.7 1.8-5.7 1.4-2 1.4-2 3.2-4.4 2.1-1.2 2.1-1.2 4.2-2.1 0 0 3.5 3.6 4.1 3.9 0.3 0 1.8 0.6 3 0.3 0.9 0 4.7-1.8 4.7-1.8 0.9-3 0.9-3 1.8-6.3 0.9-3.2 0.9-3.2 1.2-6.2 0.6-2.1 0.6-2.1 1.2-3.8 0.6-1.5 0.6-1.5 1.2-2.4-0.3-2.7-0.3-2.7-0.3-5.4 0-2.3 0-2.3 0-4.4-1.5-0.6-1.5-0.6-2.4-1.8-2.1 0.3-2.1 0.3-3.6 0 0.6-2.4 0.6-2.4 1.2-4.8 3-1.4 3-1.4 6.3-3.2 1.4-1.8 1.4-1.8 2.9-3.9 0.3-2.1 0.3-2.1 0.9-4.4 1.2-1.2 1.2-1.2 2.7-2.1 0.3 1.2 0.3 1.2 0.9 2.1 1.5-1.5 1.5-1.5 2.9-2.4 3-3.6 3-3.6 5.7-6.5 1.8-3 1.8-3 3.5-6.6 3-1.2 3-1.2 6-2.3 1.7-4.8 1.7-4.8 3.5-9.2 2.1-1.8 2.1-1.8 4.5-3.3 1.2-1.5 1.2-1.5 2.3-3.3 2.7-1.7 2.7-1.7 5.4-3.2 2.4-1.2 2.4-1.2 4.7-2.4 0.9-2.7 0.9-2.7 1.8-5.1 0.6-3.2 0.6-3.2 0.6-6.2-1.5-1.5-1.5-1.5-3-2.7 1.2-3.5 1.2-3.5 2.1-6.5 3-1.8 3-1.8 6.2-3.9 1.2-2.3 1.2-2.3 2.1-4.7-1.2 0-1.2 0-2.4-0.3 1.5-2.1 1.5-2.1 2.4-3.9 2.1-1.2 2.1-1.2 3.6-1.7 0.6 0.9 0.6 0.9 0.9 2-0.3 1.5-0.3 1.5-0.9 3 0.9 1.2 0.9 1.2 1.2 2.7 0 0-1.8 4.1-1.8 4.7-0.3 0.9-4.2 6-4.2 6-0.6 2-0.6 2-1.4 3.8 0.5 2.4 0.5 2.4 1.1 4.8 0.9 1.2 0.9 1.2 1.5 2.9 2.4-0.8 2.4-0.8 4.5-1.4 1.7-1.2 1.7-1.2 3.5-2.4 1.5 0 1.5 0 3.3 0 2.7-1.5 2.7-1.5 5-3 3.6-3.2 3.6-3.2 6.9-6.2 1.7-0.3 1.7-0.3 3.5-0.6 1.2 0.9 1.2 0.9 2.7 1.5 2.4 0.3 2.4 0.3 4.7 0.3 2.4-3 2.4-3 4.8-5.7 2.3-5.3 2.3-5.3 4.4-10.1 1.2-2.6 1.2-2.6 2.4-5.3 0-2.4 0-2.4 0.3-5.1 2.1-2.6 2.1-2.6 3.9-4.7 1.7 0.6 1.7 0.6 2.9 1.8 0.6 1.5 0.6 1.5 1.5 2.7 2.1-0.6 2.1-0.6 3.9-0.9 1.4-2.4 1.4-2.4 2.6-5.1-1.8-0.9-1.8-0.9-3.5-2.1-0.3-1.5-0.3-1.5-0.9-2.6 2.9-3 2.9-3 5.9-5.4 3-2.4 3-2.4 5.6-4.4 2.1-0.3 2.1-0.3 3.9-0.6 0.6 1.2 0.6 1.2 1.5 2.1 2.1-0.6 2.1-0.6 4.1-1.5 1.2-0.9 1.2-0.9 2.4-1.8-0.3-2.7-0.3-2.7-0.9-5.4-1.8-1.1-1.8-1.1-3.8-2 0 0-4.5 2.6-4.8 3.2-0.3 0.3-5.3 5.1-5.3 5.1-3.9 1.5-3.9 1.5-7.7 2.9-1.5-0.5-1.5-0.5-2.7-1.7-0.9-2.1-0.9-2.1-1.8-4.5-0.6-2.4-0.6-2.4-0.9-4.7 0.9-2.7 0.9-2.7 1.5-4.8 2.1-4.2 2.1-4.2 3.6-8 2.3-1.2 2.3-1.2 4.7-3 2.1-1.8 2.1-1.8 4.5-3.8 1.2-2.1 1.2-2.1 2.3-3.9 1.2-1.5 1.2-1.5 2.7-3.6 1.5-0.3 1.5-0.3 3.6-1.1 0.6 0 0.6 0 0.9 0.3 0.8-1.2 0.8-1.2 1.7-2.1 0.3-1.2 0.3-1.2 0.3-2.1-2.6-0.9-2.6-0.9-5.3-1.5-1.5 0.3-1.5 0.3-3.6 0.9-1.7 1.2-1.7 1.2-3.8 2.4-1.2 1.2-1.2 1.2-2.4 2.7-1.2 2.3-1.2 2.3-2.7 5 0 0-1.4 3.6-1.7 3.9 0.3 0.3-3.3 4.4-3.3 4.4-2.7 2.4-2.7 2.4-5 4.8-2.4 1.1-2.4 1.1-5.1 2.6-2.1 1.5-2.1 1.5-4.1 2.7-1.5 2.1-1.5 2.1-3 4.8-0.6 1.4-0.6 1.4-1.2 2.9 0.6 3.3 0.6 3.3 1.2 6.3 1.8 1.7 1.8 1.7 3.3 3.5-0.6 2.4-0.6 2.4-0.6 4.2-1.8 2.9-1.8 2.9-3.6 6.5-3 2.4-3 2.4-5.9 4.8-1.2 1.4-1.2 1.4-2.4 2.9-0.6 3-0.6 3-0.6 5.4-1.8 2.3-1.8 2.3-3.6 4.4-2.6 3.3-2.6 3.3-5.6 6.5-1.8 2.1-1.8 2.1-3.8 4.5-2.1-0.6-2.1-0.6-4.5-0.6 0-4.1 0-4.1-0.3-8 0-3.6 0-3.6-0.3-6.8-0.6-2.4-0.6-2.4-1.5-4.5-2.1 0.3-2.1 0.3-4.4 1.2-2.7 1.5-2.7 1.5-5.7 3.6-3.2 3.2-3.2 3.2-6.5 6.8-1.8-0.6-1.8-0.6-3.5-1.2 0.3-2.7 0.3-2.7 1.1-5.9 1.5-2.1 1.5-2.1 2.7-4.5 0.3-2.1 0.3-2.1 0.9-4.1-1.5-0.6-1.5-0.6-3-0.9 1.5-3.9 1.5-3.9 2.4-6.9 3-3.5 3-3.5 6.5-7.1 3.6-2.7 3.6-2.7 7.2-5 0.8-1.2 0.8-1.2 2.3-2.7 1.8-1.2 1.8-1.2 4.2-2.4 0.9-2.7 0.9-2.7 2.4-5.6 2.3-1.2 2.3-1.2 4.4-2.1 1.8-3.3 1.8-3.3 3-6.2 2.9-2.1 2.9-2.1 5.9-4.8 1.5-3 1.5-3 3.3-6.2 4.4-5.1 4.4-5.1 8.6-9.5 2.9-3 2.9-3 6.2-5.7 3-1.1 3-1.1 5.6-2 2.7-2.4 2.7-2.4 5.1-4.2 1.5-0.6 1.5-0.6 2.9-1.2 2.1-1.8 2.1-1.8 3.9-3.2 1.5-1.8 1.5-1.8 2.7-3.6 1.7-0.9 1.7-0.9 3.2-1.5 0.6-1.8 0.6-1.8 1.2-3.5-0.3-1.2-0.3-1.2-0.3-2.7 2.4-1.8 2.4-1.8 5.1-3.6 0.8 0.3 0.8 0.3 1.7 0.9 2.1-0.3 2.1-0.3 4.2-0.6 1.8-1.2 1.8-1.2 3.3-1.8 0.8-2 0.8-2 2-4.1 2.4-0.9 2.4-0.9 5.1-2.4 0.6 0.6 0.6 0.6 0.9 1.2 0.8-0.3 0.8-0.3 2.3-1.2 0.9 0.3 0.9 0.3 2.1 0 0.9 0.3 0.9 0.3 2.1 0.6 2.1-1.5 2.1-1.5 4.1-3 2.1-0.3 2.1-0.3 4.5-0.9 0.3 0.6 0.3 0.6 0.9 0.9 0.3 0.9 0.3 0.9 0.3 1.8 1.5 0.6 1.5 0.6 3.5 0.9 4.5 0.3 4.5 0.3 8.9 0.6 3.9 0.6 3.9 0.6 8.3 1.2 6 0.9 6 0.9 11.6 2.1 1.8 0.5 1.8 0.5 3.6 1.1 0 2.1 0 2.1-0.3 4.5-2.4 2.4-2.4 2.4-5.1 5.3-4.4 1.8-4.4 1.8-8.3 3.9-4.1 0.6-4.1 0.6-7.7 0.9-3-0.6-3-0.6-5.6-1.5-1.2 0.9-1.2 0.9-3 2.1 0.6 2.1 0.6 2.1 0.6 4.7 0.9 2.7 0.9 2.7 1.5 6 1.8 2.3 1.8 2.3 3.2 5 1.5 1.2 1.5 1.2 3 2.7 1.8-1.5 1.8-1.5 3.6-3-0.6-1.8-0.6-1.8-1.2-3.5-0.3-0.9-0.3-0.9-0.3-2.4 2.4-1.5 2.4-1.5 4.4-2.7 2.4-0.6 2.4-0.6 4.8-0.6 1.2 0.9 1.2 0.9 2.4 2.4-0.9 2.1-0.9 2.1-2.1 4.4 2.4-0.6 2.4-0.6 4.7-1.1 1.5-2.7 1.5-2.7 2.4-5.4-0.6-1.5-0.6-1.5-1.5-3 0-1.7 0-1.7-0.3-3.2 2.1-1.5 2.1-1.5 4.2-3 3.5-2.1 3.5-2.1 7.1-4.1 2.7-0.9 2.7-0.9 5.9-1.8 0.6 1.8 0.6 1.8 1.2 3.5 1.2 0 1.2 0 2.7 0 1.5-1.7 1.5-1.7 2.6-3.5 0-2.1 0-2.1-0.3-4.2-0.8-2.1-0.8-2.1-1.1-4.7-2.1-0.9-2.1-0.9-3.9-2.1 1.2-1.8 1.2-1.8 2.4-3.3 2.6-0.9 2.6-0.9 5.3-1.8 2.1 0.3 2.1 0.3 3.6 1.2 0.9 0.9 0.9 0.9 1.8 1.5 0 2.7 0 2.7-0.3 5.1 0.3 1.4 0.3 1.4 0.9 2.6 0 0 4.1 0 5.3-0.3 0.9 0 6.2-3.8 6.2-3.8 5.4-4.5 5.4-4.5 10.4-8.6 4.7-1.2 4.7-1.2 9.2-2.4 1.2-0.6 1.2-0.6 2.7-1.5 2 0.9 2 0.9 3.8 1.8 3.3-1.8 3.3-1.8 6.5-3.3 3.3-1.2 3.3-1.2 6.3-2 0 0 1.2 0.8 2.3 0.8 1.2-0.3 7.5-5.3 7.5-5.3 2.3-0.6 2.3-0.6 4.4-1.2 0.6 2.4 0.6 2.4 0.9 4.8 2.4 0.5 2.4 0.5 4.7 1.1 1.8-1.7 1.8-1.7 3.6-3.8-2.1-1.2-2.1-1.2-3.6-2.7-0.5-0.9-0.5-0.9-1.1-1.8-0.6-0.6-0.6-0.6-1.2-1.2-1.8 0.3-1.8 0.3-4.2 0.9-2.4 0.3-2.4 0.3-5 0.6-3 0-3 0-6 0.3 0.3-1.5 0.3-1.5 0.9-2.6 3-1.8 3-1.8 5.1-3.3 0 0 7.1-1.5 7.1-0.9 0.9 0.3 2.4 2.1 2.4 2.1 0 0 2 1.2 2.9 0.9 0.3 0 3.9-1.2 4.2-1.5 0.9 0 7.1 0 7.1 0 3.9 0 3.9 0 7.4 0 3.6 0.9 3.6 0.9 6.8 2.1 1.8 1.7 1.8 1.7 3.9 3.5 1.2 1.5 1.2 1.5 3 3 2.6 1.2 2.6 1.2 5.6 2.1 2.4-0.3 2.4-0.3 4.7-0.9 0 0 1.2-2.4 1.2-3 0-0.3-3.5-3.3-3.5-3.3 0 0-2.7-2.6-2.7-3.2-0.3-0.3-4.4-4.2-4.4-4.2-1.8-0.6-1.8-0.6-3.6-1.2 0.3-1.7 0.3-1.7 0.3-3.8 0 0 1.8-3 3.3-3.3 0.8 0 5-1.2 5-1.2 1.2-2.4 1.2-2.4 2.4-4.7 0.6-2.4 0.6-2.4 0.9-5.1 0.9-1.5 0.9-1.5 2.6-3.2 2.1-1.2 2.1-1.2 4.8-2.4 3.8 0.3 3.8 0.3 7.4 0.6 1.8 2.4 1.8 2.4 3.8 5-0.2 3.6-0.2 3.6-0.2 7.2 1.1 3.2 1.1 3.2 2.3 6.8 1.5 3.8 1.5 3.8 3.3 8 1.5 2.4 1.5 2.4 2.7 4.7-1.2 3.9-1.2 3.9-2.4 7.8-2.1 2-2.1 2-4.2 4.4-3.8 0.6-3.8 0.6-7.7 1.2-2.1 2.4-2.1 2.4-3.8 4.5 1.4 1.1 1.4 1.1 2.9 2.3 4.5 0 4.5 0 9.2 0 0 0 5.4-2.6 6-3.5 0.3-0.6 3.5-6 3.5-6 2.1-3.5 2.1-3.5 3.6-6.8 2.3-2.4 2.3-2.4 5-4.7 2.1 0 2.1 0 4.8-0.3 1.4 1.4 1.4 1.4 2.6 2.9 2.4 2.1 2.4 2.1 4.5 3.9 1.2 2.1 1.2 2.1 2.7 3.8 2.6 0 2.6 0 5.6 0 0 0 2.1-1.7 1.5-2.9-1.2-1.2-5.1-3.6-5.4-4.5-0.3-1.2-3.8-4.7-3.8-4.7-2.1-1.2-2.1-1.2-3.9-2.4-2.9-0.6-2.9-0.6-5-1.5-1.8 1.5-1.8 1.5-2.7 3-2.7 0-2.7 0-5 0.3 0 0-2.4 0.9-2.7 0-0.6-1.2-1.5-3.6-1.5-3.6-0.3-4.1-0.3-4.1-1.2-8.3-2-1.8-2-1.8-4.7-3 0.6-3.8 0.6-3.8 1.8-7.4 3.8-2.1 3.8-2.1 7.7-4.1 0.6 2 0.6 2 0.3 4.1 0.6 2.4 0.6 2.4 0.3 4.5 2.6 1.5 2.6 1.5 5.3 2.9 2.7 0.9 2.7 0.9 5.6 2.1 1.2-1.5 1.2-1.5 2.1-2.7-1.2-2-1.2-2-2.7-3.8 2.1-2.1 2.1-2.1 4.2-3.9 3.3 0 3.3 0 7.1 0.3 1.2 1.8 1.2 1.8 2.7 3.6 4.1 0.9 4.1 0.9 8 1.8 0 0 3 1.2 3.3 1.7 0.3 0.9 2.3 3.6 2.3 3.6 1.5-0.9 1.5-0.9 3-1.8-1.2-2.3-1.2-2.3-1.8-4.7-2.7-1.8-2.7-1.8-5-3.6-3.3-0.9-3.3-0.9-6.3-1.8-1.4-1.2-1.4-1.2-2.9-2.3 1.5-3 1.5-3 2.7-5.7 0 0 5.9-2.1 7.4-2.1 0.9 0 7.4 1.2 7.4 1.2 5.3 0 5.3 0 10.1 0.3 2-0.9 2-0.9 4.1-1.5-1.2-1.7-1.2-1.7-2.7-3.2-2.9-0.6-2.9-0.6-5.6-1.2-0.3-1.5-0.3-1.5-0.3-3 3.3-1.2 3.3-1.2 6.5-2.1 3.3-0.8 3.3-0.8 7.2-1.7 4.7-0.3 4.7-0.3 9.7-0.6 2.7 0 2.7 0 5.7-0.3 2.9-1.2 2.9-1.2 5.6-2.7 3.9 0 3.9 0 8.3-0.3 2.4 1.5 2.4 1.5 5.4 2.7 2.3-0.9 2.3-0.9 4.7-1.8 3.6 0 3.6 0 6.8 0.3 4.8 0.6 4.8 0.6 9.5 1.5 1.5-0.6 1.5-0.6 3-1.5-0.6-2.1-0.6-2.1-1.5-4.2 0.6-2 0.6-2 1.8-4.4 5-0.3 5-0.3 10.7-0.9 3.2 1.5 3.2 1.5 7.1 3.3 3.5 2.3 3.5 2.3 7.7 5 4.7 0.3 4.7 0.3 9.8 0.3 3.5-0.6 3.5-0.6 7.1-1.2 4.2 1.2 4.2 1.2 8.6 2.4 3.6 1.2 3.6 1.2 7.4 2.7 2.4 2 2.4 2 5.1 3.8-0.9 2.1-0.9 2.1-2.4 3.9-3.3 1.8-3.3 1.8-7.1 3.2-2.1 1.2-2.1 1.2-4.2 2.4-5 0.9-5 0.9-10.1 1.5-2.9 1.5-2.9 1.5-6.2 3 1.2 1.4 1.2 1.4 3 3.2 2.9-0.9 2.9-0.9 6.2-1.4 0 0 7.7-2.4 8.6-2.7 0.6-0.3 8.6-1.2 8.6-1.2 7.1 0.9 7.1 0.9 14.8 1.8 8.6 0.9 8.6 0.9 17.5 2.1 6.3 1.4 6.3 1.4 12.2 3.2 5 2.7 5 2.7 10.4 5.4 2.6 0.6 2.6 0.6 5.9 1.1 0.9-2 0.9-2 2.1-3.5 0 0 2.1-2.1 4.1-1.8 1.8 0.3 12.2 2.1 12.2 2.1 4.7 1.8 4.7 1.8 8.6 3.2 0.6 1.8 0.6 1.8 1.5 3.3-2.1 0.6-2.1 0.6-3.3 1.5-0.6 1.2-0.6 1.2-1.5 2.4 3.6 2.1 3.6 2.1 7.7 4.7 0 0 4.2 1.2 7.5 2.4 3.5 1.2 8.9 2.1 8.9 2.1 0.8-1.2 0.8-1.2 1.4-2.7 0 0 2.4-1.8 3.9-0.9 1.2 0.6 4.2 3.6 4.2 3.6 0 0 2.9 1.5 5 1.8 2.1 0.3 5.3 0 5.3 0 7.2 2.3 7.2 2.3 14.6 5 1.4-0.6 1.4-0.6 2.9-1.2-1.7-2.4-1.7-2.4-4.4-5 2.4-1.2 2.4-1.2 5.3-2.1 5.4 3 5.4 3 10.4 5.9 4.2 1.2 4.2 1.2 8 2.4 1.8 1.8 1.8 1.8 4.2 3.9 4.1 0.6 4.1 0.6 8.3 1.2 3.8 1.4 3.8 1.4 7.7 2.6 5.3 4.2 5.3 4.2 11 8.3 0 0 7.4 3.9 8.9 4.5 1.4 0.6 6.8 1.8 8.9 2.7 1.4 0.5 9.1 3.2 9.1 3.2 3.3 2.4 3.3 2.4 6.9 4.8 3.8 3.5 3.8 3.5 8 7.4 3.5 3 3.5 3 7.4 5.6 1.2-0.6 1.2-0.6 2.4-1.2 4.1 1.8 4.1 1.8 8.3 3.6 2.1 1.1 3.2 1.6 4.3 2.2-94.3-90.7-222.2-146.6-362.9-146.6-187.9 0-353 99.5-445.6 248.5-0.2 0.7-0.3 0.8-0.8 2.2 0.9-1.2 0.9-1.2 2-2.4 1.2-1.8 1.2-1.8 2.4-3.8 1.2-1.2 1.2-1.2 2.1-2.4 1.2-0.6 1.2-0.6 2.4-0.9-0.3 1.5-0.3 1.5-0.6 2.7-0.6 1.1-0.6 1.1-0.9 2.3 1.5-0.9 1.5-0.9 2.7-1.5 0.6-0.2 0.6-0.2 1.4-0.8 0 1.1 0 1.1 0.3 2-0.6 1.5-0.6 1.5-0.9 2.4-1.4 1.2-1.4 1.2-2.6 2.1-0.3 1.2-0.3 1.2-0.6 2.1 0.3 0.9 0.3 0.9 0.3 1.4 1.2 0 1.2 0 2.1 0 0 1.2 0 1.2 0 1.8-1.2 1.8-1.2 1.8-1.8 3.3-0.3 0.9-0.3 0.9 0 1.5 0.6 0.6 0.6 0.6 1.5 0.9-0.6 1.2-0.6 1.2-1.2 2.6 0.9 0.9 0.9 0.9 1.8 2.1-0.6 1.8-0.6 1.8-1.2 3.9 0.6 0.9 0.6 0.9 0.9 1.8 1.7-0.3 1.7-0.3 2.9 0-0.3 2.6-0.3 2.6-0.9 5.9-0.6 1.2-0.6 1.2-1.4 2.7-1.2 0.3-1.2 0.3-2.1 0.9-1.5 1.2-1.5 1.2-2.4 1.7 0 0.9 0 0.9-0.3 2.1 0.9 0.3 0.9 0.3 1.5 0.6-0.6 1.5-0.6 1.5-1.2 2.4-0.3 0.3-0.3 0.3-0.9 1.2-0.9 0-0.9 0-2.1 0-0.6 0.9-0.6 0.9-1.4 1.5-0.9 1.1-0.9 1.1-1.8 2.3-1.2 0.6-1.2 0.6-2.4 1.2-0.6 0.3-0.6 0.3-1.5-0.3-1.2 0.6-1.2 0.6-2.1 0.6-0.8 1.2-0.8 1.2-1.4 2.1-0.9 1.5-0.9 1.5-1.8 2.7-0.9 1.2-0.9 1.2-2.1 2.3-1.5 0.9-1.5 0.9-3.3 1.8 0.3-2.1 0.3-2.1 0.6-3.5 4.2-5.1 4.2-5.1 8-9.8 0-0.6 0-0.6 0.3-1.8-1.7 0.3-1.7 0.3-3.5 0.6 0.6-1.2 0.6-1.2 0.9-2.4 1.2-0.9 1.2-0.9 2.6-2.7-0.3-1.2-0.3-1.2-0.6-3.2 1.2-2.4 1.2-2.4 1.8-4.2 2.1-1.2 2.1-1.2 4.2-1.8 0.9-2.6 0.9-2.6 1.5-4.4-0.6-1.5-0.6-1.5-0.9-3.6-1.8 0.6-1.8 0.6-3.6 0.9 0.3-1.5 0.3-1.5 0.6-2.7-0.6-2-0.6-2-1.2-3.5 0.9-1.2 0.9-1.2 1.8-2.7 0.9-0.6 0.9-0.6 1.8-1.8-0.3-0.9-0.3-0.9-0.3-2.1-0.3-0.9-0.3-0.9-0.3-1.4-1.2 1.1-1.2 1.1-2.1 1.7q-0.1-0.1-0.1-0.2-6.8 11.2-13 22.8c0.7 0 0.8-0.1 1.8-0.6 1.5-3.3 1.5-3.3 3-6.8 1.8-0.6 1.8-0.6 3.6-1.5 1.1 1.2 1.1 1.2 2 2.7-0.9 1.4-0.9 1.4-1.4 2.9-1.2 1.8-1.2 1.8-2.4 3.3 0 1.8 0 1.8 0 3.6-1.8 3.8-1.8 3.8-3.3 7.1-1.8 0.9-1.8 0.9-3.2 1.8-3.6 4.1-3.6 4.1-6.9 8.3-0.3-1.2-0.3-1.2-0.9-2.1 1.2-3.3 1.2-3.3 1.8-5.6 1.2-1.8 1.2-1.8 2.7-3.3 0-1.2 0-1.2 0.3-2.4-0.2-0.6-0.3-0.8-0.5-1-37.2 72-58.3 153.7-58.3 240.3 0 289.1 235.1 524.3 524.2 524.3 198.9 0 372.3-111.5 461-275.4zm-893.5-537.2c-0.6 0.9-0.6 0.9-1.2 1.8-0.3 0.3-0.3 0.3-0.9 0.6 0-0.6 0-0.6 0-1.2 0.6-0.9 0.6-0.9 1.2-1.8 0.6-0.3 0.6-0.3 1.5-0.8-0.6 0.8-0.6 0.8-0.6 1.4zm3-6.2c0.6-1.5 0.6-1.5 1.2-3 0.9-1.2 0.9-1.2 1.7-2.6 0.3 0 0.3 0 0.9-0.3 0.3 0 0.3 0 0.6 0.3-0.6 2-0.6 2-1.8 4.4-0.5 0.9-0.5 0.9-0.8 1.5-0.6 0.6-0.6 0.6-1.2 0.9-0.6-0.3-0.6-0.3-0.6-1.2zm5 138.3c-2.6-1.4-2.6-1.4-5-3.5 0.3-3.3 0.3-3.3 1.2-6.8 0 0 3.2-3 4.1-3.3 0.9 0 3.6-1.2 3.6-1.2 0 2.1 0 2.1 0 4.5 0 0-1.2 1.1-1.8 3.8-0.6 2.1-2.1 6.5-2.1 6.5zm2.4-17.2c-0.3-2.1-0.3-2.1-0.3-4.1 0.9-3 0.9-3 2.1-6 1.2-0.6 1.2-0.6 2.6-0.9 0.3 2.7 0.3 2.7 0.6 5.4-0.9 1.8-0.9 1.8-2 3.8-1.5 0.9-1.5 0.9-3 1.8zm67.3 28.8c-2.3 0.3-2.3 0.3-4.4 0.9 0.3-3 0.3-3 0.9-5.6 3.8-0.9 3.8-0.9 7.4-1.5 2.4 1.2 2.4 1.2 4.4 2.4-1.2 1.4-1.2 1.4-2.6 3.2-3 0.6-3 0.6-5.7 0.6zm41.8 10.1c-1.7 0.9-1.7 0.9-3.5 1.2 0.6-2.7 0.6-2.7 0.9-5.6 2.4-1.2 2.4-1.2 5-2.4 1.8-0.9 1.8-0.9 3.9-1.5 1.2 0.3 1.2 0.3 2.3 0.3 0.3 1.5 0.3 1.5 0.9 2.4-0.9 1.5-0.9 1.5-1.7 2.9-1.8 0.3-1.8 0.3-3.6 0.9-2.1 0.9-2.1 0.9-4.2 1.8zm124.6 388.3c0.6 3.6 0.6 3.6 1.2 7.1-0.9 3.3-0.9 3.3-1.5 6.6-0.9 1.4-0.9 1.4-1.8 2.9-0.2 3-0.2 3-0.5 6.6-1.2 1.4-1.2 1.4-2.4 2.9 0.6 2.7 0.6 2.7 1.5 5.7-0.6 1.7-0.6 1.7-0.9 3.5-1.5 1.2-1.5 1.2-2.4 2.7-2.1 0.9-2.1 0.9-4.2 1.8 0 2.1 0 2.1 0 4.1 1.2 2.7 1.2 2.7 2.4 5.7 0 0-0.9 1.8-0.9 3.2-0.3 0.9-2 6.6-2 6.6-0.3 2.9-0.3 2.9-0.6 5.9-0.9 2.1-0.9 2.1-2.1 3.9 0 1.5 0 1.5-0.6 2.9-1.2 0.9-1.2 0.9-2.7 1.8-1.8 1.2-1.8 1.2-3.5 2.4-1.8 0.3-1.8 0.3-3.9 0.3-1.5 1.2-1.5 1.2-3 2.4-2-1.8-2-1.8-4.1-3.6-3.6-1.2-3.6-1.2-7.4-2.7 0 0-1.8-6.2-0.9-7.1 1.5-0.6 1.8-5.6 1.8-5.6-3.9-1.5-3.9-1.5-7.5-3-0.5-3.3-0.5-3.3-1.1-6.2 2.3-2.4 2.3-2.4 4.7-4.5 2.1-3 2.1-3 4.2-6.2-0.3-3-0.3-3 0-5.4-3-4.1-3-4.1-5.7-8 0.6-5 0.6-5 1.8-10.1 3.3-3.5 3.3-3.5 6.5-7.4 2.4-1.8 2.4-1.8 4.8-3.3 1.8 2.7 1.8 2.7 3.8 5.4 0.9-2.4 0.9-2.4 2.4-4.5 2.1-3.5 2.1-3.5 4.5-6.8 2.3-4.2 2.3-4.2 4.7-8.6 0.3-3.6 0.3-3.6 0-7.4 3.3-0.6 3.3-0.6 6.2-1.5 1.8 3.8 1.8 3.8 3.3 7.7 0.9 2.4 0.9 2.4 2.1 4.8 2 2.3 2 2.3 3.8 5zm213.6-167.4c0.3 3.2 0.3 3.2 0.6 6.5-0.3 3-0.3 3-0.6 5.9-1.2 2.1-1.2 2.1-2.7 4.2-1.8 1.2-1.8 1.2-3.8 2.1-2.7-0.3-2.7-0.3-5.1-0.9-2.7-4.2-2.7-4.2-5.3-8.3-0.3-3.9-0.3-3.9-0.6-8 0 0 0.6-6.6 1.5-7.5 0.6-0.6 5.3-7.7 5.3-7.7 2.1 0.9 2.1 0.9 4.2 1.5 2 2.7 2 2.7 4.1 5.6 1.2 3.3 1.2 3.3 2.4 6.6zm-220.7-523.7c-0.6-1.2-0.6-1.2-1.2-2.7 0.9-2.9 0.9-2.9 1.8-5.9 0 0 3.9-3 5.3-3.6 1.2-0.6 5.4-3.8 5.4-3.8 1.2-0.6 1.2-0.6 2.6-1.2 1.2-2.4 1.2-2.4 1.8-4.5 0.6-1.1 0.6-1.1 1.8-2.6 4.8-1.2 4.8-1.2 9.5-2.4 1.5-1.5 1.5-1.5 3.6-3.3 2.6 0 2.6 0 4.7 0 2.4-2 2.4-2 5-3.8 2.7-0.9 2.7-0.9 6.3-1.5 3.5-0.3 3.5-0.3 7.4-0.6 4.4-1.5 4.4-1.5 8-2.7 3.3-1.8 3.3-1.8 5.9-3 1.8-0.8 1.8-0.8 4.2-2 3.5 0.3 3.5 0.3 6.8 0.6 1.5 0.6 1.5 0.6 3.3 1.4 0 0-2.1 1.5-3 2.1-0.6 0.3-6.2 1.8-6.2 1.8 0 0-8.9 2.1-10.1 2.4-0.3 0-12.8 4.4-12.8 4.4 0 0-9.2 3.6-10.1 4.2-1.1 0.9-9.7 7.1-9.7 7.1-4.5 2.4-4.5 2.4-8.3 4.5-2.1 2.3-2.1 2.3-4.2 5-1.2 1.5-1.2 1.5-1.5 3 0 0 0.9 2.7 1.5 2.7 0.3 0.6 3.6 2.3 3.6 2.3 0.6 0.9 0.6 0.9 1.1 1.8 0.6 0 0.6 0 1.2 0.3 0 1.2 0 1.2 0 2.4-2.6 1.2-2.6 1.2-4.7 2.4-3.6 0.6-3.6 0.6-7.4 1.4-3.3-0.2-3.3-0.2-6.8-0.2-0.6-2.4-0.6-2.4-1.5-4.5-1.2-0.9-1.2-0.9-3.3-1.5zm-21.9 21.1c0.3-0.6 4.1-5.3 4.1-5.3 2.4-0.6 2.4-0.6 5.3-1.2 0 1.4 0 1.4-0.2 2.9-0.6 1.5-0.6 1.5-1.8 3.3-1.8 0.9-1.8 0.9-3.3 2.1-1.5 0-1.5 0-3.6 0.3 0 0-0.2-2.1-0.5-2.1zm-138 41c-1.5 0.5-1.5 0.5-2.9 0.5 0.6-0.8 0.6-0.8 1.4-2.3 2.1-1.5 2.1-1.5 4.2-3.3 0.9-0.3 0.9-0.3 2.1-0.6 0 0.6 0 0.6-0.3 1.2 0 0.9 0 0.9 0 1.5-2.1 1.5-2.1 1.5-4.5 3zm9.8-7.2c-0.9-0.3-0.9-0.3-2.1-0.6 1.2-1.7 1.2-1.7 3-3.8 1.5-0.6 1.5-0.6 3-1.2 0.3 0.3 0.3 0.3 0.9 0.9 0.6 0 0.6 0 1.4-0.6 0 0 1.5-1.2 2.7-1.8 0.9-0.3 3.6-1.2 3.3-0.6-0.3 0.3-1.5 2.1-1.8 2.7 0 0-1.8 1.8-2.1 2.1-0.6 0.3-3.2 0.3-3.2 0.3 0-0.9 0-0.9-0.3-1.2 0 0-0.6 0-0.9 0.3-0.3 0.6-0.6 1.8-0.6 1.8 0.3 0.2 0.3 0.2 0.6 0.5-0.9 1.5-0.9 1.5-1.8 2.7 0 0-1.8 2.1-2.4 2.4-0.3 0-1.2 0-1.2 0 0.3-0.6 0.3-0.6 0.3-1.2 0.3-1.2 0.3-1.2 1.2-2.7zm375.5-113.4c0-0.6 1.8-2.9 3.3-3.5 1.2-0.6 1.8-3 1.8-3 2 0.3 2 0.3 3.8 0.3 1.5 0.6 1.5 0.6 3 1.2 2.1 0.3 2.1 0.3 4.4 0.9 2.1 0.3 2.1 0.3 4.2 0.6 0.6 2 0.6 2 0.9 4.1-0.9 0.3-0.9 0.3-2.1 0.6-3 0.9-3 0.9-5.6 2.1 0 0-7.7-0.3-8.9-0.6-0.3-0.6-4.8-2.1-4.8-2.7zm-21.6-7.4c1.5-1.2 1.5-1.2 2.9-2.7 2.1-0.3 2.1-0.3 3.6-0.8 2.7 0.5 2.7 0.5 4.7 1.1 3 1.2 3 1.2 6 2.7-0.3 0.9-0.3 0.9-0.6 1.8 1.8 0.6 1.8 0.6 3.2 1.2-0.8 0.9-0.8 0.9-2 1.5-0.9 0.3-0.9 0.3-2.1 0.9-4.5-0.3-4.5-0.3-8.3-0.3-4.2-0.3-4.2-0.3-8-0.9-3.6-0.9-3.6-0.9-6.8-1.8 0.8-0.9 0.8-0.9 2.3-2.1 2.4-0.3 2.4-0.3 5.1-0.6zm-20.2-1.8c-2.7-0.9-2.7-0.9-5.6-1.7 0-0.9 0-0.9 0-1.8 4.4-0.9 4.4-0.9 9.2-1.8 1.7-0.9 1.7-0.9 3.8-1.8 2.1-0.6 2.1-0.6 4.8-1.2 0 0 4.4 1.8 5.6 1.8 0.6 0.3 2.4 0.3 3.6 0.9 0.6 0.3-1.2 4.1-1.2 4.1-2.1 0.6-2.1 0.6-4.2 1.2-3.2 0.6-3.2 0.6-6.8 1.2-2.1 0.6-2.1 0.6-4.7 1.2-2.4-1.2-2.4-1.2-4.5-2.1zm223.6 48.4c-1.1-2.4-1.1-2.4-2-4.1 3.8 0 3.8 0 7.7 0.3 3.5 2 3.5 2 7.1 4.1 0 0 3.9 2.1 4.5 2.1 1.1 0.3 1.7-2.4 1.7-2.4 3 0.9 3 0.9 5.7 1.5 0 0 4.4 3.9 5.6 4.8 0.9 0.5 6.5 3.2 6.5 3.2 0 1.8 0 1.8 0.3 3.3 0 0-2.9 0-3.8-0.3-1.2 0-8.3-1.8-9.2-2.1-1.2-0.9-3.9-3.6-3.9-3.6-1.5 0.6-1.5 0.6-2.4 1.2-4.4-1.2-4.4-1.2-9.4-2.3-4.2-3-4.2-3-8.4-5.7zm46.6 14c-2.7-1.8-2.7-1.8-5.3-3.6 0.3-0.9 0.3-0.9 0.6-1.8 2.3 1.2 2.3 1.2 5 2.4 0 0 4.8 1.2 5.6 1.8 0.6 0 4.8 1.2 4.8 1.2 2.1 1.5 2.1 1.5 4.4 2.9 0.3 1.2 0.3 1.2 0.3 2.1-1.4 0.3-1.4 0.3-2.9 0.9-3.9-1.5-3.9-1.5-7.4-2.4-2.7-1.8-2.7-1.8-5.1-3.5zm85.7 169.2c-2.3-3.3-2.3-3.3-4.4-6-0.9-3.5-0.9-3.5-1.2-6.5 2.4 0.3 2.4 0.3 5 0.9 1.8 3.9 1.8 3.9 3.6 7.4 0.6 2.4 0.6 2.4 1.5 4.5 4.1 3.5 4.1 3.5 7.7 7.1 0.9 1.2 0.9 1.2 2.4 3.3-0.9 0.6-0.9 0.6-1.8 1.2-1.2 0.2-1.2 0.2-2.1 0.2 0.9 2.7 0.9 2.7 2.1 5.7 2.1 2.7 2.1 2.7 4.4 5.9 1.8 2.1 1.8 2.1 3.3 4.2 0 2.4 0 2.4-0.3 4.4-1.5 0.9-1.5 0.9-2.7 1.8-2.9-2.1-2.9-2.1-5.9-4.1-1.8-2.7-1.8-2.7-3.9-5.4 0.3-2.4 0.3-2.4 0.6-4.1-1.7-3-1.7-3-4.1-6.3-0.9-2.6-0.9-2.6-1.8-5.6-1.5-4.5-1.5-4.5-2.4-8.6zm18.7 50.1c1.5 1.2 1.5 1.2 3 2.4 0.9 3.9 0.9 3.9 1.8 7.7 1.7 2.1 1.7 2.1 3.2 3.6 3.6 2.1 3.6 2.1 6.9 3.6 0 0 5 0.3 5.9 1.7 0.6 1.2 1.8 7.5 1.8 7.5-0.9 3.2-0.9 3.2-2.4 6.2-1.2 2.4-1.2 2.4-2.7 4.5-1.5 0.6-1.5 0.6-2.9 1.1-1.2-2.6-1.2-2.6-2.4-5-2.4-0.6-2.4-0.6-4.8-1.5-1.1 0.6-1.1 0.6-2.3 1.2-2.1 0.9-2.1 0.9-4.2 2.1-2.1-3.6-2.1-3.6-3.8-7.1 2-4.8 2-4.8 4.1-9.5-0.6-4.5-0.6-4.5-1.2-8.9-0.9-2.4-0.9-2.4-2.1-4.8 1.2-2.1 1.2-2.1 2.1-4.8zm-26.4 91.2c-0.6-1.5-0.6-1.5-1.5-3 2.1-0.9 2.1-0.9 4.2-1.8 1.8-2.6 1.8-2.6 3.6-5 2.3-0.9 2.3-0.9 4.7-2.4 2.1 0.9 2.1 0.9 3.9 1.2 2.3 0.6 2.3 0.6 4.4 0.9 0.9-5.1 0.9-5.1 1.8-10.1 2.4 0.3 2.4 0.3 5 0.9 0 0 3.9 2.7 4.5 1.8 0.3-1.5 0.6-9.8 0.6-9.8-0.6-3.9-0.6-3.9-1.5-7.7 0 0 3.2-1.2 3.2-3 0-1.2-2.6-6.2-2.6-6.2-0.3-1.8-0.3-1.8-0.3-3.9 0.9-1.2 0.9-1.2 1.8-2.4 2.6 0 2.6 0 5 0.3 0 0 1.5 3.9 1.8 5.1 0.3 1.1 1.2 5.9 1.2 5.9 2.3 2.4 2.3 2.4 4.7 5 0.9 1.5 0.9 1.5 1.5 3-1.2 1.5-1.2 1.5-2.4 3.3-1.8 0.3-1.8 0.3-2.9 0.9 0 1.5 0 1.5 0 2.9-0.3 0.6-0.3 0.6 0 1.5 0.9 0.9 0.9 0.9 1.4 2.1 1.2 2.1 1.2 2.1 2.4 4.7-0.3 5.4-0.3 5.4-0.6 10.7-1.5 1.8-1.5 1.8-2.9 3.6-1.2 1.2-1.2 1.2-2.4 2.1-0.3 2.1-0.3 2.1-0.9 4.1-2.1-1.5-2.1-1.5-4.2-2.3-1.7 0-1.7 0-3.2 0.6-1.2 0-1.2 0-2.4-0.3-2.1-1.8-2.1-1.8-4.4-3.6-1.8 0.9-1.8 0.9-3.3 1.5 0 2.1 0 2.1 0.6 4.1-0.6 1.2-0.6 1.2-1.2 2.4-2.1-1.5-2.1-1.5-4.4-3-0.6 1.2-0.6 1.2-1.2 2.7-1.2 0.6-1.2 0.6-2.7 0.6-2.1-0.9-2.1-0.9-4.5-1.5-0.8-1.2-0.8-1.2-1.7-2.3-2.7-1.8-2.7-1.8-5.1-3.6zm-10.9 19.3c-1.2-2.1-1.2-2.1-2.4-3.9 0 0 2.1-5 2.4-5.6 0.5-0.3 5.3-6.2 5.3-6.2 2.4 0 2.4 0 4.4-0.6 1.8 2.9 1.8 2.9 3.6 6.2 0 1.8 0 1.8 0.3 3.6-0.3 3.8-0.3 3.8-0.6 7.4 0.6 2.3 0.6 2.3 1.2 4.4-0.6 1.8-0.6 1.8-0.9 3.3-1.8 0.6-1.8 0.6-3.6 1.5-1.4-1.8-1.4-1.8-2.6-3.6-0.6-1.5-0.6-1.5-1.5-3.6-0.9-0.8-0.9-0.8-2.1-1.7-1.8-0.6-1.8-0.6-3.5-1.2zm23.7-3c-1.5 0.9-1.5 0.9-3 1.8-0.9 0.6-0.9 0.6-2.1 0.9 0 0-1.7-2.1-1.7-2.4-0.3-0.6 0-5 0-5 1.7-0.9 1.7-0.9 3.2-1.8 1.8 0.9 1.8 0.9 3.6 1.5 0 2.6 0 2.6 0 5zm-125.2 107.8c-1.8 5.3-1.8 5.3-3.5 10.1-2.1 2.3-2.1 2.3-4.5 4.1-2.4 0-2.4 0-4.4 0-1.2-3.8-1.2-3.8-2.4-7.4 2.6-6.2 2.6-6.2 5.3-12.5 3-0.6 3-0.6 6-0.9 1.7 3.3 1.7 3.3 3.5 6.6zm56.1-27.6c-0.6-4.2-0.6-4.2-1.5-8.1 1.5-4.7 1.5-4.7 2.7-9.4 2-2.4 2-2.4 4.1-4.5 2.4 1.5 2.4 1.5 4.5 3 0 0 1.7 4.1 2 5.3 0 1.2 1.5 11 1.5 11-1.2 2.4-1.2 2.4-2.1 5-2.3 1.5-2.3 1.5-4.7 3.3-3.3-2.7-3.3-2.7-6.5-5.6zm9.8 31.4c2.9-1.5 2.9-1.5 5.9-2.9 1.8 2.6 1.8 2.6 3.5 5 2.1 4.8 2.1 4.8 4.2 10.1-0.6 3.3-0.6 3.3-0.9 6.8-0.6 2.4-0.6 2.4-0.9 5.1 0.6 2.6 0.6 2.6 1.2 5-1.5 2.7-1.5 2.7-2.7 5.7-0.9 0.6-0.9 0.6-1.7 1.1-5.1-0.5-5.1-0.5-9.8-1.1-0.9-1.8-0.9-1.8-1.8-3.6-3-1.2-3-1.2-5.6-2.1-0.3-4.7-0.3-4.7-0.6-8.9 2.3-1.8 2.3-1.8 4.7-3.8 1.2-4.8 1.2-4.8 2.7-9.5 0.9-3.3 0.9-3.3 1.8-6.9zm7.4 49.9c0.6 2.1 0.6 2.1 0.9 4.2-2.1 0.6-2.1 0.6-4.5 1.2-3-1.5-3-1.5-6.2-2.7-2.1-2.7-2.1-2.7-4.5-5.4 1.8-2.3 1.8-2.3 3.6-5 3.9 1.2 3.9 1.2 7.7 2.4 1.5 2.6 1.5 2.6 3 5.3zm4.4-9.2c1.2-2.1 1.2-2.1 2.1-4.2 3.3-0.2 3.3-0.2 6.5-0.6 2.1 2.4 2.1 2.4 4.5 4.8 1.2 3 1.2 3 2.3 5.9-1.7 1.5-1.7 1.5-3.5 2.7-0.9 2.1-0.9 2.1-1.8 3.9-3-2.4-3-2.4-5.9-4.5-2.4-2.1-2.4-2.1-4.8-3.5 0.3-2.4 0.3-2.4 0.6-4.5zm-27.6 46.3c-2.6-1.5-2.6-1.5-5.3-2.7 0.9-4.7 0.9-4.7 1.5-9.8 3.8-4.7 3.8-4.7 8-9.2 1.2-3.5 1.2-3.5 2.7-6.8 2 0.3 2 0.3 3.8 0 0.9 2.4 0.9 2.4 1.5 5.1-0.9 2.3-0.9 2.3-2.1 4.7-1.5 3-1.5 3-2.6 5.6-1.5 2.7-1.5 2.7-3 5.4-0.9 2.1-0.9 2.1-2.1 4.2-1.2 1.7-1.2 1.7-2.4 3.5zm33.9-29.1c0.5 1.2 0.5 1.2 1.4 2.4-0.6 1.8-0.6 1.8-1.2 3.3-1.1 1.4-1.1 1.4-2 2.9-2.4 0-2.4 0-4.5-0.6 0 0-2.1-2.9-2.1-3.5 0-0.6 0.6-5.4 0.6-5.4 1.8-0.9 1.8-0.9 3.6-2.1 1.5 0.4 1.5 0.4 3 0.6 0.6 1.5 0.6 1.5 1.2 2.4zm4.1 13.1c-1.8-0.6-1.8-0.6-3-1.5 0.3-2.4 0.3-2.4 0.6-5 3 0 3 0 5.7-0.4-0.9 3.6-0.9 3.6-1.8 6.6-0.9 0.3-0.9 0.3-1.5 0.3zm2.4-15.7c1.8-1.5 1.8-1.5 3.5-3.3 3-0.6 3-0.6 5.7-1.2 1.2 0.9 1.2 0.9 2 1.8-0.5 1.5-0.5 1.5-1.4 2.9-0.9 1.2-0.9 1.2-2.1 2.4-1.2 1.2-1.2 1.2-2.4 1.8-0.9 0.9-0.9 0.9-1.8 1.5-1.7-0.6-1.7-0.6-3.5-0.9 0-2.7 0-2.7 0-5zm-15.7 28.4c1.4-3.2 1.4-3.2 2.6-6.5 2.1-1.5 2.1-1.5 4.5-3.3 1.2 1.2 1.2 1.2 2.6 2.7 0 1.5 0 1.5 0 3-1.1 2.1-1.1 2.1-2.6 4.1-0.9 3.3-0.9 3.3-1.8 6.3-1.8 0.9-1.8 0.9-3.6 1.8-0.6 0.6-0.6 0.6-1.4 1.4-1.2-1.4-1.2-1.4-2.7-2.3 1.2-3.6 1.2-3.6 2.4-7.2zm25.2 11.3c-1.2 1.5-1.2 1.5-2.1 3-0.9 0.9-0.9 0.9-1.8 1.8-3.5-2.7-3.5-2.7-7.1-5.4-0.9-3.2-0.9-3.2-2.1-6.2-1.2-1.2-1.2-1.2-2.1-2.4 1.2-2.1 1.2-2.1 2.4-4.4 1.8-2.1 1.8-2.1 3.3-4.5 2.1-2.7 2.1-2.7 4.1-5 2.7 0 2.7 0 5.4-0.3 2 1.5 2 1.5 4.1 2.6 0.6 3 0.6 3 1.2 6 0.9 2.1 0.9 2.1 2.1 4.4 0 0-1.8 4.8-2.1 5.7-0.3 0.6-2.7 2.9-2.7 2.9-1.4 1.2-1.4 1.2-2.6 1.8zm-131.7 99.2c-1.5 1.8-1.5 1.8-3.3 3.8-1.8 0.3-1.8 0.3-3.8 0.9-3.3-3.2-3.3-3.2-6.9-6.2-2-3.9-2-3.9-4.4-7.7-2.1-2.7-2.1-2.7-4.2-5.4-3.5-4.1-3.5-4.1-7.1-8-3.5-5.3-3.5-5.3-6.8-10.7-2.7-2.3-2.7-2.3-5.3-5-0.3-3.3-0.3-3.3-0.3-6.6-1.8-2.3-1.8-2.3-3.3-4.7-3.9-6.5-3.9-6.5-7.7-13.4-3.3-2-3.3-2-6.5-3.8-3.3-3-3.3-3-6.6-5.9-3.2-1.2-3.2-1.2-6.5-2.4-1.5-3.3-1.5-3.3-3.3-6.6 3.3-0.8 3.3-0.8 6.6-1.7 0 0 4.1 1.7 5.3 1.7 1.2 0 5.9 0.6 5.9 0.6 2.1 2.4 2.1 2.4 4.2 5.1 2.1 1.2 2.1 1.2 4.1 2.4 3.3 0.9 3.3 0.9 6.3 1.7 2 1.2 2 1.2 4.4 2.4 2.7 3 2.7 3 5.1 6 1.4 2.3 1.4 2.3 2.9 4.4 0 0 8 3.6 9.2 4.2 1.5 0.8 6.8 3.8 6.8 3.8 0.3 3 0.3 3 0.9 6 0.9 3.5 0.9 3.5 1.8 7.4 1.8 2.9 1.8 2.9 3.9 5.9 2 3 2 3 4.1 5.7 2.4 0.2 2.4 0.2 4.5 1.1 1.8 2.1 1.8 2.1 2.9 4.8 0.9 2.1 0.9 2.1 1.5 3.9-0.3 2-0.3 2-0.3 4.1 0 3.6 0 3.6-0.3 7.1 0.3 1.2 0.3 1.2 0.6 2.4-2.1 1.2-2.1 1.2-4.4 2.7zm1.2-26.7c-0.9-1.5-0.9-1.5-1.8-3.3 0.3-2.1 0.3-2.1 0.6-3.9 2.6 0.3 2.6 0.3 5.3 0.3 0 0 2.7 2.1 3.3 2.7 0.3 0.6 1.8 3 1.8 3 2 0.9 2 0.9 3.5 1.8 0 0-0.6 2.9-1.2 3.5 0 0.6-2 1.2-2 1.2-2.7-0.3-2.7-0.3-5.4-0.6-0.6-0.9-0.6-0.9-1.2-1.8-1.5-1.5-1.5-1.5-2.9-2.9zm16.9 44.2c-1.2 0-5.7-0.6-5.7-0.6-1.5-0.6-1.5-0.6-3.2-1.2-3 0-3 0-6.3 0-1.4-1.5-1.4-1.5-2.9-2.7-0.3-2.3-0.3-2.3-0.6-4.7 2.1-2.4 2.1-2.4 4.1-5.1 5.7-1.1 5.7-1.1 11.3-2.3 4.2 0.6 4.2 0.6 8.3 1.8 4.5 0.2 4.5 0.2 9.2 0.5 3.9 0 3.9 0 7.7 0.3 3 1.8 3 1.8 5.9 3.3 3 0 3 0 6-0.3 0.9 2.4 0.9 2.4 2.1 4.8 2 0 2 0 4.1 0 1.2 0.6 1.2 0.6 2.1 1.1-0.3 2.1-0.3 2.1-0.9 4.2-0.3 1.8-0.3 1.8-0.6 3.9-2.4 0-2.4 0-4.4 0.3-2.7-0.3-2.7-0.3-5.4-0.9-2.1 0.6-2.1 0.6-4.1 1.2 0 0-5.7 0.8-6.3 0.8-0.6 0.3-7.7-0.8-7.7-0.8-1.5-1.2-1.5-1.2-2.6-2.7-2.7-0.9-2.7-0.9-5.7-1.5 0 0-3.2 0.6-4.4 0.6zm5.6-58.5c-2.7-2.1-2.7-2.1-5-4.4 0-3.6 0-3.6 0.3-6.9 2.3-2.3 2.3-2.3 5-4.7 2.7 0 2.7 0 5.6 0.3 3.9 0 3.9 0 7.4 0 2.1-3.3 2.1-3.3 3.9-6.6 1.5-1.7 1.5-1.7 3-3.5 0 0 2.3 0 3.5 0 0.9 0 4.8-4.8 4.8-4.8 2.3-2.9 2.3-2.9 4.7-6.2 2.1-1.5 2.1-1.5 4.2-3.3 1.5-0.3 1.5-0.3 2.6-0.6 0.9-2.6 0.9-2.6 1.8-5.3 0.9-2.4 0.9-2.4 1.8-4.7 2.7-0.9 2.7-0.9 5.3-1.8 1.2-2.7 1.2-2.7 2.1-5.1 3 1.5 3 1.5 6.2 2.7 4.5 1.2 4.5 1.2 8.9 2.4 2.4 0.3 2.4 0.3 5.1 0.6 0 2 0 2 0.3 4.1-1.8 2.4-1.8 2.4-3.3 4.8-1.8 2.3-1.8 2.3-3.5 5-3.9 2.1-3.9 2.1-7.7 3.9-0.3 4.1-0.3 4.1-0.3 8 2 2.7 2 2.7 4.4 5 1.5 1.8 1.5 1.8 3 3.9-0.3 2.4-0.3 2.4-0.9 5.3-1.8 1.5-1.8 1.5-3.9 3-2.1 1.5-2.1 1.5-4.4 3.6-0.9 3.8-0.9 3.8-1.8 7.7-2.1 2.7-2.1 2.7-4.5 5.3-1.4 4.8-1.4 4.8-2.9 9.5 0 2.1 0 2.1 0 4.5-1.8 1.5-1.8 1.5-3.6 3-1.8 2.3-1.8 2.3-3.5 4.4-1.8-0.9-1.8-0.9-3.6-1.8-1.2-1.2-1.2-1.2-2.7-2.1-0.6-1.7-0.6-1.7-1.5-2.9-2.9 0-2.9 0-5.6 0-3 1.2-3 1.2-5.6 2.4-4.2-1.5-4.2-1.5-8.3-3.3-2.4-2.4-2.4-2.4-4.8-4.8-0.9-3.5-0.9-3.5-1.8-6.8-2.3-1.8-2.3-1.8-4.4-3.3-0.3-2.9-0.3-2.9-0.3-6.5zm96.7-9.5c0 0-5.6 0.6-6.5 0.3-0.9-0.3-5.4-2.4-5.4-2.4 0 0-4.7 0.3-5.3-0.3-0.6-0.6-3.6-2.3-3.6-2.3 0 0-1.7 2.6-1.7 2.9 0 0.9 0.3 6 0.3 6-0.6 1.8-0.6 1.8-1.2 3.8 1.2 1.8 1.2 1.8 2.3 3.9 0 0 3-0.9 3.9-1.5 0.6-0.3 5-4.2 5-4.2 2.4 0.3 2.4 0.3 4.8 0.3 0.3 1.8 0.3 1.8 0.9 3.6-0.9 2.4-0.9 2.4-2.1 5.3-3 2.1-3 2.1-5.9 3.9 0 0-2.7 0.6-3 1.2 0 0.6 2.1 4.7 2.1 4.7 0.9 3.3 0.9 3.3 2 6.6 1.8 1.5 1.8 1.5 3.6 2.6 1.2 2.4 1.2 2.4 2.4 4.2-0.3 2.7-0.3 2.7-0.6 5 0 0-5.1 2.4-5.6 2.4-0.9 0.3-3.6-3.2-3.6-3.2-1.2-2.1-1.2-2.1-2.1-3.9-0.9-2.1-0.9-2.1-1.5-4.2 0 0 0.9-2.9 0.6-3.2 0.3-0.9-2.6-2.4-2.6-2.4 0 0-2.7 3.6-3 4.5 0 0.6-0.3 3.2-0.3 3.2 0 0 2.1 4.5 2.1 4.8-0.3 0.9-1.2 4.7-1.2 4.7-2.7 0.6-2.7 0.6-5.7 1.2-0.5-1.8-0.5-1.8-1.4-3-0.3-1.7-0.3-1.7-0.3-3.5 0.3-3.3 0.3-3.3 0.6-6.3-0.9-2-0.9-2-1.8-4.1-0.9-3-0.9-3-2.1-6 1.2-2 1.2-2 2.4-4.4 1.2-2.4 1.2-2.4 2.6-4.5 0.9-3.8 0.9-3.8 1.8-7.7 1.5-3.8 1.5-3.8 3-7.4-0.3-1.8-0.3-1.8-0.6-3.3 1.8-2.6 1.8-2.6 3.6-5.3 2.3-0.9 2.3-0.9 4.7-1.8 1.5 0.6 1.5 0.6 3 1.2 2.9 1.2 2.9 1.2 5.9 2.1 0 0 4.8 0 5.3-0.6 0.3-0.3 4.5-3.6 4.5-3.6 2.1 0 2.1 0 4.4 0.3 0.3 2.4 0.3 2.4 0.6 5.1-2.6 2.6-2.6 2.6-5.3 5.3zm16.9-1.5c-1.8-1.2-1.8-1.2-3.6-2.6 0-2.7 0-2.7 0.3-5.7 2.1-1.5 2.1-1.5 4.5-3 0 0 1.8-4.1 1.8-4.7 0.3-0.9 0.9-4.7 1.2-5.1 0.5 0 5.9 0.6 5.9 0.6-0.3 3.3-0.3 3.3-0.6 6.9 0 0-0.3 5.6-0.6 6.2 0 0.9-1.2 6.2-1.2 6.2-0.6 1.8-0.6 1.8-1.8 3.6-2 0.9-2 0.9-4.1 1.8-0.9-1.8-0.9-1.8-1.8-4.2zm-14.8 19.3c-0.9-0.9-0.9-0.9-1.8-2.1 0.6-1.7 0.6-1.7 0.9-3.5 2.4 0 2.4 0 4.4 0 2.4-0.6 2.4-0.6 4.8-0.6 0.6 0.9 0.6 0.9 0.9 2.4-0.9 1.2-0.9 1.2-1.8 2.3-1.8 0-1.8 0-3.6 0.3-1.8 0.6-1.8 0.6-3.8 1.2zm16-2.6c-0.9-0.9-0.9-0.9-1.8-2.1 0.9-1.2 0.9-1.2 1.8-2.7 2.1 0 2.1 0 4.4 0 1.2 0.9 1.2 0.9 2.4 1.8-1.5 1.5-1.5 1.5-2.7 3-2-0.3-2-0.3-4.1 0zm4.7 10.3c-0.9-1.1-0.9-1.1-1.7-2 0.3-1.8 0.3-1.8 0.8-3.9 1.8-1.8 1.8-1.8 3.9-3.6 3.6-0.6 3.6-0.6 7.1-0.6 0.9 2.4 0.9 2.4 2.1 5.1 0.3 2.1 0.3 2.1 0.9 3.9-2.7 1.1-2.7 1.1-5.6 2.3-0.6-1.2-0.6-1.2-1.5-2.1-1.2-0.8-1.2-0.8-2.7-2-0.9 0.9-0.9 0.9-2.1 1.8-0.6 0.2-0.6 0.2-1.2 1.1zm36.2-25.8c2.7 0.9 2.7 0.9 5.7 1.8-0.3 2.1-0.3 2.1-0.3 4.1-0.3 1.5-0.3 1.5-0.3 3-2.1 1.8-2.1 1.8-4.5 3.3-3.2 0.6-3.2 0.6-6.8 1.2-1.8-1.2-1.8-1.2-3.6-2.4 0.6-2.7 0.6-2.7 1.2-5.3 2.1-2.4 2.1-2.4 4.2-4.8 2.3-0.6 2.3-0.6 4.4-0.9zm60.8 49c1.8 0.6 1.8 0.6 3 1.8-0.6 2.3-0.6 2.3-1.5 4.1-2.1 1.5-2.1 1.5-4.4 3-2.7 0.9-2.7 0.9-5.7 1.5-2.1-0.9-2.1-0.9-4.1-2.4-1.5-3-1.5-3-3-6.2-2.1-2.7-2.1-2.7-3.9-5.4-2-1.5-2-1.5-4.1-2.9-2.4 2.9-2.4 2.9-4.7 5.3-1.8 2.7-1.8 2.7-3.3 4.8-3 2-3 2-5.9 4.4-3-1.5-3-1.5-6-3-2.9-0.3-2.9-0.3-5.9-0.9-3.6 1.5-3.6 1.5-7.7 3.3-0.3-2.1-0.3-2.1-0.6-4.1 0 0 3-3.3 4.1-4.2 1.5-0.9 3.3-8 3.3-8-1.8-3.3-1.8-3.3-3.6-6.8 0 0-4.1-3-4.4-3.9-0.3-0.9-3.9-3-3.9-3-2.9 1.2-2.9 1.2-6.2 2.7-1.5-0.9-1.5-0.9-2.7-2.1 0.3-2.6 0.3-2.6 0.6-5.6 1.2-0.3 1.2-0.3 2.4-0.9 2.4 0 2.4 0 5-0.3 2.4-1.2 2.4-1.2 4.8-2.4 0 0 2.7-4.1 3.6-4.7 0.8-0.6 5.3-7.2 5.3-7.2 2.4 0 2.4 0 4.7-0.2 2.4 0.8 2.4 0.8 4.8 1.1 3.2 2.7 3.2 2.7 6.2 4.8 3 1.5 3 1.5 5.9 2.7 0 0 3.9 0.3 4.5 0.6 0.9 0 5 0 5 0 0.6 1.1 0.6 1.1 0.9 2.3 0 1.5 0 1.5 0 3.3 2.1 0.9 2.1 0.9 4.2 2.1 1.5 2.9 1.5 2.9 2.9 5.6 1.8 2.1 1.8 2.1 3.6 4.2-0.3 2.9-0.3 2.9-0.3 5.6-0.6 2.1-0.6 2.1-1.2 4.2 1.8 2.3 1.8 2.3 3.6 4.7 2.4 0.9 2.4 0.9 4.7 2.1zm8.6-34.4c1.8 0.6 1.8 0.6 3.3 1.1 0 0-1.2 3.9-1.5 4.8-0.3 1.2-3 5.9-3 5.9-1.7 2.4-1.7 2.4-3.8 5.1-2.7-1.5-2.7-1.5-5.1-2.4 0 0-1.1-4.7 0-5.3 1.5-1.2 5.4-1.5 5.4-1.5 1.8-1.8 1.8-1.8 3.2-3.3 0.9-2.4 0.9-2.4 1.5-4.4zm9.5-4.8c-1.2 1.5-1.2 1.5-2.1 2.7-1.1-1.2-1.1-1.2-2.3-2.7 0-2.4 0-2.4 0-5-0.9-1.2-0.9-1.2-2.1-3-0.3-1.5-0.3-1.5-0.6-3.6 1.2-1.2 1.2-1.2 2.1-2.3 2.1 1.1 2.1 1.1 4.1 2.6 0.6 3.9 0.6 3.9 1.5 7.2-0.3 2-0.3 2-0.6 4.1zm1.8 7.7c2.1 0 2.1 0 4.2 0.3-0.9 1.8-0.9 1.8-1.8 3.9-2.1 2.1-2.1 2.1-3.9 3.2-0.9-1.7-0.9-1.7-1.8-3.5 1.8-2.1 1.8-2.1 3.3-3.9zm-188.3 47.2c0.8 0.9 0.8 0.9 1.7 1.8-1.5 1.8-1.5 1.8-2.9 3.6-1.2 0-1.2 0-2.4 0-1.5 0-1.5 0-3 0-1.2 0.6-1.2 0.6-2.6 1.5-0.3-1.5-0.3-1.5-0.3-3.3 1.1-1.8 1.1-1.8 2-3.6 1.8 0.6 1.8 0.6 3.3 0.9 2.1-0.3 2.1-0.3 4.2-0.9zm10 6c-1.7 0-1.7 0-3.2-0.3-1.2-0.9-1.2-0.9-2.1-2.1 0.3-1.8 0.3-1.8 0.6-3.9 3-0.6 3-0.6 5.6-1.2 0.9 0.6 0.9 0.6 1.8 1.8-0.6 1.8-0.6 1.8-0.9 3.3-0.9 1.2-0.9 1.2-1.8 2.4zm2.4 10.7c-2.4 0.3-2.4 0.3-5 0.5 0.6-1.7 0.6-1.7 0.9-3.8 0 0 4.4-3.6 5.3-4.5 1.2-0.6 2.7-2.9 2.7-2.9 2-0.6 2-0.6 4.4-1.2-0.9-1.5-0.9-1.5-1.8-3.3 1.2-1.5 1.2-1.5 2.4-2.7 1.8-0.8 1.8-0.8 3.3-1.4 1.8 0.6 1.8 0.6 3.2 1.1 0 0 1.8-0.3 2.7-0.3 0.6 0 2.7 0 2.7 0-0.3 2.4-0.3 2.4-0.6 4.5-0.9 1.5-0.9 1.5-2.1 3-1.8 0.9-1.8 0.9-3.3 1.7-2.6 0.4-2.6 0.4-5.3 0.6-0.6 0.9-0.6 0.9-1.5 1.5 0 0-1.8 3-2.4 3.6-0.5 0.3-5.6 3.6-5.6 3.6zm29.1-11.9c0.9 0.9 0.9 0.9 2.1 1.5-0.9 1.7-0.9 1.7-1.5 3.5-1.2 1.5-1.2 1.5-2.4 2.4-1.8 0.6-1.8 0.6-3.6 1.2-0.6-1.2-0.6-1.2-0.9-3 0 0 0.3-2.6 1.8-3.2 1.2-0.3 4.5-2.4 4.5-2.4zm109.1 75.4c0 0.6-1.5 5-1.5 5-3.5 8-3.5 8-7.1 15.5-1.2 5.3-1.2 5.3-2.9 10.7-1.8 3.8-1.8 3.8-3.6 7.7-3.6 3.5-3.6 3.5-7.1 6.8-2.1 2.7-2.1 2.7-4.5 5.3-1.7 3.3-1.7 3.3-4.1 6.6-3.3 2.6-3.3 2.6-6.5 5.3-1.8 2.7-1.8 2.7-3.6 5.7 0 0-4.2 6.2-5 6.8-0.6 0.6-11 8.3-11 8.3-5.1 3.3-5.1 3.3-9.8 6.2 0 0-12.2 1.2-12.8 1.2-0.6 0-6.5-2.4-6.5-2.4 0 0 2.1-4.7 2.7-6.2 0.3-1.2-0.9-4.7-0.9-4.7 0 0-3.9 1.4-3.6 0.3 0-0.9 0.6-3.6 0.6-3.6 0.9-0.6 0.9-0.6 1.8-1.5 0-1.5 0-1.5 0.3-3.3-1.5 0.9-1.5 0.9-3.3 2.1 0 0-2.9 3.9-3.5 4.8-0.9 1.2-2.4 3.5-3.3 4.1-1.5 0.6-4.1 1.2-4.1 1.2 0 0-0.3-3.5 0-4.4 0.3-1.2-0.3-6.3-0.3-6.3-4.5-1.5-4.5-1.5-9.2-2.6 0 0-8 1.4-9.5 1.7-1.2 0.3-6.2 4.2-6.2 4.2 0 0-3 2.1-5.1 2.4-1.8 0.3-10.7 1.2-10.7 1.2-3.8 2.6-3.8 2.6-7.7 5-2.9 3.6-2.9 3.6-6.5 7.4-4.7 1.8-4.7 1.8-9.5 3.6-5.9 1.2-5.9 1.2-11 2.1-3.2 0-3.2 0-6.5 0-1.2 2-1.2 2-2.7 3.8-1.7 1.5-1.7 1.5-3.5 3.3-3 0-3 0-6 0-5.3-2.1-5.3-2.1-11.2-4.5 1.8-3.2 1.8-3.2 2.9-6.5 4.2-4.1 4.2-4.1 7.8-8.3-0.9-4.8-0.9-4.8-2.4-9.2 0-3.6 0-3.6-0.3-7.1-0.6-7.2-0.6-7.2-1.8-14.3 0.3-4.1 0.3-4.1 0.6-8 0.6-2.7 0.6-2.7 1.2-5.3 1.2-7.8 1.2-7.8 2.1-15.5 5-1.5 5-1.5 10-3 4.5-3.2 4.5-3.2 8.9-6.5 3.3-3.5 3.3-3.5 6.9-7.1 5.9-0.9 5.9-0.9 11.5-1.5 5.1-3 5.1-3 10.1-5.9 4.2-3.3 4.2-3.3 8-6.6 3.3-2.3 3.3-2.3 6.5-5 0.9-5 0.9-5 1.8-10.1 3.3 1.5 3.3 1.5 6.6 2.7 1.7-3.9 1.7-3.9 2.9-7.2 3.9-2.9 3.9-2.9 7.4-6.2 3-3.2 3-3.2 5.7-6.2 1.8-3.3 1.8-3.3 3.8-6.6 2.4-0.2 2.4-0.2 5.1-0.8 2.3 2 2.3 2 4.4 4.1 1.8 2.1 1.8 2.1 3 4.8 0 0 3.8-1.5 4.1-2.4 0.9-1.5 4.2-11.3 4.2-11.3 2.4-3.2 2.4-3.2 4.7-6.5 3.3-0.3 3.3-0.3 6.9-0.9 1.4-2.1 1.4-2.1 2.9-3.9-1.5-1.5-1.5-1.5-2.6-3.2-0.3-1.8-0.3-1.8-0.6-3.9 1.7-1.2 1.7-1.2 3.8-2.7 3 1.8 3 1.8 5.7 3.9 1.4 0.9 1.4 0.9 2.9 2.4 4.5-0.9 4.5-0.9 8.9-1.5 4.2-0.6 4.2-0.6 8-0.9 0 3 0 3-0.3 6.5-3.2 3.6-3.2 3.6-6.8 7.5-2.7 2.3-2.7 2.3-4.7 4.7 0.3 2.7 0.3 2.7 0.6 5.3 3.5 1.5 3.5 1.5 7.7 2.7 2.3 2.7 2.3 2.7 4.7 5.7 2.7 1.4 2.7 1.4 5.6 2.6 2.7-2.1 2.7-2.1 5.7-4.4 0 0 4.7-6.6 4.7-7.8 0.3-1.4 0.9-8.8 0.9-8.8-0.9-4.8-0.9-4.8-1.5-9.6 0 0 1.8-6.8 3-7.4 0.9 0 3.9-4.4 3.9-4.4 1.4-2.7 1.4-2.7 2.9-5.4 2.4 0.6 2.4 0.6 4.8 0.9-0.9 3-0.9 3-1.8 6.5 0 0-3 5.1-3.3 6.6-0.3 0.9 3 7.4 3 7.4 0 0 3.6 4.2 4.1 5.6 0.9 0.9 1.5 6.3 1.5 6.3-0.6 4.4-0.6 4.4-1.5 8.9 0 0-1.4 7.4-1.7 8.3-0.3 1.2 1.4 4.5 1.4 4.5 1.8 0.5 1.8 0.5 3.6 0.5 0.3 2.4 0.3 2.4 0.6 4.5-0.6 2.4-0.6 2.4-0.9 4.7 2.4 0.3 2.4 0.3 4.5 0.6 0.3 1.8 0.3 1.8 0.8 3.3-0.5 2.7-0.5 2.7-1.1 4.8 0.6 2 0.6 2 1.4 4.4 0 0 1.8 1.5 1.5 2.4zm-64.6 96.8c0.9-0.6 4.1-1.8 4.1-1.8-0.6 1.8-0.6 1.8-1.2 3.2-2.3 2.4-2.3 2.4-4.7 5.1-2.4 2.1-2.4 2.1-4.2 4.1-2 2.4-2 2.4-3.8 4.2-3 0.6-3 0.6-6 1.2-0.5 0-2.6-1.8-2.6-1.8 2.4-3.6 2.4-3.6 4.7-7.1 0 0 2.7-3.9 3.9-4.2 1.8-0.3 5.3-0.3 5.3-0.3 0 0 3.9-2.6 4.5-2.6z"/>
		</g>
	</g>
</svg>