<svg version="1.2" xmlns="http://www.w3.org/2000/svg" viewBox="0 0 1114 1114">
	<title>g8</title>
	<style>
		.s0 { fill: #292524 } 
	</style>
	<g id="g8">
		<g id="g10">
			<path id="path170" fill-rule="evenodd" class="s0" d="m1113.5 557c0 148.8-57.9 288.6-162.9 393.7-105.1 105.2-244.8 163.1-393.5 163.1-75.1 0-148-14.7-216.6-43.7-66.3-28.1-125.8-68.2-177-119.4-105.1-105.1-163-245-163-393.7 0-148.8 57.9-288.6 163-393.8 51.2-51.1 110.7-91.2 177-119.3 68.6-29 141.5-43.7 216.6-43.7 148.7 0 288.4 57.9 393.5 163 105 105.2 162.9 245 162.9 393.8zm-32.5 0c0-119.5-40.2-229.8-107.7-318.1-0.1 0.3-0.2 0.6-0.3 1 1.5 3.9 1.5 3.9 2.9 8.1 0.3 3.8 0.3 3.8 0 7.1-1.4 0.6-1.4 0.6-3.2 1.2-1.8-2.1-1.8-2.1-3.9-4.2-2.1-3-2.1-3-4.1-5.9-1.8-0.6-1.8-0.6-3.6-1.8-5.6-7.1-5.6-7.1-11-14-4.7-8.9-4.7-8.9-9.5-16.9-4.1-6.2-4.1-6.2-8-12.2-0.9-3.5-0.9-3.5-1.7-7.1 1.1-1.1 1.2-1.2 2.5-1.7q-2.7-2.7-5.3-5.4c-1.1 0-1.3-0.1-2.9-0.6-2.1-1.5-2.1-1.5-4.4-3-0.3-1.7-0.3-1.7-0.6-3.2 0.5 0.1 0.9 0.2 1.2 0.2-30.1-29.1-63.5-54.7-99.8-76 0.1 0.4 0 0.4-0.2 0.7 2.4 1.5 2.4 1.5 4.5 2.6 1.1 1.2 1.1 1.2 2.9 2.4-0.3 0.3-0.3 0.3 0 0.9-0.6 0.9-0.6 0.9-1.5 1.5-1.7 0-1.7 0-3.5 0-3.3-0.9-3.3-0.9-6.3-1.8-2.6-0.6-2.6-0.6-5.3-1.2-3.5-1.2-3.5-1.2-6.8-2.1-4.2-1.4-4.2-1.4-8-2.9-3-0.9-3-0.9-5.9-1.8-1.8-1.2-1.8-1.2-3.6-2.1-2.1-1.8-2.1-1.8-3.6-3.2 0.9-0.6 0.9-0.6 1.5-1.8 3 1.2 3 1.2 5.3 2 2.7-0.8 2.7-0.8 5.1-2 3-0.6 3-0.6 5.6-1.5-0.8-0.8-1-1.1-1.3-1.4q-6.1-3.3-12.3-6.3c-0.3 1.4-0.3 1.5 0.3 2.9-0.6 0.9-0.6 0.9-0.3 1.8-2.4-0.3-2.4-0.3-4.2-0.3-6.2-2.1-6.2-2.1-12.7-4.4-1.5-1.2-1.5-1.2-3.3-2.7-0.6-0.9-0.6-0.9-0.9-1.8 1.2 0 1.2 0 1.8 0-0.9-0.6-0.9-0.6-1.2-1.2-2.1-0.6-2.1-0.6-4.1-0.9-1.8-1.2-1.8-1.2-3.3-2-0.6-1.2-0.6-1.2-1.2-2.1 0.8-1.1 0.9-1.2 1.8-1.9-62.7-26.6-131.5-41.3-203.8-41.3-135.3 0-258.8 51.6-351.9 136.1 0.5 0 1.1 0 2.2 0 1.2 1.2 1.2 1.2 2.7 2.7 2.4 0.3 2.4 0.3 4.7 0.6 2.4-2.1 2.4-2.1 5.1-4.2 4.4-2.1 4.4-2.1 9.5-4.1 4.7-1.5 4.7-1.5 9.8-3 1.1 0.6 1.1 0.6 2.6 0.9 3.3-1.8 3.3-1.8 5.7-3.6 1.7-2.1 1.7-2.1 2.9-3.9 3.3-1.4 3.3-1.4 6.9-2.6 4.7-1.2 4.7-1.2 9.4-2.1 2.1-0.3 2.1-0.3 4.8-0.9 2.4 0.6 2.4 0.6 5 0.9 4.2 0 4.2 0 8.6-0.6 3.3-0.3 3.3-0.3 6.6-0.6 1.4 1.5 1.4 1.5 2.9 2.7 2.1 0.6 2.1 0.6 4.2 1.5 5.3-0.9 5.3-0.9 10.7-2.1 0.6 2.1 0.6 2.1 1.7 3.6 3.3 0 3.3 0 6.3 0.2 0 2.4 0 2.4 0 4.8 1.7 0.3 1.7 0.3 2.9 0.6 1.8-1.8 1.8-1.8 3.3-3.6 3.3-0.6 3.3-0.6 6.8-1.2 2.1 0.3 2.1 0.3 4.5 0.6 6.5-0.9 6.5-0.9 13.6-1.7 0 2 0 2 0 3.8-3.5 3-3.5 3-6.5 5.7-3 0.6-3 0.6-5.6 1.1-0.9 2.1-0.9 2.1-1.8 4.2 0.9 1.5 0.9 1.5 2 3-1.1 2.3-1.1 2.3-2 5-1.8 0.3-1.8 0.3-3.9 1.2-2.4-0.3-2.4-0.3-5-0.3 0-2.1 0-2.1-0.9-4.2-2.4 0-2.4 0-4.8 0-2 0-2 0-3.8 0-1.2-1.1-1.2-1.1-2.1-2.6-3.6 0.3-3.6 0.3-6.5 0.6-2.4 0-2.4 0-4.5 0-0.6-1.8-0.6-1.8-1.5-3 0.3-2.1 0.3-2.1 0.6-4.2-2 0-2 0-4.7 0.3-1.5 1.2-1.5 1.2-2.7 2.7 0.6 1.8 0.6 1.8 1.2 3.3 0.6 0.9 0.6 0.9 1.5 1.8-2.4 2-2.4 2-4.5 4.1-2.9 1.5-2.9 1.5-5.9 3.3-0.9 1.5-0.9 1.5-2.1 2.9 2.7 0.6 2.7 0.6 5.4 1.2 3.8 1.2 3.8 1.2 8 2.4 0.6 2.7 0.6 2.7 1.2 5.1-1.5 2.3-1.5 2.3-3.3 4.7-1.5 0.3-1.5 0.3-3.3 0.9-2-0.9-2-0.9-4.4-1.5-2.1 0.6-2.1 0.6-4.5 1.5-2 1.8-2 1.8-4.1 3.6-1.5 0.6-1.5 0.6-3 1.1-2.9 0.6-2.9 0.6-5.6 0.9-2.7 3.3-2.7 3.3-5.4 6.6-2.6 4.4-2.6 4.4-5 8.6 0 0-2.7 5.6-4.1 4.7-1.5-0.9-3.9-3.5-3.9-3.5-2.1-1.8-2.1-1.8-4.4-3.6 0 0-6.9 3.6-7.8 4.5-1.1 0.8-8.6 5.3-8.6 5.3-3.5 3-3.5 3-6.5 5.6-1.2 3-1.2 3-2.1 6 0.3 2.9 0.3 2.9 0.9 5.3 1.8 3 1.8 3 3.9 5.4 0.6 1.4 0.6 1.4 1.5 2.6-1.5 1.8-1.5 1.8-3.3 3.9-0.6 3-0.6 3-1.2 6.2-0.9 2.7-0.9 2.7-1.8 5.7-1.2 0.6-1.2 0.6-2.6 1.2-0.9 0.6-0.9 0.6-2.1 1.4-1.8 4.5-1.8 4.5-3.6 8.6-1.7 3.6-1.7 3.6-3.8 7.5-1.8 3.2-1.8 3.2-3.6 6.5-1.8 1.8-1.8 1.8-3.5 3.3-1.2-1.5-1.2-1.5-2.7-3.3-1.5-2.7-1.5-2.7-2.4-5.6-0.9-5.1-0.9-5.1-1.5-10.7-1.2-2.4-1.2-2.4-2.6-4.2 0.6-5.3 0.6-5.3 1.4-10.7 1.2-4.4 1.2-4.4 2.4-8.3 3.9-5.9 3.9-5.9 7.7-11.9 5.4-5 5.4-5 10.7-10.3 3.9-3.6 3.9-3.6 7.1-6.9 1.8-2.9 1.8-2.9 3.3-5.6-0.3-2.1-0.3-2.1 0-4.5-2.1 0-2.1 0-4.2 0.3-0.8 1.2-0.8 1.2-1.7 2.4-2.7 3.3-2.7 3.3-5.7 7.1-1.5 0.6-1.5 0.6-3.2 1.8-1.2-2.1-1.2-2.1-2.4-3.8-1.8-0.3-1.8-0.3-3.6-0.6-2.6 0.9-2.6 0.9-5.3 1.4-2.1 1.5-2.1 1.5-4.8 3-1.1 2.4-1.1 2.4-2.6 4.8-1.2 2.3-1.2 2.3-2.4 5.3-2.1 3.9-2.1 3.9-3.6 7.7-3.8 2.7-3.8 2.7-7.4 5.1-2.1 0.3-2.1 0.3-4.1 0-0.9-2.1-0.9-2.1-1.8-3.9-1.8 0.9-1.8 0.9-3.9 1.8-1.7 2.4-1.7 2.4-3.2 4.5 0 0-3 3.2-4.2 2.9-0.9 0-4.7-0.6-4.7-0.6 0 0-4.8 1.5-5.7 2.1-0.9 0.6-5 3.3-5.9 3.9-1.2 0.5-5.3 4.1-5.3 4.1-1.8 2.7-1.8 2.7-3.6 5.1-2.7 5-2.7 5-5.9 10.1-3 4.4-3 4.4-5.4 8-2.3 2.9-2.3 2.9-4.4 5-0.6 2.1-0.6 2.1-1.2 4.2 1.5 0.3 1.5 0.3 3.3 0.6 0.6 0.6 0.6 0.6 1.2 0.9-0.3 1.7-0.3 1.7-0.3 3.5 0.8-0.3 0.8-0.3 1.7-0.3 1.5-2.1 1.5-2.1 3-3.5 1.8-0.6 1.8-0.6 3.6-1.2 1.1 0.6 1.1 0.6 2.3 1.5 1.2 2.3 1.2 2.3 2.4 5-0.6 3-0.6 3-1.2 5.9-1.2 4.5-1.2 4.5-2.1 8.4-1.1 2.9-1.1 2.9-2.3 6.2 0.3 3.2 0.3 3.2 0.6 6.8-1.8 5.1-1.8 5.1-3.9 10.4-3.3 7.4-3.3 7.4-6.5 15.1-3 7.2-3 7.2-5.6 14.3-3.6 3-3.6 3-7.5 6.2-3.2 1.2-3.2 1.2-6.2 2.1-2.7 3.3-2.7 3.3-5 5.9-0.3 2.7-0.3 2.7-0.9 5.7-2.4 4.7-2.4 4.7-4.5 9.2-2.9 3-2.9 3-5.9 6.2-0.3 2.1-0.3 2.1-0.6 3.9 1.8 1.8 1.8 1.8 3.6 3.2 1.1 3 1.1 3 2.6 6 1.5 3.5 1.5 3.5 3 7.4-0.3 3-0.3 3-0.6 6.2-0.9 4.5-0.9 4.5-1.8 8.6-2.1 1.5-2.1 1.5-4.1 3-2.1 0.9-2.1 0.9-4.2 1.8-0.9-1.5-0.9-1.5-1.8-3 0.3-2.6 0.3-2.6 0.9-5.6 0 0-0.3-3.6-0.6-4.8-0.3-1.4-1.2-3.2-0.9-4.7 0-1.2-0.9-4.5-0.9-4.5-1.1-0.9-1.1-0.9-2.3-2.3 0 0-2.7-1.8-2.4-2.7 0.3-0.9 1.5-2.1 2.4-3.6 0.9-1.8 1.5-2 1.8-4.1 0.3-2.4-2.1-4.2-2.1-4.2 0 0-1.2 2.1-2.4 3.6-1.2 1.5-3.8 3.5-3.8 3.5 0 0-3.9 3.6-3.9 2.4 0-0.9 0.3-3.6 0.3-3.6 0.3-2 0.3-2 0.6-4.7-0.6-0.6-0.6-0.6-1.2-1.5-0.6 0.9-0.6 0.9-1.2 1.8-1.8 3-1.8 3-3.2 5-1.5 2.7-1.5 2.7-3 5.7-0.3 3-0.3 3-0.6 6.5 0.6 2.4 0.6 2.4 1.2 4.8 1.8-1.8 1.8-1.8 3.5-3.9 0 0 2.1-2.7 3.3-3.3 1.2-0.3 2.7 1.2 2.7 1.2 0 0 0.6 2.4 0.3 3.3 0 1.2-1.2 5.9-1.2 5.9-2.4 2.1-2.4 2.1-4.8 3.6 0 0-2.6 4.4-2.6 5.6 0 0.9 1.2 6 1.2 6 2.3 8.3 2.3 8.3 5 16.3-0.3 5-0.3 5-0.6 9.5 0.6 5.6 0.6 5.6 1.5 11.9-1.8 5-1.8 5-3.3 10.4 0 0-3.2 4.1-3.5 5-0.3 0.9-2.1 8.3-2.1 8.3 0 0-4.8 11-5.1 12.5-0.3 1.2-1.7 5.6-2.3 5.9-0.6 0.9-2.7 1.8-3.3 2.4-0.9 0-5.9 1.2-5.9 1.2-1.5 3-1.5 3-3 5.9-2.1 3.3-2.1 3.3-4.1 6.3-0.3-2.7-0.3-2.7-0.6-6-0.6-0.3-0.6-0.3-1.5-0.9-0.6 3.6-0.6 3.6-0.9 6.6-1.3 1.8-1.5 2-2.3 3.5q-0.2 6.5-0.2 13.1 0 0.1 0 0.3c0.4 1.8 0.7 3.2 0.7 3.2 2.4 6.6 2.4 6.6 5.1 14 1.1 6.5 1.1 6.5 2 13.4-0.6 6.8-0.6 6.8-1.4 13.6-1.2 4.2-1.2 4.2-2.4 8.6-0.5 1.7-0.7 2.5-0.9 3.3 3.4 31.9 9.7 63 18.6 92.9 0.6 0.4 1 0.7 2.1 1.5 1.2 0.9 1.2 0.9 2.7 1.8 1.5 1.8 1.5 1.8 3 4.1 0.9 0.3 0.9 0.3 2.1 0.9 0.8 2.1 0.8 2.1 1.7 4.5 0.9 0.3 0.9 0.3 1.8 0.9 0.3 0.6 0.3 0.6 1.2 1.5 0 1.4 0 1.4 0.3 2.9 0.3 1.5 0.3 1.5 0.3 2.7-0.9-0.3-0.9-0.3-1.8-0.6-0.9-0.6-0.9-0.6-2.1-1.8-0.8 0-0.8 0-1.4 0.3l-2.1-0.9c-0.3 0-2.5-2-2.9-2.3 8.4 25.2 18.6 49.6 30.5 73 0.6 0.3 1.3 0.7 2.6 1.5 1.5-0.6 1.5-0.6 3.3-1.5 0.9-1.8 0.9-1.8 2.1-3 1.2-1.2 1.2-1.2 2.1-2.1-0.9-4.1-0.9-4.1-2.1-8.9 2.3 2.4 2.3 2.4 4.4 4.8 0-2.7 0-2.7-0.3-5.7 1.5-1.2 1.5-1.2 2.7-2.9 1.2-1.5 1.2-1.5 2.1-3.6 0.3-2.4 0.3-2.4 0.6-4.7 1.4 0.2 1.4 0.2 2.9 0.8 2.1 2.7 2.1 2.7 4.2 5.1 1.8 3 1.8 3 3.3 5.3 0 0 2.3 0 2.6-0.6 0-1.2-0.6-9.5-0.6-9.5 0.9-2 0.9-2 2.1-4.4 2.4 0.6 2.4 0.6 4.7 1.5 0.6-1.2 0.6-1.2 1.2-3.3-1.2-1.5-1.2-1.5-2.6-3.3-0.6-1.7-0.6-1.7-1.5-4.1 1.2-0.6 1.2-0.6 2.4-1.5 2.6 3 2.6 3 5.3 5.3 1.5 1.8 1.5 1.8 3.3 3.6 3.5 0.9 3.5 0.9 7.1 1.8 3.2 0.9 3.2 0.9 6.8 1.5 0.9 3.2 0.9 3.2 1.8 6.5-2.1 2.7-2.1 2.7-4.2 5.3-1.5 1.2-1.5 1.2-2.9 2.7 1.1 3 1.1 3 2.6 5.9 3.9 2.7 3.9 2.7 7.7 5.4 3.6 4.4 3.6 4.4 6.9 8.6 3.2 2.7 3.2 2.7 6.8 5.6 1.8-1.4 1.8-1.4 3.8-2.6 0 0 2.7-5.1 2.7-6-0.3-1.4-2.7-9.5-2.7-9.5-2.3-5.3-2.3-5.3-4.7-10.7 0 0 0-6.8 0.9-6.8 0.9 0 2.7-3.5 2.7-3.5 0.8-1.8 0.8-1.8 1.7-4.2 2.7 1.2 2.7 1.2 5.7 2.7-0.3 2.9-0.3 2.9-0.3 6.2 0 0-1.5 4.8-1.5 5.9 0.3 0.9 5.9 9.3 5.9 9.3 0 0 6.3 6.5 7.4 8.3 1.2 1.4 4.5 8 4.5 8 0.9 4.7 0.9 4.7 1.5 9.2 0 0 1.7 8 2 9.2-0.3 0.6 3.9 5.3 3.9 5.3 2.7 1.8 2.7 1.8 5.3 3.3 1.5 2.7 1.5 2.7 3.3 5.3 0.3 2.7 0.3 2.7 1.2 5.4 3.2 1.8 3.2 1.8 6.8 3.8 1.8 2.4 1.8 2.4 3.6 5.1 0.3 2.1 0.3 2.1 0.9 4.4 2.6 3.9 2.6 3.9 5 7.2 0 0 4.1 3.2 4.5 4.1 0.2 1.2 1.1 6 1.1 6 0 7.7 0 7.7 0.3 15.1 1.8 6.2 1.8 6.2 3.9 12.2 0.3 3.8 0.3 3.8 0.9 7.4-3 1.8-3 1.8-6 3-1.1 1.7-1.1 1.7-2.3 3.8-0.3 2.7-0.3 2.7-0.6 5.1-3 0.6-3 0.6-5.9 0.8 0 2.7 0 2.7 0 4.8 0 0 0 5.3-0.6 5.3-0.9 0-8.4 0.9-8.4 0.9-4.1-0.3-4.1-0.3-8-0.6 0 0-14.2-8.9-14.8-9.5-0.9-0.5-9.5-8.3-9.5-8.3 0 0-1.5-4.1-1.8-5.3-0.3-1.2-4.4-6.5-4.4-6.5 0 0-3-0.6-3.3-1.8-0.6-0.9-1.5-3.3-1.5-3.3 0-0.9 0-0.9 0.3-1.2-0.6-1.5-0.6-1.5-1.7-3.2-0.9 0-0.9 0-1.8 0.3 0 0-0.3 2.3-0.3 2.9 0 0.6 0.3 2.4-0.9 2.1-0.6-0.3-2.7-1.2-2.7-1.2 0 0-2.4-3.8-2.6-5-0.6-0.9-4.2-6.9-4.2-6.9-4.4-3.5-4.4-3.5-8.9-8 0 0-5.3-2.9-6.5-3.5-0.6-0.3-2.1 0.8-2.1 0.8 0 0-0.1 0.1-0.4 0.1 95.8 126.7 247.7 208.7 418.3 208.7 92.2 0 179-24 254.3-66-0.4-0.3-0.5-0.5-0.7-1.2-0.6-0.5-0.6-0.5-0.9-1.1-0.9-0.9-0.9-0.9-2.3-1.2 0-2.1 0-2.1 0-4.2 0.6-1.2 0.6-1.2 1.2-2.7 0 0 3.2-2.3 3.5-2.6 0.9-0.6 1.5-1.8 1.8-2.1 0-0.3-2.7-0.3-2.7-0.6v-1.8c2.4-2.9 2.4-2.9 5.4-6.2 1.1-0.9 1.1-0.9 2.9-1.8 0.9-2.7 0.9-2.7 1.5-5.3 0.6-2.7 0.6-2.7 1.2-5.7-3.6 0.9-3.6 0.9-6.5 1.5 2.3-2.7 2.3-2.7 4.4-5 0.6-3.3 0.6-3.3 0.9-6.6 0-1.8 0-1.8-0.3-3.2 1.5-6.6 1.5-6.6 2.1-13.4 4.4-4.7 4.4-4.7 8.6-9.5 2.1-7.1 2.1-7.1 4.4-14.5-0.6-3.9-0.6-3.9-1.7-7.8 3.2-6.8 3.2-6.8 6.5-14.2 0-3.6 0-3.6 0-7.7 2.7-1.2 2.7-1.2 5-2.4-0.3-2.4-0.3-2.4-0.3-5 0.9-3.3 0.9-3.3 1.8-6.6 1.8-1.2 1.8-1.2 3.9-2.3 0.9-4.2 0.9-4.2 2.3-8.7-2.3-0.6-2.3-0.6-4.4-1.1 0.6-2.7 0.6-2.7 0.9-5.1 2.4-1.8 2.4-1.8 5-3.9 0.9-5.6 0.9-5.6 2.1-11.5-0.9-3.9-0.9-3.9-1.5-8-0.6-3.9-0.6-3.9-0.9-7.8-1.8-2.6-1.8-2.6-3.2-5.3-4.8-2.7-4.8-2.7-9.5-5.4-3.9-0.5-3.9-0.5-8-0.8-5.1-6.6-5.1-6.6-10.4-13.1-0.6-3.3-0.6-3.3-1.2-6.5-2.7-8.4-2.7-8.4-5.3-17-3-5.9-3-5.9-6-11.5-2.1-7.5-2.1-7.5-4.1-15.5-1.5-2.3-1.5-2.3-3-5-3.3-0.6-3.3-0.6-6.8-0.9-0.3-8.3-0.3-8.3-1.2-16.6 3-2.1 3-2.1 5.6-3.9 2.4 0 2.4 0 4.5 0-1.5-4.7-1.5-4.7-2.7-9.5-1.8-3.5-1.8-3.5-3.6-7.1 2.4-3.9 2.4-3.9 4.5-7.4 2.7-6.3 2.7-6.3 5.3-12.2 3.3-3.9 3.3-3.9 6.9-7.4 1.7-1.8 1.7-1.8 3.5-3.6 2.4-0.6 2.4-0.6 5.1-1.5 1.5-8 1.5-8 3.2-16.3-1.2-6.2-1.2-6.2-2.3-12.5-3-6.8-3-6.8-6.3-13.6-2.9-1.2-2.9-1.2-5.9-2.4-0.6 2.7-0.6 2.7-1.5 5.3-1.5 2.1-1.5 2.1-3 4.5-3.8 0-3.8 0-7.7 0-2-1.5-2-1.5-3.8-3-3.9-0.3-3.9-0.3-7.4-0.3-1.5-0.9-1.5-0.9-2.7-1.8-1.8-4.7-1.8-4.7-3.3-9.2-3.2-0.8-3.2-0.8-6.5-1.7-2.7-2.7-2.7-2.7-5.6-5.4 0-4.4 0-4.4-0.3-8.9-6-8.6-6-8.6-12.2-17.2-5.6-3.3-5.6-3.3-11.3-6.8-5.6 1.2-5.6 1.2-11.5 2-6.6-8-6.6-8-13.4-16-5.6-1.5-5.6-1.5-11.2-3-2.4 2.4-2.4 2.4-4.8 4.8-6.2-0.3-6.2-0.3-12.2-0.9-8-4.4-8-4.4-15.7-8.9-18.1-13.4-18.1-13.4-36.2-26.7-0.6-4.5-0.6-4.5-0.9-8.6-0.8-4.5-0.8-4.5-2-8.6-1.2-5.7-1.2-5.7-2.4-11.3-3.6-4.5-3.6-4.5-7.1-8.6-5.1-6-5.1-6-10.4-11.9-0.9-3.6-0.9-3.6-2.1-7.4-6.2-8.6-6.2-8.6-12.7-17.2-1.2-4.5-1.2-4.5-2.1-9.2-6.5-7.8-6.5-7.8-13.4-15.5-1.4 3.3-1.4 3.3-2.9 6.8 3.8 8.7 3.8 8.7 7.7 17.3 5.3 6.8 5.3 6.8 11 13.9 1.7 5.4 1.7 5.4 3.8 11 2.7 5.4 2.7 5.4 5.4 10.7 2.9 4.7 2.9 4.7 5.9 9.2-0.3 3.9-0.3 3.9-0.6 7.4-3.3-0.3-3.3-0.3-6.5-0.3-7.1-8-7.1-8-14.6-16-1.1-5.6-1.1-5.6-2.3-11.3-9.2-7.7-9.2-7.7-18.4-15.7 2.7-4.2 2.7-4.2 5.6-8.3-6.2-9.8-6.2-9.8-12.4-19.6-1.5-12.2-1.5-12.2-3-24.4-9.5-6.5-9.5-6.5-19-12.7-1.2-5.1-1.2-5.1-2.1-10.1-5.6-2.1-5.6-2.1-11.5-4.2 3.2-4.4 3.2-4.4 6.5-8.6-5.4-7.4-5.4-7.4-10.7-14.5 0-8.1 0-8.1 0-16.4 3.3-9.8 3.3-9.8 6.2-19.9 2.7-9.5 2.7-9.5 5.4-19 1.8-8.6 1.8-8.6 3.2-16.9-1.7-5-1.7-5-3.2-9.8-4.2-7.1-4.2-7.1-8-13.9 3.8-0.9 3.8-0.9 7.7-1.8 5.3 4.7 5.3 4.7 10.7 9.8 0 5 0 5 0 10.1 3.5 1.5 3.5 1.5 7.1 2.7 0.6-5.7 0.6-5.7 1.5-11.3-4.5-6-4.5-6-8.6-11.9-9.2-6.8-9.2-6.8-18.7-14-1.2-6.2-1.2-6.2-2.4-12.7-2.7-0.6-2.7-0.6-5.6-1.5-2.1-4.5-2.1-4.5-4.2-9.2 0.9-4.2 0.9-4.2 2.1-8.3-4.8-2.1-4.8-2.1-9.5-4.2-1.8-2.6-1.8-2.6-3.6-5.3-1.7-3.3-1.7-3.3-3.8-6.3-3-2-3-2-6.2-4.1-6-1.2-6-1.2-11.9-2.7-5.3-4.4-5.3-4.4-10.4-9.2-4.1-3.2-4.1-3.2-8-6.2-8.9 0.9-8.9 0.9-18.1 1.8-1.5-2.7-1.5-2.7-2.7-5.7-3.5-2.3-3.5-2.3-7.1-4.4-3 1.5-3 1.5-6.5 2.9 0.3 3.3 0.3 3.3 0.3 6.9-8.6 6.5-8.6 6.5-16.9 13.3-5.1-0.3-5.1-0.3-9.5-0.6-0.6-3.2-0.6-3.2-0.9-6.5 4.7-3 4.7-3 9.2-5.6 3.9-2.4 3.9-2.4 7.4-4.5-1.5-2.1-1.5-2.1-3-4.1-3.2 1.4-3.2 1.4-7.1 2.6-9.8 8.3-9.8 8.3-19.6 16.9-0.5 3.3-0.5 3.3-0.5 6.6-8.1 6.5-8.1 6.5-16.4 13-8 7.2-8 7.2-15.7 14-10.7 4.7-10.7 4.7-21.3 9.5-8.6 4.4-8.6 4.4-17.5 8.9-5.1-1.8-5.1-1.8-10.4-3.3 2.1-3.8 2.1-3.8 4.1-7.4 7.7-2.7 7.7-2.7 15.2-5 10.6-5.4 10.6-5.4 21.3-10.7 6.2-4.5 6.2-4.5 12.5-8.9 0.6-3.9 0.6-3.9 1.8-7.7-2.7-0.3-2.7-0.3-4.8-1.2-3.5 0.3-3.5 0.3-7.1 0.9-2.7 0.3-2.7 0.3-5 0.5-1.5 1.5-1.5 1.5-3 3.3-2.1-2.1-2.1-2.1-3.9-4.4 0 0 0.9-3.9 2.4-4.5 1.5-0.6 6.2-4.4 6.2-4.4-0.3-2.1-0.3-2.1-0.9-3.9-1.4 0.6-1.4 0.6-2.9 1.5-2.1 2.1-2.1 2.1-4.5 4.4-2.6 0.3-2.6 0.3-4.7 0.6-1.2-2-1.2-2-2.4-3.8 0-2.1 0-2.1 0.3-4.5 1.5-0.6 1.5-0.6 3-1.2 0-1.5 0-1.5 0-2.6-1.8-1.2-1.8-1.2-3.6-2.4 0 0 0.9-3.3 1.2-3.6 0.9-0.3 6.5-2.9 6.5-2.9 1.5-2.7 1.5-2.7 2.7-4.8 2.7-2.4 2.7-2.4 5.6-4.8 3 0.9 3 0.9 6.3 1.5 1.7-1.7 1.7-1.7 3.5-3.2 3.9-0.6 3.9-0.6 7.7-1.2 3-2.7 3-2.7 6-5.7 1.1-2 1.1-2 2.6-3.8-1.7-0.6-1.7-0.6-3.2-1.2-2.1 1.8-2.1 1.8-4.2 4.2-4.4 0.8-4.4 0.8-8.6 1.7-4.1 0.3-4.1 0.3-8.3 0.6-2.4-1.5-2.4-1.5-4.7-2.9 0.9-2.4 0.9-2.4 1.1-4.5-1.4-1.2-1.4-1.2-3.2-2.4 0.9-2.1 0.9-2.1 2.1-4.7 5.3-0.6 5.3-0.6 10.3-0.9 2.4-2.4 2.4-2.4 4.8-4.5 3.2-0.6 3.2-0.6 6.5-1.2 1.2 1.8 1.2 1.8 2.4 3.6 8.6-1.5 8.6-1.5 16.9-3 0.9-2.6 0.9-2.6 1.2-4.7-3.9 0-3.9 0-7.1-0.3-6-0.3-6-0.3-12.2-0.3-3.6-2.7-3.6-2.7-7.7-4.7 2.4-2.4 2.4-2.4 4.4-4.8 6.6-0.9 6.6-0.9 13.4-2.1 3-1.2 3-1.2 5.9-2.3 3.3-4.2 3.3-4.2 7.1-8.1 6-1.2 6-1.2 11.6-1.7 3.3-3 3.3-3 6.2-5.7 4.8-0.6 4.8-0.6 9.2-0.9 4.5-2.1 4.5-2.1 8.9-4.1 3.3 0.6 3.3 0.6 6.5 1.1 0.4 1.5 0.4 1.5 0.9 2.7 4.5 0 4.5 0 8.6 0 3-1.2 3-1.2 5.7-2.3 2.6 1.7 2.6 1.7 5.3 3.8 9.8-0.9 9.8-0.9 20.2-1.8 1.2 1.2 1.2 1.2 1.8 2.4 9.5-1.5 9.5-1.5 18.7-2.7 6.5 2.1 6.5 2.1 12.7 4.2 7.1 0.3 7.1 0.3 14.2 0.3 11.3 3.2 11.3 3.2 23.2 6.8 0.6-3 0.6-3 1.5-5.9 6.5-2.7 6.5-2.7 12.7-5.4 0 0 6.8-5 7.7-4.7 1.2 0.3 5.1 3.8 5.1 3.8-4.2 1.8-4.2 1.8-8.6 3.6 0.9 1.5 0.9 1.5 1.7 3.3 4.5-1.8 4.5-1.8 8.4-3.6 2.3-3 2.3-3 4.7-6.2 3.6 0.9 3.6 0.9 6.5 1.7 0.9 2.4 0.9 2.4 2.1 4.5 2.1 1.2 2.1 1.2 4.2 2.4 2.3-1.8 2.3-1.8 4.7-3.6 3 1.5 3 1.5 5.6 3.3 3-1.5 3-1.5 6-3.3 0 0 7.7 1.8 8.6 3.3 1.8 1.8 31.7 5.9 31.7 5.9 4.5 2.1 4.5 2.1 8.3 3.9-0.3 1.5-0.3 1.5-0.6 3-0.3 1.4-0.3 1.4-0.6 2.6 3.6 0.9 3.6 0.9 7.4 1.8 3-1.2 3-1.2 6.3-2.4 4.1 2.1 4.1 2.1 8.6 4.2 2.6 2.1 2.6 2.1 5 4.1 3-0.6 3-0.6 5.9-1.5-0.8-2.3-0.8-2.3-2.3-4.7 2.9-2.1 2.9-2.1 6.2-3.9 5.6 2.7 5.6 2.7 11.9 5.7 12.7 1.8 12.7 1.8 25.5 3.8 3.8-1.7 3.8-1.7 7.1-3.5 2.7 0.9 2.7 0.9 4.7 1.8 1.5 2.3 1.5 2.3 3 4.4 5.1-1.2 5.1-1.2 9.8-2.4 0.6-1.4 0.6-1.4 1.8-2.9-1.2-1.8-1.2-1.8-2.7-3.9-1.8-1.5-1.8-1.5-3.6-3-1.7-1.7-1.7-1.7-3.8-3.8 0.9-2.1 0.9-2.1 2.1-3.6 2-2.1 2-2.1 3.8-4.1 3.3 0 3.3 0 5.9-0.3 3 2 3 2 5.4 3.5 2.1 1.5 2.1 1.5 3.8 2.7-0.2 1.2-0.2 1.2-1.1 1.8-1.2 0.9-1.2 0.9-1.5 2.1 0.9 1.7 0.9 1.7 1.8 3.5 1.7 1.5 1.7 1.5 4.1 3.3 1.5 0.9 1.5 0.9 3.3 2.1 0 1.4 0 1.4 0.6 3.2 1.7 0.9 1.7 0.9 3.2 2.1 1.2-1.5 1.2-1.5 2.1-3 0.6 0 0.6 0 1.8 0 1.8 0.9 1.8 0.9 3.5 1.5 0.6 1.5 0.6 1.5 0.9 3 0 2.1 0 2.1-0.6 3.6 0.6 2 0.6 2 0.9 4.1 3 1.2 3 1.2 6.6 3-0.3-2.4-0.3-2.4 0-4.8 0.6-0.9 0.6-0.9 1.1-2 2.4-0.3 2.4-0.3 5.1-0.6-0.6-2.1-0.6-2.1-1.2-3.9 0-2.4 0-2.4-0.3-5 1.5 0.2 1.5 0.2 3.6 0.6 2.6 0.2 2.6 0.2 5 0.8 3.6 2.7 3.6 2.7 7.1 5.1 0.9 1.2 0.9 1.2 2.4 3-0.3 1.1-0.3 1.1-0.6 2.3-1.8 0-1.8 0-3.6 0.3 0 1.5 0 1.5-0.3 3 3 1.8 3 1.8 5.7 3.3 0.3 1.4 0.3 1.4 0.6 2.6-1.2 1.8-1.2 1.8-2.4 3.6-1.8 1.2-1.8 1.2-3.9 2.4-2.9-0.3-2.9-0.3-6.2-0.6-2.1-0.9-2.1-0.9-4.1-2.1-1.2-1.5-1.2-1.5-2.4-3.3-3-0.3-3-0.3-5.6-0.3 0 1.5 0 1.5 0 3.3-1.5 0.6-1.5 0.6-3 1.2-3-0.3-3-0.3-5.9-0.3-4.2-2.4-4.2-2.4-7.5-4.5-2 0-2 0-4.7-0.3 0.6 2.1 0.6 2.1 0.6 3.6 3 1.5 3 1.5 5.6 3 3.9 0.3 3.9 0.3 7.4 0.6 0.3 1.2 0.3 1.2 1.2 2.3-0.9 2.1-0.9 2.1-1.5 4.5-1.7 1.8-1.7 1.8-3.2 3.6-3.9-0.6-3.9-0.6-7.1-0.9-3.6 3.2-3.6 3.2-6.9 6.8-5.9 3.9-5.9 3.9-12.1 7.7-5.7 3.3-5.7 3.3-11.3 6.8-0.9 3.9-0.9 3.9-1.8 7.8 1.2 2 1.2 2 2.4 4.1 3.6 0.9 3.6 0.9 6.8 1.5 2.1 3.9 2.1 3.9 4.2 7.7 0 3 0 3 0.6 6 3.2 2 3.2 2 6.2 4.4 5.6 0 5.6 0 11.6 0.3 5 5.9 5 5.9 9.8 11.9 3.8 0.6 3.8 0.6 8 1.2 3.5 4.1 3.5 4.1 6.8 8 4.7-0.3 4.7-0.3 8.9-1.2 3.2 3 3.2 3 5.9 5.9-1.2 1.8-1.2 1.8-2.1 3.9-0.3 7.4-0.3 7.4-0.3 14.8 1.8 4.2 1.8 4.2 3.9 8.3 5.3-0.5 5.3-0.5 10.7-1.1 1.5-4.8 1.5-4.8 2.6-9.8 0-5.1 0-5.1-0.2-10.4-0.4-2.4-0.4-2.4-0.6-4.8 1.4-2.4 1.4-2.4 3.2-4.7 2.7-1.2 2.7-1.2 5.1-2.4-0.6-2.7-0.6-2.7-0.6-4.7-0.9-3-0.9-3-1.5-5.4-2.1-4.7-2.1-4.7-3.9-9.2-0.9-3.6-0.9-3.6-1.7-7.1 2.6-0.3 2.6-0.3 5.3-0.9 0.3-3 0.3-3 0.6-6-2.4-5-2.4-5-4.5-9.4-0.6-3-0.6-3-0.9-6 2.1-2.1 2.1-2.1 4.8-3.8 0.9-1.2 0.9-1.2 1.8-2.1 2.3 2.1 2.3 2.1 4.7 4.1 4.2 1.8 4.2 1.8 8 3.3 3.6 0.3 3.6 0.3 6.8 0.6 0.9 0.3 0.9 0.3 2.1 1.2 3 3.5 3 3.5 5.9 7.4 0 0 3.6 2.7 4.5 3 0.9 0 3.9 0.9 3.9 0.9 1.1 0.8 1.1 0.8 2.3 2.3-0.3 1.5-0.3 1.5-0.3 3.3 0 0-2.3 1.5-2.3 2.1 0.3 1.2 0.6 5.9 0.6 5.9 1.4 2.4 1.4 2.4 3.5 4.8 5.9 3.2 5.9 3.2 12.2 6.2 2.9-2.1 2.9-2.1 5.6-4.8 0.6-3.5 0.6-3.5 1.5-7.1 2.7 3.6 2.7 3.6 5.3 7.1 0.3 1.8 0.3 1.8 0.9 3.9 2.7 2.1 2.7 2.1 4.8 3.9 1.2 2.6 1.2 2.6 2.3 5.6 1.5 1.8 1.5 1.8 3 3.3-0.9 1.5-0.9 1.5-1.5 3.2 1.8 2.7 1.8 2.7 3.6 5.7 0.9 1.8 0.9 1.8 1.2 2.9 0.6 1.5 0.6 1.5 0.9 3 2 1.5 2 1.5 4.1 2.7 2.1 0.9 2.1 0.9 4.2 1.5 2 1.2 2 1.2 4.4 2.6 0.3 0.9 0.3 0.9 0.3 1.8-1.8 1.5-1.8 1.5-3.6 3-2.3 0.9-2.3 0.9-4.4 2.1-0.3 1.5-0.3 1.5-0.6 2.6 0.9 0.9 0.9 0.9 2.1 2.1 1.8-1.2 1.8-1.2 3.5-2.4 1.2-1.1 1.2-1.1 2.7-2.3 2.7 0.6 2.7 0.6 5.3 1.2 0 0 3 1.4 3.3 2.3 0.3 1.2 0.3 2.7 0.6 3.9 0.3 0.9 2.1 13.1 2.1 13.1-1.2 0.5-1.2 0.5-2.1 1.7-3.9-1.2-3.9-1.2-7.7-2.6-0.9 1.7-0.9 1.7-2.1 2.9-3.2 1.2-3.2 1.2-6.5 3-5.3-0.6-5.3-0.6-10.7-1.2-4.7-1.2-4.7-1.2-9.2-1.8-3.2-1.7-3.2-1.7-6.8-3.5-1.2 1.2-1.2 1.2-2.7 2-2 1.5-2 1.5-4.4 2.7-3.9 3-3.9 3-8 5.7 0 2.3 0 2.3-0.3 4.7 2.1 0.3 2.1 0.3 4.1 0.9 2.4-2.7 2.4-2.7 4.5-4.8 2.1-2 2.1-2 3.8-4.4 3.9 1.2 3.9 1.2 7.5 1.8 2.6 2.6 2.6 2.6 5.3 5.6-1.8 1.5-1.8 1.5-3.6 3.3-0.3 1.8-0.3 1.8-0.6 3.8 1.2 2.4 1.2 2.4 2.4 4.8 2.1 1.2 2.1 1.2 3.9 2.1 3.2 1.2 3.2 1.2 6.5 2.3 3 0.6 3 0.6 5.9 1.8 1.2 2.7 1.2 2.7 2.1 5.1-0.9 3.2-0.9 3.2-2.1 6.2-3.2 0.6-3.2 0.6-6.5 0.9-1.8 2.1-1.8 2.1-3.9 4.2-1.4 2.6-1.4 2.6-3.2 5.6-3 0.3-3 0.3-6.2 0.6-1.2-0.6-1.2-0.6-2.1-0.9-0.9-3.6-0.9-3.6-1.8-7.1 3-2.4 3-2.4 5.6-5.1 2.1-2.4 2.1-2.4 4.5-4.7-0.9-3-0.9-3-1.5-5.4-2.4-0.6-2.4-0.6-4.5-0.6-0.8 2.4-0.8 2.4-2 4.8-3.6 4.4-3.6 4.4-6.8 9.5-2.7 1.5-2.7 1.5-5.1 3-6.5 1.7-6.5 1.7-13 3.8-0.9 3-0.9 3-1.8 5.7 0.9 1.1 0.9 1.1 1.5 2 1.4 2.1 1.4 2.1 3.2 4.8-0.3 2.4-0.3 2.4-0.6 5 0 0-2.9 0.9-3.5 0.6-0.3 0-5.1-0.3-6-0.6-0.9 0-5.6-0.6-5.6-0.6-0.3 1.5-0.3 1.5-0.9 3.3-0.3 2.1-0.3 2.1-0.9 3.9-3.2 0.9-3.2 0.9-6.5 1.1-1.5 2.4-1.5 2.4-2.4 5.1 0 0-1.8 6.8-1.5 7.7 0.3 0.6 0 3.9 0 3.9 0 0-5.6 2.6-6.2 2.9-0.6 0.3-2.7 1.5-2.7 1.5 0.6 2.1 0.6 2.1 0.9 3.9 1.8 2.1 1.8 2.1 3.9 4.1-0.3 5.4-0.3 5.4-0.6 10.4-3 3-3 3-5.9 5.7-0.3 2-0.3 2-0.6 4.1-3.6-0.6-3.6-0.6-7.5-1.5-2 2.4-2 2.4-4.1 5.1-1.2 2.1-1.2 2.1-2.7 4.4-5.6 4.5-5.6 4.5-10.9 9.2-2.1 3.9-2.1 3.9-4.5 8.1 2.1 6.2 2.1 6.2 4.2 12.4 0.8 7.2 0.8 7.2 1.7 14.6 2.1 7.7 2.1 7.7 3.9 15.1 0.3 3.9 0.3 3.9 0.6 7.7-1.5 3.9-1.5 3.9-3.3 7.5-2.9-3-2.9-3-5.6-5.7-4.5-6.5-4.5-6.5-8.9-13.3-0.3-8.1-0.3-8.1-0.6-16.1-3-5.3-3-5.3-5.6-10.4-3-2.3-3-2.3-6-4.4-3.5 2.1-3.5 2.1-7.1 3.5-2.4-2.6-2.4-2.6-5-5.3-5.7-0.9-5.7-0.9-11.3-1.5-5 0.6-5 0.6-9.8 1.2-0.6 2.7-0.6 2.7-0.9 5.3 0 0 1.8 6-0.9 6-2.9 0.3-10.9-0.9-10.9-0.9-1.2-3.3-1.2-3.3-2.4-6.8-0.6-2.4-0.6-2.4-1.2-5.1-2.1 1.2-2.1 1.2-4.2 2.4-1.4 3.9-1.4 3.9-2.6 7.7-3.9-2.7-3.9-2.7-7.7-5-2.1 2.3-2.1 2.3-4.2 5-4.1 3.3-4.1 3.3-8.3 6.5-2.1 3-2.1 3-4.4 5.7-3 1.2-3 1.2-6.3 2.4-1.8 11.5-1.8 11.5-3.5 22.8-1.2 5.7-1.2 5.7-2.4 11 0.9 5.6 0.9 5.6 1.8 11 1.2 5.9 1.2 5.9 2.1 11.6 1.4 5.9 1.4 5.9 3.2 11.5 6.5 3.3 6.5 3.3 13.4 6 7.1-0.6 7.1-0.6 14.2-1.2 4.7-4.2 4.7-4.2 9.5-8.6 2.7-4.5 2.7-4.5 5-8.9 4.5-3.3 4.5-3.3 8.6-6.3 6.6 0.3 6.6 0.3 12.8 0.6 1.8 3.3 1.8 3.3 3.5 6.6-1.7 5-1.7 5-3.8 10.1-1.5 4.1-1.5 4.1-3.3 8-0.9 3.2-0.9 3.2-2.1 6.8-0.2 6.8-0.2 6.8-0.8 13.7 1.7 2.9 1.7 2.9 3.2 6.2 2.7-1.8 2.7-1.8 5.1-3.9 2-0.9 2-0.9 4.4-2 3.3 1.1 3.3 1.1 6.5 1.7 3 1.2 3 1.2 6.3 2.1 2.1 2.1 2.1 2.1 3.8 3.9-0.9 2.6-0.9 2.6-2.1 5-0.2 3-0.2 3-0.2 6-0.6 6.8-0.6 6.8-1.2 13.9 0 4.5 0 4.5-0.3 9.5 2.1 1.8 2.1 1.8 4.1 3.6 0.9 2 0.9 2 2.1 4.1 0.3 2.1 0.3 2.1 0.9 4.5 2.1 1.2 2.1 1.2 3.8 2.1 3.3-0.6 3.3-0.6 6.6-1.2 3.2-1.8 3.2-1.8 6.8-3.6 2.4 0.3 2.4 0.3 5 0.9 2.7 2.1 2.7 2.1 5.7 4.2 3.2 3.2 3.2 3.2 6.2 6.5 1.8-3.9 1.8-3.9 3.3-7.7 2.3-0.9 2.3-0.9 5-2.1 2.1-5.1 2.1-5.1 4.2-9.8 2.3-2.4 2.3-2.4 4.4-4.2 3.3-0.3 3.3-0.3 6.5-0.6 2.1-4.4 2.1-4.4 4.5-9.5 1.8-0.6 1.8-0.6 3.5-1.1 3 2.6 3 2.6 6 5 0 0 4.7-3.6 5.9-3.3 1.2-0.3 5.6 5.4 5.6 5.4 2.4 1.5 2.4 1.5 4.8 2.6 3.2 3 3.2 3 6.2 6 6.8 0 6.8 0 13.4-0.3 4.7-2.7 4.7-2.7 9.5-5.1 4.4 0.6 4.4 0.6 9.1 1.2 0 3 0 3 0 6.3 1.2 3.2 1.2 3.2 2.4 6.5 2.4 1.8 2.4 1.8 4.5 3.9 1.2 1.7 1.2 1.7 2.3 3.8 1.8 1.2 1.8 1.2 3.6 2.4 0.9 2.7 0.9 2.7 1.8 5.3 1.8 0.3 1.8 0.3 3.5 0.3 0.6 3 0.6 3 0.9 6 2.1 0.9 2.1 0.9 4.2 1.7 2.4-2.6 2.4-2.6 4.4-5 3 0.3 3 0.3 5.7 0.6 3.2 3.3 3.2 3.3 6.5 6.5 3.6 5.7 3.6 5.7 7.1 11.6 2.1 4.5 2.1 4.5 4.2 9.2 0 3.3 0 3.3 0 6.2-1.2 3.3-1.2 3.3-3 6.9-2.7 5-2.7 5-5.3 9.8-2.1 2.9-2.1 2.9-4.2 5.6 0.6 0.9 0.6 0.9 1.5 2.1 0.9-1.5 0.9-1.5 2.4-3.3 2-3.5 2-3.5 4.4-7.1 1.5-2.4 1.5-2.4 3-4.2 2.3-0.3 2.3-0.3 4.4 0 0.3 1.2 0.3 1.2 0.6 2.1-0.3 2.4-0.3 2.4-0.6 4.2 0 0-2.1 1.2-2.1 2.4-0.2 0.8 1.2 2.9 1.2 2.9 1.5-2.1 1.5-2.1 3-3.3 1.5-2.3 1.5-2.3 2.7-4.4 0 0 2.3-0.9 3.8-0.9 1.5-0.6 5.4-1.2 5.4-1.2 1.2 0.9 1.2 0.9 2.6 1.8 0 0 2.7 3.9 3.3 4.5 0.3 1.1 5.3 3.2 5.3 3.2 0.9-1.8 0.9-1.8 1.5-3 1.5 0.9 1.5 0.9 3 2.1 3.8-0.3 3.8-0.3 7.7-0.6 0.6 2.7 0.6 2.7 0.9 4.8 1.8-0.3 1.8-0.3 3.6-0.3 0.5 2.7 0.5 2.7 1.1 5.6 1.5 0.9 1.5 0.9 2.7 2.4 1.5-0.6 1.5-0.6 3-1.2-0.9 5.1-0.9 5.1-1.5 10.1 0.9 0.3 0.9 0.3 1.8 0.6-0.6 3.6-0.6 3.6-1.5 7.4-2.1 4.2-2.1 4.2-3.9 8-2.9 5.4-2.9 5.4-5.9 10.7-2.1 4.5-2.1 4.5-3.9 8.6-0.9 2.7-0.9 2.7-2 5.7-3 1.8-3 1.8-6 4.1-1.5 11.6-1.5 11.6-2.9 22.6-1.8 3-1.8 3-3.9 5.9-2.1 6.9-2.1 6.9-4.1 13.1-2.4 3-2.4 3-4.8 5.6-1.8 5.4-1.8 5.4-3.5 11.3-3 1.2-3 1.2-6 2.4-1.2 1.5-1.2 1.5-2.3 3-2.7 1.1-2.7 1.1-6 2.6-6.5 6.6-6.5 6.6-13.3 13.4-3.3 9.8-3.3 9.8-6.9 19.9-2.9 2.1-2.9 2.1-6.2 4.4-1.8 4.2-1.8 4.2-3.5 8-1.5 2.1-1.5 2.1-3 3.9-1.2 2.4-1.2 2.4-2.1 4.5-1.2 0.3-1.2 0.3-2.4 0.6 0 0 1.5-4.2 1.2-4.2 0.3-0.6 0.3-2.7 0.3-2.7-1.7 1.8-1.7 1.8-2.9 3.6-0.9 2.4-0.9 2.4-1.5 4.4-1.5 3.6-1.5 3.6-2.7 6.6-3.8 4.7-3.8 4.7-7.7 9.5-2.7 2-2.7 2-5.6 4.4-2.4 0.3-2.4 0.3-4.8 0.9-1.2-0.6-1.2-0.6-2.7-1.5-2 1.5-2 1.5-4.1 3 0.3 1.2 0.3 1.2 0.9 2.1 2.1 0.3 2.1 0.3 4.1 0.3-0.3 1.8-0.3 1.8-0.3 3.2-0.6 2.1-0.6 2.1-1.7 4.8-2.1 3-2.1 3-4.8 5.9-2.4 1.2-2.4 1.2-5 3-2.4 1.8-2.4 1.8-4.8 3.6-4.1 1.4-4.1 1.4-8.6 2.9-1.2 1.2-1.2 1.2-2.6 2.4-0.9 3.9-0.9 3.9-1.8 7.4-2.4 2.7-2.4 2.7-4.5 5.1-1.8 0.3-1.8 0.3-3.5 0.3-0.6-0.9-0.6-0.9-1.8-1.5-1.8 1.2-1.8 1.2-4.2 2.4 0.3 1.1 0.3 1.1 0.9 2.3 1.5 0.6 1.5 0.6 2.7 1.2-0.3 1.5-0.3 1.5 0 2.7 0 0-1.5 2.4-2.4 3.5-1.2 0.9-3.8 2.7-3.8 2.7-0.9 1.5-0.9 1.5-1.8 2.7-1.5 1.5-1.5 1.5-3 3-1.5 1.2-1.5 1.2-3.8 2.6-2.7 2.4-2.7 2.4-5.4 4.8-0.9 1.2-0.9 1.2-2.1 2.7 0.9 0.3 0.9 0.3 1.8 0.5 1.5-0.2 1.5-0.2 3.3-0.8 1.2 0 1.2 0 3 0-2.1 2.3-2.1 2.3-4.8 5-2.1 1.5-2.1 1.5-3.8 2.7-1.7 2.7-1.8 2.9-3.2 5.2 144.8-93.4 240.8-256.2 240.8-441zm-244.5 443.4q-0.4 0.1-0.9 0.4 0 0.1-0.1 0.2 0.5-0.3 1-0.6zm-548.1-866.4c3.6-0.3 3.6-0.3 7.4-0.6-1.2 2.1-1.2 2.1-2.4 4.1-1.4 1.2-1.4 1.2-3.2 3-4.2 0.9-4.2 0.9-8.6 2.1-1.2 0-1.2 0-2.4 0 0.3-1.2 0.3-1.2 1.2-2.7 3.8-3 3.8-3 8-5.9zm-147.4 188.2c1.2-2.7 1.2-2.7 2.1-4.8-0.6-2.3-0.6-2.3-1.5-4.4 0.3-2.7 0.3-2.7 0.3-4.8 0.6-4.1 0.6-4.1 1.5-8.3-0.9-1.8-0.9-1.8-1.8-3.8 0.9-3 0.9-3 1.5-6 2-0.6 2-0.6 4.1-1.5-0.3 3.3-0.3 3.3 0 6.3 0 1.7 0 1.7-0.3 3.8 2.1 1.8 2.1 1.8 4.2 3.9 0.6 0.9 0.6 0.9 0.9 2.1-0.9 1.1-0.9 1.1-1.8 2.3-1.2 0.3-1.2 0.3-2.1 0.9-0.3 2.7-0.3 2.7-0.3 5.1 1.2 2.1 1.2 2.1 2.4 3.8 0.6 1.5 0.6 1.5 1.5 3.3-0.9 2.1-0.9 2.1-2.1 4.7-1.5 1.2-1.5 1.2-3 2.7-1.8-1.2-1.8-1.2-3.8-1.8-0.9-2-0.9-2-1.8-3.5zm-6.5 55.8c-0.9-3-0.9-3-1.5-6.3 2.9-5.3 2.9-5.3 5.9-10.6 0.6-4.2 0.6-4.2 1.5-8.4-0.3-1.7-0.3-1.7-0.6-3.8 1.5-2.7 1.5-2.7 3-5.4 1.1 0.6 1.1 0.6 2 0.9-0.3 3.6-0.3 3.6-0.6 7.5 0.9 1.1 0.9 1.1 1.8 2.6 3 0.3 3 0.3 6 0.9 0 0 4.7-1.2 5-0.3 0.3 0.9-0.3 7.4-0.3 7.4-2.1 3.6-2.1 3.6-3.8 7.2-2.1 2.6-2.1 2.6-3.9 5-1.8 1.2-1.8 1.2-3 2.1-0.6-2.1-0.6-2.1-0.9-4.2-2 0-2 0-4.1 0-1.2 1.2-1.2 1.2-2.4 2.1-2.1 1.5-2.1 1.5-4.1 3.3zm-8.3 56.7c-0.9-0.3-0.9-0.3-1.8-0.3-1.8-1.2-1.8-1.2-3.3-2.7-1.5 1.5-1.5 1.5-3 2.4 0 2.1 0 2.1 0 3.8-0.6 1.2-0.6 1.2-1.1 2.7-1.5-1.5-1.5-1.5-3-2.4-0.6 1.2-0.6 1.2-1.2 2.7-0.9 0.6-0.9 0.6-2.1 1.2-1.4-0.3-1.4-0.3-2.9-0.6-0.3-1.2-0.3-1.2-0.9-2.4-1.8-0.9-1.8-0.9-3.3-1.8-0.3-1.4-0.3-1.4-0.3-2.9 1.5-0.9 1.5-0.9 3-2.1 1.5-2.4 1.5-2.4 3.2-5.3 1.8-1.5 1.8-1.5 3.9-2.7 1.2-0.3 1.2-0.3 2.7 0.3 1.4-0.6 1.4-0.6 3.2-0.6 1.5-4.8 1.5-4.8 3-10.1 2.1 0.3 2.1 0.3 3.9 0 0 0 2.9 1.8 3.2 0.6 0.6-1.2 2.4-9.8 2.4-9.8 0.3-3.3 0.3-3.3 0.6-7.1 0 0 2.9-1.8 3.2-3.6 0.3-1.2-1.1-5.3-1.1-5.3 0.3-1.8 0.3-1.8 0.6-3.6 1.1-1.5 1.1-1.5 2.3-3 2.1-0.6 2.1-0.6 4.2-1.2 0 0 0.6 3.6 0.6 4.5 0 1.2-0.3 5.3-0.3 5.3 1.5 2.1 1.5 2.1 3.2 3.9 0.3 1.5 0.3 1.5 0.9 3-1.8 1.8-1.8 1.8-3.2 3.5-1.2 0.9-1.2 0.9-2.7 1.8-0.3 1.5-0.3 1.5-0.6 2.7-0.3 0.9-0.3 0.9-0.3 1.8 0.6 0.6 0.6 0.6 1.2 1.2 0.6 2.3 0.6 2.3 1.2 4.4-1.2 5.1-1.2 5.1-2.4 10.7-1.8 2.1-1.8 2.1-3.3 3.9-1.1 1.4-1.1 1.4-2.3 3.2-0.6 1.5-0.6 1.5-1.5 3.6-1.8-0.3-1.8-0.3-3.3-1.5-1.2 0.6-1.2 0.6-2.6 1.8zm-32.1 21.6c-0.6-1.4-0.6-1.4-1.2-2.9 0 0 1.8-5.1 2.4-5.4 0.3-0.6 4.2-6.8 4.2-6.8 1.4-0.6 1.4-0.6 3.2-1.2 0.6 2.1 0.6 2.1 1.5 4.8-0.3 2.1-0.3 2.1-0.3 3.8-0.6 3.3-0.6 3.3-1.2 6.9 0.3 1.4 0.3 1.4 0.3 3.5-0.6 1.8-0.6 1.8-1.2 3.6-1.2 0.6-1.2 0.6-2.3 1.2-0.9-0.9-0.9-0.9-1.5-2.7-0.3-1.5-0.3-1.5-0.6-3-0.6-0.6-0.6-0.6-0.9-1.4-1.2 0-1.2 0-2.4-0.4zm14.3-4.1c-0.9 0.6-0.9 0.6-1.8 1.5 0 0-0.9-1.8-0.9-2.4 0-0.3 0.6-4.4 0.6-4.4 1.5-1.2 1.5-1.2 2.6-2.4 1.2 0.3 1.2 0.3 2.4 0.6-0.3 2.9-0.3 2.9-0.9 5-0.9 0.9-0.9 0.9-2 2.1zm-68.6 93.2c0.6 2.4 0.6 2.4 1.2 5.1-0.6 4.1-0.6 4.1-1.2 8.9-0.5 1.1-0.5 1.1-1.4 2.6-0.6 0-0.6 0-1.2 0-0.3-2.6-0.3-2.6-0.9-6.5 0.9-4.4 0.9-4.4 1.8-9.2 0.8-0.6 0.8-0.6 1.7-0.9zm24.1-18.4c-0.3-3.6-0.3-3.6-0.6-6.8 0.9-4.2 0.9-4.2 1.8-8 1.1-1.8 1.1-1.8 2.3-3.6 0.9 0.9 0.9 0.9 1.8 2.1 0 0 0.9 2.9 0.9 3.8 0 1.2 0.3 9.5 0.3 9.5-0.6 1.8-0.6 1.8-1.2 4.5-1.2 1.2-1.2 1.2-2.4 3.3-1.5-2.7-1.5-2.7-2.9-4.8zm4.1 26.4c1.5-1.5 1.5-1.5 3-2.6 1.2 2 1.2 2 2.1 4.1 0.8 4.8 0.8 4.8 2 9.2-0.3 2.7-0.3 2.7-0.3 5.6-0.3 2.4-0.3 2.4-0.5 4.5 0.5 2.4 0.5 2.4 0.8 4.5-0.6 2.3-0.6 2.3-1.4 4.7-0.3 0.6-0.3 0.6-0.9 0.9-2.4-0.6-2.4-0.6-5.1-1.2-0.3-1.2-0.3-1.2-0.9-2.7-1.5-1.4-1.5-1.4-2.6-2.3-0.3-3.9-0.3-3.9-0.6-7.5 1.2-1.4 1.2-1.4 2.3-2.9 0.6-4.2 0.6-4.2 1.2-8 0.6-3.6 0.6-3.6 0.9-6.3zm4.8 42.8c0.3 1.8 0.3 1.8 0.6 3.8-0.9 0.6-0.9 0.6-2.1 0.6-1.8-1.2-1.8-1.2-3.6-2.6-1.2-2.4-1.2-2.4-2.4-4.2 0.9-2.1 0.9-2.1 1.8-4.5 1.8 1.2 1.8 1.2 3.9 2.1 0.9 2.4 0.9 2.4 1.8 4.8zm2-7.5c0.6-2 0.6-2 0.9-3.5 1.8 0 1.8 0 3.9-0.3 1.2 2.1 1.2 2.1 2.7 4.2 0.6 2.9 0.6 2.9 1.4 5.6-0.8 1.2-0.8 1.2-1.7 2.1-0.6 1.5-0.6 1.5-1.2 2.9-1.5-1.7-1.5-1.7-3.3-3.8-1.5-2.1-1.5-2.1-2.7-3.3 0-2.1 0-2.1 0-3.9zm-13.9 34.5c0-3.9 0-3.9 0-8 1.5-3.3 1.5-3.3 3-6.9 0.6-2.9 0.6-2.9 1.2-5.6 0.8 0 0.8 0 1.7 0.3 0.6 2.1 0.6 2.1 0.9 4.5-0.3 2-0.3 2-0.6 3.5-0.6 2.4-0.6 2.4-1.2 4.5-0.3 2.6-0.3 2.6-0.8 4.7-0.3 1.5-0.3 1.5-0.9 3-0.3 1.2-0.3 1.2-0.6 2.7-1.5-1.2-1.5-1.2-2.7-2.7zm15.1-12.8c0 0-1.5-2.7-1.5-3.2 0-0.6 0.3-4.5 0.3-4.5 0.9-0.9 0.9-0.9 1.8-1.5 0.6 0.3 0.6 0.3 1.5 0.9 0.6 0.9 0.6 0.9 0.9 2.1 0.3 1.2 0.3 1.2 0.9 2.1-0.3 0.9-0.3 0.9-0.6 2.3-0.3 1.5-0.3 1.5-0.9 2.4-1.2-0.3-1.2-0.3-2.4-0.6zm6 5.1c-0.9-0.9-0.9-0.9-1.8-1.5 0-2.1 0-2.1 0.3-4.2 1.5 0 1.5 0 3.2 0.3-0.6 2.4-0.6 2.4-0.8 5.4-0.4 0-0.4 0-0.9 0zm0.5-13.4c0.9-1.5 0.9-1.5 2.1-2.7 1.5-0.6 1.5-0.6 3.3-0.9 0.9 0.9 0.9 0.9 1.5 1.5-0.3 1.5-0.3 1.5-0.9 3-0.6 0.9-0.6 0.9-1.2 1.8-0.6 0.6-0.6 0.6-1.2 1.8-0.6 0.3-0.6 0.3-1.2 0.9-0.9-0.9-0.9-0.9-2-1.2-0.4-2.4-0.4-2.4-0.4-4.2zm-6.2 31.5c-0.9-1.5-0.9-1.5-1.5-2.4 0.3-3 0.3-3 0.6-5.6 0.6-3 0.6-3 1.2-5.4 0.9-1.2 0.9-1.2 2.1-2.7 0.9 1.2 0.9 1.2 1.8 2.7 0 1.5 0 1.5 0 2.4-0.3 2.1-0.3 2.1-1.2 3.6-0.3 2.3-0.3 2.3-0.6 5.3-0.9 0.3-0.9 0.3-1.5 0.9-0.6 0.6-0.6 0.6-0.9 1.2zm13.1-16.7c1.2 1.5 1.2 1.5 2.6 2.7 0.6 2.7 0.6 2.7 1.2 5.4 0.9 2.3 0.9 2.3 1.5 4.4 0 0-0.6 4.2-0.6 4.5-0.3 0.6-1.5 2.6-1.5 2.6-0.9 0.6-0.9 0.6-1.7 1.2-0.3 1.5-0.3 1.5-0.9 2.7-0.6 0.6-0.6 0.6-0.9 1.2-2.4-2.7-2.4-2.7-4.8-5.7-0.9-2.6-0.9-2.6-1.8-5.3-0.5-1.5-0.5-1.5-1.4-2.4 0.6-2 0.6-2 1.2-3.5 0.8-2.1 0.8-2.1 1.4-4.2 1.2-1.5 1.2-1.5 2.1-3.6 1.8 0.4 1.8 0.4 3.6 0zm-18.4 54.7c-0.6 1.2-0.6 1.2-1.5 2.1-0.6 1.1-0.6 1.1-1.5 2.3 0 3 0 3 0 6.3-0.6 1.7-0.6 1.7-0.9 3.8-0.3 3.3-0.3 3.3-0.3 6.8 0.6 2.1 0.6 2.1 0.9 4.2-0.6 0.6-0.6 0.6-1.2 1.8-0.3 1.2-0.3 1.2-0.9 2.4-0.8-0.6-0.8-0.6-1.7-2.1-0.6-0.9-0.6-0.9-1.5-2.1-0.3-1.2-0.3-1.2-0.9-2.7-1.2-0.6-1.2-0.6-2.4-0.9-0.6 0.9-0.6 0.9-1.5 1.2-1.7-2.3-1.7-2.3-3.5-4.4-1.2-2.1-1.2-2.1-2.4-4.5-0.6-2.9-0.6-2.9-1.5-5.3-0.9-2.1-0.9-2.1-1.8-3.6-0.5-2.4-0.5-2.4-0.9-5-1.1-1.8-1.1-1.8-2.3-4.5-0.3-2.4-0.3-2.4-0.6-4.4 0.6-1.8 0.6-1.8 0.9-3.6 0.9 0.3 0.9 0.3 2 1.2 1.2 0.3 1.2 0.3 2.4 1.2 0.6-2.1 0.6-2.1 0.6-4.8 0.6-1.2 0.6-1.2 0.9-2.3 0 0 0.9-0.3 1.2 0.2 0.3 0 1.5-2.9 1.5-2.9 0.6-2.1 0.6-2.1 1.2-4.5 0.6-0.9 0.6-0.9 1.2-2 0.5-0.3 0.5-0.3 1.1-0.3 0-2.1 0-2.1 0.3-4.2 0-2.1 0-2.1 0.3-3.6 0.9-0.9 0.9-0.9 2.1-1.5 0.3-1.4 0.3-1.4 0.6-3.5 1.5 1.2 1.5 1.2 3 2.7 2 1.4 2 1.4 4.4 2.6 1.2 0.9 1.2 0.9 2.4 1.5 0.3 1.5 0.3 1.5 0.6 3.6-0.6 1.5-0.6 1.5-1.2 3.2-0.6 2.1-0.6 2.1-1.2 4.2-1.5 1.5-1.5 1.5-3.3 2.1 0.3 3.5 0.3 3.5 0.6 6.5 1.2 2.4 1.2 2.4 2.7 5.1 1.2 2 1.2 2 1.8 3.2 0.3 2.7 0.3 2.7 0.3 4.5zm20.2 40.6c0.3 2.1 0.3 2.1 0.5 4.5 0 0-2.3 0.9-2.9 0.6-0.3 0-2.7-3.9-2.7-3.9-0.9-1.7-0.9-1.7-1.8-3.5-0.6-1.8-0.6-1.8-1.2-3.9 0 0-0.2-2.4-0.2-3 0-0.5-1.8-2.3-1.8-2.3 0 0-0.9 2-0.9 3.2 0 0.6 0.3 2.4 0.3 2.4 0 0 1.8 4.2 1.8 4.8 0.2 0.6 0.2 3.5 0.2 3.5-1.1 0-1.1 0-2.6 0-0.6-1.5-0.6-1.5-1.2-2.9-0.6-1.5-0.6-1.5-0.9-3-0.6-3-0.6-3-0.9-5.4-0.6-2-0.6-2-1.2-3.8-1.2-2.4-1.2-2.4-2-5.1 0.2-1.7 0.2-1.7 0.2-3.8 0.6-1.2 0.6-1.2 0.9-3 0-3 0-3 0-5.9 0-3.3 0-3.3 0.3-6.3-0.3-1.5-0.3-1.5-0.6-2.3 0.6-2.4 0.6-2.4 0.9-4.5 1.2-0.3 1.2-0.3 2.4-0.9 0.9 0.6 0.9 0.6 1.8 2.1 1.8 0.9 1.8 0.9 3.5 2.7 0 0 2.7 0.3 3 0.3 0.3-0.3 2.1-2.7 2.1-2.7 1.5 0.6 1.5 0.6 3 0.9 0.3 2.4 0.3 2.4 0.8 4.7-1.1 1.8-1.1 1.8-2.6 3.6 0 0-3-0.3-3.6-0.6-0.6-0.9-3.5-3.3-3.5-3.3 0 0-2.4-0.3-3-1.1-0.3-0.4-2.1-2.1-2.1-2.1 0 0-0.6 1.7-0.6 2.3 0.3 0.3 0.9 4.8 0.9 4.8 0 1.5 0 1.5 0 3 0.9 2 0.9 2 1.8 3.8 0 0 1.5 0 1.8-0.6 0.6 0 2.3-2.6 2.3-2.6 1.2 0.6 1.2 0.6 2.4 0.8 0.6 1.8 0.6 1.8 1.2 3.3-0.3 2.1-0.3 2.1-0.3 4.8-1.5 0.9-1.5 0.9-3 1.7 0 0-1.2-0.3-1.2 0.9 0 0.3 1.8 4.5 1.8 4.5 1.2 3 1.2 3 2.1 5.6 1.5 1.8 1.5 1.8 2.7 3.3 0.9 2.4 0.9 2.4 2.1 4.4zm10.6-27c-0.9-2.1-0.9-2.1-1.7-3.8-1.5-1.5-1.5-1.5-2.7-3.3-0.3-2.7-0.3-2.7-0.6-5 1.2-0.9 1.2-0.9 2.4-1.8 0 0 0.6-3.9 0.6-4.5 0-0.6 0-3.8 0.3-3.8 0.2-0.6 4.1 1.5 4.1 1.5 0 2.6 0 2.6 0.3 5.6 0 0 0.6 5 0.6 5.6 0 0.9 0 5.7 0 5.7-0.3 1.7-0.3 1.7-0.6 2.6-1.5 0.6-1.5 0.6-2.7 1.2zm-6.2 9.8c-1.2 0.3-1.2 0.3-2.1 0.6-0.9-1.2-0.9-1.2-1.5-2.1 0-1.4 0-1.4 0-2.9 1.2 0.3 1.2 0.3 2.7 0.6 1.5 0.3 1.5 0.3 2.7 0.3 0.6 1.4 0.6 1.4 1.2 2.6-0.3 0.6-0.3 0.6-0.9 1.8-1.2-0.6-1.2-0.6-2.1-0.9zm10.4 1.8c-1.5 0-1.5 0-3-0.6-0.6-0.6-0.6-0.6-1.2-2.1 0.3-0.9 0.3-0.9 0.6-2 1.5 0.6 1.5 0.6 3 1.1 0.9 0.6 0.9 0.6 2.1 1.8-0.6 1.2-0.6 1.2-1.5 1.8zm10.4 8c0.3 1.8 0.3 1.8 1.1 4.2-2 0-2 0-3.8 0.6-0.6-1.2-0.6-1.2-1.2-1.8-1.5-1.5-1.5-1.5-2.4-2.7-0.6 0.6-0.6 0.6-1.2 0.9-0.2 0.6-0.2 0.6-0.5 1.2-0.9-1.2-0.9-1.2-1.8-2.7 0-1.5 0-1.5 0-3.2 0.9-1.5 0.9-1.5 2.1-2.7 2.6 0.6 2.6 0.6 5 0.9 1.2 3 1.2 3 2.7 5.3zm12.7-2.7c-1.8-1.7-1.8-1.7-3.5-3.5 0-2.1 0-2.1 0.3-4.5 1.1-1.7 1.1-1.7 2.3-3.5 1.8-0.3 1.8-0.3 3.6-0.3 2.7 1.5 2.7 1.5 5.3 2.9 0 1.8 0 1.8 0.3 4.2 0.3 1.2 0.3 1.2 0.3 2.7-1.5 1.5-1.5 1.5-2.9 2.4-3-0.4-3-0.4-5.7-0.4zm80.7 57.9c2.7 1.8 2.7 1.8 5.3 3.9-0.3 2.1-0.3 2.1-0.9 4.2-2.6 0.6-2.6 0.6-5 1.1-3.9-0.5-3.9-0.5-7.7-1.1-3-2.1-3-2.1-5.9-3.6-3-4.8-3-4.8-5.7-8.9-3.2-3.3-3.2-3.3-6.5-6.8-3-2.7-3-2.7-5.9-5.1-1.8 2.1-1.8 2.1-3.6 4.2-1.2 2-1.2 2-2.4 3.8-2.6 1.5-2.6 1.5-5.3 2.4-3.6-2.4-3.6-2.4-7.1-5-3-1.5-3-1.5-6-3-3.2 0.6-3.2 0.6-6.2 0.9-0.9-2.1-0.9-2.1-1.8-4.2 0 0 1.8-2.3 3-3.2 0.9-0.6 1.2-6.9 1.2-6.9-2.7-4.1-2.7-4.1-5.1-8 0 0-4.1-3.6-4.7-4.7-0.6-1.2-4.2-4.5-4.2-4.5-2.3 0.6-2.3 0.6-4.7 1.5-1.2-1.5-1.2-1.5-2.7-3 0-2.3 0-2.3-0.3-5 0.6-0.3 0.6-0.3 1.8-0.3 1.8 0.3 1.8 0.3 3.9 0.9 1.8-0.6 1.8-0.6 3.5-1.2 0 0 1.8-3.6 2.7-3.9 0.3-0.6 3.3-5.6 3.3-5.6 2 0 2 0 4.4 0.3 2.4 1.5 2.4 1.5 5.1 2.7 3.5 3.2 3.5 3.2 7.1 6.2 3.2 2.4 3.2 2.4 6.8 4.4 0 0 4.1 1.5 5 2.1 0.9 0 5.7 1.2 5.7 1.2 0.6 1.5 0.6 1.5 1.5 3 0.5 1.8 0.5 1.8 0.8 3.2 2.7 2.1 2.7 2.1 5.4 3.9 2.4 3.3 2.4 3.3 5 7.1 3 2.7 3 2.7 6 6 0.3 2.6 0.3 2.6 1.1 5.9-0.2 2.1-0.2 2.1-0.2 4.4 2.9 3.3 2.9 3.3 6.2 6.9 3.5 2.1 3.5 2.1 7.1 3.8zm1.8-35.6c2.3 1.2 2.3 1.2 5 2.4 0 0-0.9 4.4-0.9 5.3-0.3 0.9-2.6 5.7-2.6 5.7-1.8 1.8-1.8 1.8-3.9 3.8-4.1-2.3-4.1-2.3-8-4.4 0 0-2.7-5.7-1.2-6 1.5-0.8 6.5-0.3 6.5-0.3 2.1-0.8 2.1-0.8 4.2-1.7 0.3-2.4 0.3-2.4 0.9-4.8zm8-15.4c2.4 4.4 2.4 4.4 4.4 8.9 0 2.4 0 2.4 0 4.4-1.1 1.5-1.1 1.5-2.3 2.4-2.1-1.8-2.1-1.8-4.5-4.1-0.6-2.7-0.6-2.7-1.2-5.7-1.8-2.1-1.8-2.1-3.8-3.8-0.6-2.4-0.6-2.4-1.5-4.5 1.2-0.9 1.2-0.9 2.1-2.1 3.2 2.4 3.2 2.4 6.8 4.5zm10.1 23.1c2.9 0.6 2.9 0.6 6.2 1.8-0.6 2.4-0.6 2.4-1.5 4.5-2.7 0.9-2.7 0.9-5.3 2.1-1.8-2.4-1.8-2.4-3.6-5.1 2.1-1.8 2.1-1.8 4.2-3.3zm-155.2-7.1c0.3 0.9 0.3 0.9 1.2 2.1-0.6 0.9-0.6 0.9-0.9 2.1-0.5-0.3-0.5-0.3-1.1-0.9-0.6-0.3-0.6-0.3-1.2 0-0.3 0.3-0.3 0.3-0.9 0.3-0.3-1.5-0.3-1.5-0.9-3 0.3-1.2 0.3-1.2 0.6-2.4 0.6 0.9 0.6 0.9 1.5 1.8 0.9-0.3 0.9-0.3 1.7 0zm6 3.3c0 0.9 0 0.9 0.3 2.4-0.3 0.8-0.3 0.8-0.3 1.7-0.9-0.6-0.9-0.6-1.8-0.9-0.6-1.4-0.6-1.4-1.5-2.3 0-1.5 0-1.5-0.3-3 1.2 0 1.2 0 2.4-0.3 0.6 1.5 0.6 1.5 1.2 2.4zm10.7 2.9c0.3 2.1 0.3 2.1 0.5 4.2-0.2 1.2-0.2 1.2-0.8 1.8-0.6 0.3-0.6 0.3-1.2 0.6-1.5 0-1.5 0-2.7-0.6-0.3 0.6-0.3 0.6-0.3 1.2 0 0-0.6 1.7-0.9 1.7 0 0.6-2.1 2.1-2.1 2.1-1.2-0.6-1.2-0.6-2.3-0.9 0-1.4 0-1.4-0.3-2.9 0 0 1.2-2.4 1.8-2.4 0.2-0.6 0.5-2.4 0.5-2.4 0.9 0 0.9 0 2.1 0.3-0.6-1.5-0.6-1.5-1.5-3.2 0.3-0.6 0.3-0.6 0.6-1.8 0.9-0.3 0.9-0.3 1.5 0 1.2 0.6 1.2 0.6 2.1 1.5 0 0 0.9 0 1.5 0.3 0.3 0 1.5 0.5 1.5 0.5zm6.2 8.4c0.6 0.5 0.6 0.5 1.5 1.4 0 1.5 0 1.5 0 3.3-0.6 0.6-0.6 0.6-0.9 1.5-1.2-0.3-1.2-0.3-1.8 0-0.9-1.8-0.9-1.8-1.5-3.3 0 0-0.3-2.4 0.3-2 0.6-0.4 2.4-0.9 2.4-0.9zm122.8 203.9c1.5 2.1 1.5 2.1 2.7 4.2-0.9 0.8-0.9 0.8-1.8 2-0.3 1.2-0.3 1.2-0.9 2.4-0.6 0.9-0.6 0.9-0.9 1.8-3.6-2.1-3.6-2.1-7.4-4.8-0.6 0-6.3-5.6-6.3-5.6-0.5-2.4-0.5-2.4-1.1-5 0 0-0.6-3 1.1-1.8 1.5 0.6 6.9 4.7 6.9 4.7 0 0 2.9 0 3.2 0 1.2 0.6 4.5 2.1 4.5 2.1zm96.7 39.8c2.9-2.1 2.9-2.1 5.3-4.5 3.9 0 3.9 0 7.4-0.3 0-2.3 0-2.3 0-5 2.1-0.9 2.1-0.9 4.2-1.8 2.3 1.5 2.3 1.5 4.4 2.7 1.5 2.1 1.5 2.1 3.3 4.1-1.2 2.1-1.2 2.1-2.1 3.9-2.9 1.5-2.9 1.5-5.6 2.7-0.3 2.3-0.3 2.3-0.9 4.4-3.6 0-3.6 0-7.4-0.3-1.2 0.9-1.2 0.9-2.7 1.8-0.6 2.1-0.6 2.1-1.5 3.9-2.4 2.3-2.4 2.3-4.4 4.1-3.3-0.6-3.3-0.6-5.7-1.2-3.8-2.7-3.8-2.7-7.7-5.9-0.9-2.7-0.9-2.7-0.9-5.4 3.9-1.7 3.9-1.7 8-3.2 3.6 0.3 3.6 0.3 6.3 0zm21-34.5c-0.9-2.9-0.9-2.9-1.8-5.9 3-0.6 3-0.6 5.7-1.2 2.4 2.4 2.4 2.4 4.7 4.8 0.9 2.6 0.9 2.6 2.4 5.3 3.3 1.8 3.3 1.8 5.9 3.3 0.9 2.4 0.9 2.4 1.8 4.7 5.4 2.4 5.4 2.4 10.4 4.5 0.3 2.1 0.3 2.1 0.6 4.4-1.2 2.1-1.2 2.1-2.1 3.9-3.2 0.6-3.2 0.6-6.5 0.9-3.6 0.9-3.6 0.9-6.5 1.5 0 2.3 0 2.3 0 4.7-1.5 0.9-1.5 0.9-2.7 2.1-2.1-2.1-2.1-2.1-4.7-4.5-0.9-4.1-0.9-4.1-2.4-8.6 2.4-3.5 2.4-3.5 4.7-7.1-1.8-3.6-1.8-3.6-3.2-7.1-3.3-2.7-3.3-2.7-6.3-5.7zm-30.5-89c-2.7 0.3-2.7 0.3-5.1 0.9-2.6-1.2-2.6-1.2-5-2.4-3.9-4.2-3.9-4.2-8-8.6 3.8-1.2 3.8-1.2 7.7-2.4 2.1 2.1 2.1 2.1 4.5 4.2 3.2 2.6 3.2 2.6 6.2 5.3-0.3 1.5-0.3 1.5-0.3 3zm446.7-773.6c-3.3-1.5-3.3-1.5-6-2.7-0.8-1.8-0.8-1.8-2-3.3 1.4-0.9 1.4-0.9 2.3-1.7-1.7-1.5-1.7-1.5-2.9-2.7-2.7-1.5-2.7-1.5-5.4-3 0.9-1.2 0.9-1.2 1.5-2.4 2.1 0.6 2.1 0.6 4.2 0.9 1.7 0.9 1.7 0.9 4.1 1.8 0.3 0.9 0.3 0.9 0.6 1.5-0.9 0.6-0.9 0.6-1.5 1.2 1.2 1.2 1.2 1.2 1.8 2.1 3 0.8 3 0.8 6.5 2.3 1.8 0.9 1.8 0.9 3.6 2.1 0.3 1.5 0.3 1.5 0.3 2.7 0.6 1.8 0.6 1.8 0.3 3.2-3.3-0.8-3.3-0.8-7.4-2zm-38-11.3c-1.8-1.5-1.8-1.5-3.3-3 0.3-1.2 0.3-1.2 0.6-2.1 3.3 0 3.3 0 6.3 0.3 0 0 5 1.5 5.9 1.8 0.9 0.3 6.2 2.7 6.2 2.7 3 2.1 3 2.1 6.3 4.1 0.8 1.5 0.8 1.5 2.3 3.3-0.9 0.6-0.9 0.6-1.7 1.5 0 0-2.7 0-3.6-0.3-0.9-0.3-4.5-0.9-4.5-0.9-1.4-0.9-1.4-0.9-2.6-1.5-0.3-0.6-0.3-0.6-0.6-1.5-2.7-1.2-2.7-1.2-5.7-2.6-2.6-0.9-2.6-0.9-5.6-1.8zm18.7 13.3c2.7 0.3 2.7 0.3 4.7 0.6 3 0.6 3 0.6 6 1.2 0.6 0.9 0.6 0.9 1.8 2.1 0.2 1.8 0.2 1.8 0.2 3.6-1.4 0.9-1.4 0.9-2.9 2-3 0.3-3 0.3-6.2 0.3-3.3-0.5-3.3-0.5-6.9-1.4-1.8-0.9-1.8-0.9-3.8-1.8-3-2.1-3-2.1-5.4-4.2-2.6-1.5-2.6-1.5-5.3-2.9 2.1-0.9 2.1-0.9 3.6-2.4 2.3 0.6 2.3 0.6 5.3 1.2 1.2 1.4 1.2 1.4 2.7 2.6 1.5 0.6 1.5 0.6 2.9 0.9 0.3-0.9 0.3-0.9 1.2-1.5 0.9-0.3 0.9-0.3 2.1-0.3zm50.7 22c-1.5-0.6-4.7-2.1-5.6-2.7-1.2-0.8-6.2-4.1-6.2-4.1-1.5-1.5-1.5-1.5-3.3-2.7-1.8-1.2-1.8-1.2-3.9-2.4-2.3-2-2.3-2-4.7-4.1 0.9-1.2 0.9-1.2 2.1-2.1 2.3-0.3 2.3-0.3 4.7-0.6 2.4 0.6 2.4 0.6 5.1 1.2 2.3 0.9 2.3 0.9 5.3 1.8 1.8 2.1 1.8 2.1 3.5 4.1 2.1 1.8 2.1 1.8 3.6 3.6 0 0 5.6 2.4 6.2 2.4 0.9 0.3 8 2.3 8 2.3 5.4 1.8 5.4 1.8 10.4 3.6 3 0.9 3 0.9 6.3 2.1 2.6 2.1 2.6 2.1 5.3 4.1 1.2 1.5 1.2 1.5 2.1 2.7-1.2 0.9-1.2 0.9-1.8 1.8 0 0-2.1 0.3-3.9-1.2-1.7-1.5-3.2-2.7-4.7-3.3-0.9-0.2-6.2-2.3-7.7-2.6-1.8 0-4.2 0-5.7-0.6-1.1 0-5.6-0.9-7.1-1.5-1.5-0.3-7.1-1.5-8-1.8zm-105.6-39.5c-1.8-1.2-1.8-1.2-3.5-2.3 1.1-0.9 1.1-0.9 2.3-1.5 2.4-0.6 2.4-0.6 4.8-1.2 0 0 4.7-0.3 5-0.3 0.6 0.3 3 0.9 3 0.9 2.1 0.9 2.1 0.9 3.8 1.8 0.9 0.6 0.9 0.6 1.8 1.4-0.3 0.6-0.3 0.6-0.6 1.5-1.4 0.3-1.4 0.3-3.2 0.3-2.4-0.3-2.4-0.3-4.5-0.6-2.1-0.3-2.1-0.3-4.1-0.6-1.5 0-1.5 0-3 0.3-0.6 0-0.6 0-1.8 0.3zm9.8 2.1c0.6 0 5 0.3 5 0.3 0.9 0.9 0.9 0.9 1.8 1.5-0.3 0.9-0.3 0.9-0.6 1.8-0.6 0.6-0.6 0.6-1.2 0.9-2.3-0.3-2.3-0.3-5-0.9-1.5 0-1.5 0-2.7 0.3-0.9 0.3-0.9 0.3-1.7 0.9-0.6 0.5-0.6 0.5-0.6 1.1-2.7-0.2-2.7-0.2-4.5-0.8-1.2-1.2-1.2-1.2-2.1-2.4 2.1-1.2 2.1-1.2 3.9-2.4 0 0 0.9-1.5 1.2-1.2 0.6 0 6.2 0.9 6.5 0.9zm-21 10.7c2.3 0.9 2.3 0.9 4.7 1.5 0 0 3 1.5 3.6 1.5 0.5-0.3 3.5-1.5 3.5-1.5 1.2-0.9 1.2-0.9 2.4-1.5 2.4-0.3 2.4-0.3 5.6-0.3 0.3-0.9 0.3-0.9 0.9-1.5 0.3-0.9 0.3-0.9 0.9-1.5 2.7 0 2.7 0 5 0.3 1.8 0.6 1.8 0.6 3.9 1.5 0.9 1.5 0.9 1.5 2.1 3.3 3.2 0.9 3.2 0.9 6.5 2.1 2.7 0.8 2.7 0.8 5 1.4 3.3 1.8 3.3 1.8 6.3 3.6 0.6 1.5 0.6 1.5 1.5 3-1.2 0.6-1.2 0.6-2.4 1.2-2.4-0.3-2.4-0.3-5.1-0.9-2-1.5-2-1.5-3.5-2.7-1.5-0.3-1.5-0.3-2.4-0.6-2.1-0.3-2.1-0.3-4.4-0.6-1.2 0.3-1.2 0.3-2.1 0.3-3.3 0-3.3 0-6.2 0.3-1.5 0.3-1.5 0.3-3.6 0.3-2.4 0.6-2.4 0.6-4.4 1.5-4.5-0.3-4.5-0.3-9-0.3-2.9-0.6-2.9-0.6-5.6-0.9-0.9-0.6-0.9-0.6-1.8-1.2-2-1.2-2-1.2-4.4-2.4 0 0-0.3-2.6 0.3-2.9 0.6-0.3 2.7-3 2.7-3zm-36.5-4.5c-0.9-0.9-0.9-0.9-1.8-2 0 0 2.4-2.4 3-2.4 0.3 0 4.4-0.3 4.4-0.3 0 0 6.2 0.3 6.8 0 0.6 0 4.8-1.2 5.4-1.2 0.6-0.3 3.5-0.9 3.5-0.9 1.8-0.6 1.8-0.6 3.9-1.2 2.7-0.3 2.7-0.3 5.3-0.6 1.8 0.3 1.8 0.3 3.9 0.6 1.2 1.5 1.2 1.5 2.3 2.7 0.3 1.5 0.3 1.5-0.2 3-1.2 0.9-1.2 0.9-2.7 1.8-2.1-0.4-2.1-0.4-4.2-0.6-2.3 0-2.3 0-5.3-0.3-1.5 0-1.5 0-2.4 0.3-0.9 1.1-0.9 1.1-1.5 2.3 0.9 0.6 0.9 0.6 2.1 1.5 0 0 3-0.3 3.9 0 0.6 0 2.9 0.6 2.9 0.6 0 0 0.3 0.6 0.6 1.2 0.6 0.6 0.3 3 0.3 3-0.9 0.6-0.9 0.6-2.1 1.2 0 0-4.4 0-5.3-0.6-0.3-0.3-2.7-1.8-2.7-1.8 0 0-0.6-1.2-0.6-1.5 0-0.3-0.6-1.5-0.6-1.5-1.4-0.3-1.4-0.3-2.3-0.6-1.5 0.3-1.5 0.3-3 0.6 0 0-0.6 0.3-1.2 0.3-0.6 0-1.8-0.3-1.8-0.3-4.4-0.6-4.4-0.6-8.3-1.2-1.1-1.2-1.1-1.2-2.3-2.1zm11.8 22.6c-2 0.6-2 0.6-4.1 1.5-3.9 1.2-3.9 1.2-7.4 2.7-3.9 1.7-3.9 1.7-8 3.5-3 1.2-3 1.2-6.3 2.7-3.5-1.5-3.5-1.5-6.8-3-3-1.2-3-1.2-6.5-2.6-1.2-1.8-1.2-1.8-2.1-3.6 2.1-1.8 2.1-1.8 4.2-3.6 0 0 3.5-2.6 4.4-2.9 1.2-0.3 4.7-2.4 4.7-2.4 0.4-2.4 0.4-2.4 0.6-5.1 2.4-1.1 2.4-1.1 5.1-2.6 1.2 1.2 1.2 1.2 2.9 2 1.8-0.8 1.8-0.8 3.9-2 2.4 0.3 2.4 0.3 4.2 0.3 2.3 1.2 2.3 1.2 4.4 2.3 3.3 0.9 3.3 0.9 6.8 1.8 0 0 4.5 0.6 6.3 1.2 1.7 0.3 8 3 8 3 1.8 0.9 1.8 0.9 3.5 1.8 0.3 1.1 0.3 1.1 0.3 2-2.4 0.9-2.4 0.9-4.7 1.8-3.3 0.6-3.3 0.6-7.1 1.2-3 0-3 0-6.3 0zm80.7 20.8c1.2 1.5 1.2 1.5 1.5 2.7-1.5 0.3-1.5 0.3-3 0.3-0.6 0-0.6 0-1.2 0.3-1.7-0.3-1.7-0.3-3.2-0.3 0 0.8 0 0.8 0.3 2 1.5 1.2 1.5 1.2 3.5 2.4 0.3 0.9 0.3 0.9 0.6 2.1 0 0.9 0 0.9-0.3 1.8-1.8 0.6-1.8 0.6-3.5 1.4-3.6-0.2-3.6-0.2-7.7-0.5-2.4-0.3-2.4-0.3-5.1-0.6 0 0-5.3-1.2-5.9-1.2-0.6 0-5.1-0.6-5.1-0.6 0 0-5.6 0-5.6 0.6-0.6 0.3-4.4 0.6-4.4 0.6 0 0-6.3-0.3-6.9-0.6-0.3 0-6.8-1.2-7.7-1.5-1.2-0.3-4.1-1.2-4.7-1.5-0.3-0.6-3.6-2.4-3.6-2.4-1.8-1.2-1.8-1.2-4.1-2.3-1.8-0.6-1.8-0.6-3-1.2 0 0-3-0.6-3.9-0.9-0.6 0-1.7-0.3-2.6-0.6-1.2-0.6-2.1-1.2-3-1.8-0.6-0.9-1.8-1.8-1.2-2.1 0-0.9 1.5-1.8 1.5-1.8 2.4-0.2 2.4-0.2 4.5-0.6 0 0 4.4 0.4 5 0.6 0.9 0 3.3 0.9 3.3 0.9 1.1 0.9 1.1 0.9 2 1.5 1.5-0.3 1.5-0.3 3-0.3 0-1.8 0-1.8-0.3-3.5-2.4-0.9-2.4-0.9-4.7-1.5-3.6 0-3.6 0-7.5 0-3.5-0.3-3.5-0.3-7.1-0.9-1.5-0.3-1.5-0.3-2.3-0.6 0 0-0.9-1.5-0.9-2.1-0.3-0.6 1.7-3.8 1.7-3.8 0 0 2.7-0.3 3.6 0 0.6 0.3 4.8 2 4.8 2 0 0 2.3 0.3 2.9 0 0.3-0.3 2.1-2.6 2.1-2.6 0 0 0.3-1.8 1.2-1.8 0.9-0.3 7.1-1.8 7.1-1.8 2.1-0.9 2.1-0.9 4.7-1.8 1.8 0 1.8 0 3.9 0.3 1.2 0.9 1.2 0.9 2.1 1.8 0.6 1.2 0.6 1.2 1.2 2.4 0 0 2.3 0.6 3.2 0.6 0.3 0 2.4 0 2.4 0 0.3-1.2 0.3-1.2 0.9-2.1 0.6 0 0.6 0 1.8-0.3 0.3 0 0.3 0 1.5 0.3 0 0 1.4 0.9 1.7 1.5 0.3 0.6 2.7 2.6 2.7 2.6 0.9 0.9 0.9 0.9 1.8 2.1 0 0 1.8 0.6 2.6 0.6 1.2 0.3 3 0.6 3 0 0.3-0.3 0.9-0.6 0.6-1.5 0-1.2 0-2.6-0.6-3.2 0.3-0.3 0.6-3.3 0.6-3.3 2.7 0 2.7 0 5.3 0.3 1.8-0.3 1.8-0.3 3.3-0.6 0-1.5 0-1.5 0-2.7 1.5-0.3 1.5-0.3 3.3-0.6 0 0 3.2 0.9 3.5 0.9 1.2 0.6 3.6 2.4 3.6 2.4-0.9 0.6-0.9 0.6-1.2 1.5-1.5 0.3-1.5 0.3-3.3 0.3-0.9 0-0.9 0-1.7 0-1.2 0-1.2 0-2.1-0.3 0 0.6 0 0.6-0.3 0.9 0.9 0.9 0.9 0.9 1.5 1.8-0.3 0.6-0.3 0.6 0 1.1 0 0-1.2 0.6-1.8 0.9-0.3 0-1.5 0-1.5 0-0.9 0.9-0.9 0.9-1.5 1.5 1.8 1.8 1.8 1.8 3.3 3.6 2.1 1.5 2.1 1.5 3.8 2.9 1.2 1.2 1.2 1.2 2.4 2.4 1.2 0.6 1.2 0.6 2.4 0.9 2.4 0.6 2.4 0.6 4.1 1.2 1.2 0.9 1.2 0.9 2.7 1.8zm25.5-8c0.6 0.9 0.6 0.9 1.2 2.1-0.3 1.4-0.3 1.4-0.6 3.5 0 0-1.2 1.8-1.8 2.1-0.6 0-3.5-0.3-3.5-0.3-1.5 0-1.5 0-3-0.3-2.4-0.6-2.4-0.6-4.7-1.2-1.8-1.5-1.8-1.5-3.9-3-1.5-1.4-1.5-1.4-2.4-2.9-1.8-0.6-1.8-0.6-2.9-1.2-1.8-0.9-1.8-0.9-3.6-1.5 0 0-2.7-1.5-2.4-1.8-0.3-0.6-0.3-2.1-0.3-2.1 0.9-0.9 0.9-0.9 1.5-1.4 1.8 0.3 1.8 0.3 3.3 0.8 1.2 0.9 1.2 0.9 2.4 1.8 0 0 0.8 1.8 1.4 1.8 0.9 0.3 2.1 0.9 2.4 0.3 0.6 0 1.5-1.2 1.5-1.5-0.3-0.3 0-1.2-0.3-1.8-0.6-0.6-2.1-1.4-2.4-1.7-0.3-0.3-0.6-2.1-0.6-2.1 0.3-1.2 0.3-1.2 1.5-2.7 2.7 0 2.7 0 5.7 0.3 2 0.3 2 0.3 3.8 0.9 1.8 1.2 1.8 1.2 3.3 2.1 0.3 0.9 0.3 0.9 0.6 1.8-0.6 0.8-0.6 0.8-1.2 1.4 0 0-1.2 1.2-0.3 1.8 0.3 0.6 2.4 3 2.4 3 1.7 0.9 1.7 0.9 2.9 1.8zm29.1-3.6c0.6 1.5 0.6 1.5 0.6 2.7-1.5 0.6-1.5 0.6-3 1.2-2.4 0.3-2.4 0.3-5 0.6-0.6 0.8-0.6 0.8-1.5 1.7-0.3 0.6-0.3 0.6-0.6 1.5-3-0.6-3-0.6-5.6-1.2-0.6 0.6-0.6 0.6-1.5 1.2 0 0.9 0 0.9 0 1.8-0.9 0.3-0.9 0.3-2.1 0.3-3-1.8-3-1.8-5.3-3.3-0.6-2.6-0.6-2.6-1.2-5.3 2-2.4 2-2.4 4.1-4.8 2.1-0.3 2.1-0.3 4.2-0.5 3.5 0.2 3.5 0.2 7.1 0.8 3.3 0.9 3.3 0.9 6.2 1.8 1.8 0.9 1.8 0.9 3.6 1.5zm-26.1-11c0.3-0.3 0.6-2.3 1.2-2.7 0 0 2.9 0 3.2 0 1.2 0.4 4.2 0.9 4.2 0.9 0 0 1.8 0.9 2.7 1.5 0.2 0.3 2.3 1.5 2.3 1.5-0.3 0.9-0.3 0.9-0.6 1.8-0.9 0.3-0.9 0.3-1.5 0.6-0.2 0.6-0.2 0.6-0.5 1.2-1.8-0.6-1.8-0.6-3.6-0.6 0 0-4.1-1.2-4.7-1.5 0.2-0.3-2.1-2.4-2.7-2.7zm151.3 91.2c-0.9 2.6-0.9 2.6-2.4 4.7 0.3 2.1 0.3 2.1 0.9 4.2-1.8-0.3-1.8-0.3-3.9-0.6-2.1-2.1-2.1-2.1-4.1-4.2-2.7-3-2.7-3-4.8-5.6 0 0-2.9-2.7-3.5-3.3-1.2-1.2-3.3-3.3-3.3-3.3-2.1-0.8-2.1-0.8-4.2-1.4 0.3 2 0.3 2 0.6 4.1 0.9 1.2 0.9 1.2 1.5 2.4 2.7 2.4 2.7 2.4 5.4 4.7 1.7 0.9 1.7 0.9 3.8 2.1 2.4 2.7 2.4 2.7 4.5 5.4 1.1 3.2 1.1 3.2 1.7 6.2 0 2.4 0 2.4 0.3 5-1.1 0-1.1 0-2.3-0.3-1.5-0.6-1.5-0.6-3-1.7-3.6-3.3-3.6-3.3-6.8-6.9-2.1-0.9-2.1-0.9-3.6-1.2 0.3 1.8 0.3 1.8 0.9 4.2 4.5 3.6 4.5 3.6 8.9 7.4-0.6 1.8-0.6 1.8-1.2 3.6-2.1-0.3-2.1-0.3-4.4-1.2 0 0-4.2-3.3-5.1-4.4-1.2-0.9-10.1-9.3-10.1-9.3-3.8-2.9-3.8-2.9-7.4-6.2-2.6-2.4-2.6-2.4-5.9-5-2.4-0.3-2.4-0.3-4.5 0 0 0-2.6 0.9-3.5 0.9-1.2-0.3-6.2-1.2-6.2-1.2-2.4-1.8-2.4-1.8-4.8-3.3-1.8-2.4-1.8-2.4-3.3-4.7 3-1.2 3-1.2 6.3-2.4 2.7 0.6 2.7 0.6 4.7 0.9 2.7 0.6 2.7 0.6 5.1 0.6 2.9 0 2.9 0 5.9-0.6 1.5-1.8 1.5-1.8 3-3.6-0.6-1.8-0.6-1.8-0.6-3.3-1.5-3.8-1.5-3.8-2.4-7.1-2.7-2.7-2.7-2.7-5-5-2.1-0.6-2.1-0.6-4.2-0.9-2.1-0.6-2.1-0.6-4.4-1.5-0.9-1.5-0.9-1.5-1.8-2.7 0 0 0-1.5 0-2.4 0.3-0.2-1.8-2.3-1.8-2.3-2.7-2.4-2.7-2.4-5.6-4.5-1.5-1.2-1.5-1.2-3.3-2.1-0.6 0-0.6 0-1.8 0-1.8 0-1.8 0-3.2 0.3-1.2 0.9-1.2 0.9-2.1 1.8-2.4-0.9-2.4-0.9-4.8-1.8-2-2-2-2-4.1-3.8-3.3-1.2-3.3-1.2-5.9-2.1-1.2 0-1.2 0-2.1 0.6-0.9 0.6-0.9 0.6-2.4 0.9-1.2 0.3-1.2 0.3-2.4 0.3-3.5-1.2-3.5-1.2-7.4-2.4-1.5-2.1-1.5-2.1-3.3-4.4 1.5-0.6 1.5-0.6 2.7-1.5-2.1-1.2-2.1-1.2-4.4-3-1.8-0.9-1.8-0.9-3.3-2.1-0.9-2.3-0.9-2.3-2.1-4.4-0.6-2.4-0.6-2.4-0.6-4.2 1.8-1.2 1.8-1.2 3-2.7 1.8-0.8 1.8-0.8 3.3-1.7 2.3-0.3 2.3-0.3 4.1-0.6 1.5 0.6 1.5 0.6 3 1.2 1.2 1.1 1.2 1.1 2.4 2-1.2 0.6-1.2 0.6-1.8 1.8-0.6 1.2-0.6 1.2-0.9 3 0.9 1.2 0.9 1.2 2.4 2.4 1.2 0.3 1.2 0.3 2.6 0.9 0 0 1.2-0.3 1.2-1.2-0.3-0.9-0.6-3.3-0.6-3.3 0.6-0.9 0.6-0.9 0.6-2.1 1.2-1.2 1.2-1.2 3-2.1 2.1 0.6 2.1 0.6 4.4 1.2 2.7 0.6 2.7 0.6 5.7 1.5 1.2 1.2 1.2 1.2 2.9 2.4 0.9 1.2 0.9 1.2 1.8 2.7-0.3 1.1-0.3 1.1-0.9 2.3 0 0.3 0 0.3-0.3 0.6-0.9 0.6-0.9 0.6-1.5 1.5 1.2 1.5 1.2 1.5 2.7 3.3 0.9-0.6 0.9-0.6 1.8-0.9 1.2-0.9 1.2-0.9 2.1-1.8 0.9-0.3 0.9-0.3 1.7-0.6 1.5 0.3 1.5 0.3 3.3 0.3 4.8 1.5 4.8 1.5 9.2 2.7 2.7 2.4 2.7 2.4 5.6 4.7 2.1 2.4 2.1 2.4 4.5 4.8 0 0 4.4 3.5 5.6 4.4 0.9 0.6 3.6 2.1 4.5 2.4 1.5 0.9 4.4 2.4 5.3 3 0.6 0.3 6.2 3.5 6.2 3.5 2.4 1.5 2.4 1.5 3.9 2.7 1.5 1.5 1.5 1.5 3 3 0.3 0.9 0.3 0.9 0.6 1.8-0.3 0.8-0.3 0.8-0.9 1.7-0.3 1.2-0.3 1.2-0.9 1.8 0.9 1.5 0.9 1.5 1.5 3 0 0 5.6 6.5 10 9.2 4.5 2.7 11 6.5 11 6.5 2.1 1.5 2.1 1.5 3.9 2.4 1.2 2.1 1.2 2.1 2.1 3.9zm-68.3-33c-1.5 0.3-1.5 0.3-2.3 0.9-0.6-0.3-0.6-0.3-1.5-0.6-2.1-1.2-2.1-1.2-3.9-2.4-1.5-2-1.5-2-2.9-4.1 1.1-1.8 1.1-1.8 2.3-3.3 3 0.9 3 0.9 5.4 1.5 1.2 1.8 1.2 1.8 2.3 3.6 0.3 2.3 0.3 2.3 0.6 4.4zm7.2 14c-2.1-0.3-2.1-0.3-4.2-0.6-1.5-2.4-1.5-2.4-2.4-4.5 0.3-2.1 0.3-2.1 0.9-4.1 1.2 0 1.2 0 2.4 0 2.1 1.1 2.1 1.1 3.8 2 1.2 0.9 1.2 0.9 2.4 1.8 0.6 1.5 0.6 1.5 1.2 3.3-1.2 0.6-1.2 0.6-2.1 1.8-1.2 0-1.2 0-2 0.3zm-99.1-42.8c2.7 1.8 2.7 1.8 5.6 3.3-1.5 2.1-1.5 2.1-2.4 4.1-1.4 1.2-1.4 1.2-2.9 2.4-3.6-1.2-3.6-1.2-7.7-2.1-1.8-0.6-1.8-0.6-3.6-0.9-0.3-2.9-0.3-2.9 0-5.9 3.3-0.9 3.3-0.9 6.2-1.8 2.4 0.3 2.4 0.3 4.8 0.9zm72.1 50.5c0.3 2.4 0.3 2.4 0.6 5-5.1 2.7-5.1 2.7-10.7 5.4-3-0.6-3-0.6-6-0.9-1.4-2.7-1.4-2.7-2.6-5.4-0.9-3.2-0.9-3.2-1.5-6.2 2.1-1.5 2.1-1.5 3.9-3 4.7 0.6 4.7 0.6 8.8 0.9 3.9 2.1 3.9 2.1 7.5 4.2zm144.4 157c0.3 2.1 0.3 2.1 0.6 3.9-2.1 2.1-2.1 2.1-3.9 4.4-2.6-2.3-2.6-2.3-5.3-5-2.4 0.3-2.4 0.3-4.7 0.6-2.1-5.1-2.1-5.1-4.2-9.5-2.1 0.6-2.1 0.6-4.4 0.9-2.4 0.6-2.4 0.6-4.8 0.9-0.9-5.7-0.9-5.7-1.5-11 2.7-3 2.7-3 6-5.4 0.9-3.8 0.9-3.8 1.5-7.4 2.3 1.2 2.3 1.2 5 2.7 0.9 2.4 0.9 2.4 1.8 4.4 3.5 2.1 3.5 2.1 7.1 3.9 1.2 3 1.2 3 2.4 5.9 0.3 2.4 0.3 2.4 0.9 5.4 1.7 2.6 1.7 2.6 3.5 5.3zm-108.3 213.2c-5.3 1.7-5.3 1.7-10.9 3.8-1.5 1.8-1.5 1.8-2.7 3.3 1.2 3.3 1.2 3.3 2.7 6.2-2.4 2.7-2.4 2.7-4.8 5.4-4.7-1.2-4.7-1.2-9.5-2.1-1.2-3.6-1.2-3.6-2.3-7.4 4.1-1.5 4.1-1.5 8.3-3-0.9-2.4-0.9-2.4-1.8-4.5-1.5-5-1.5-5-2.7-10.1-4.4-3.5-4.4-3.5-8.6-7.1-7.4-3.2-7.4-3.2-15.1-7.1-3.9 0.6-3.9 0.6-8 0.6-2.7 1.8-2.7 1.8-5.6 3.3-2.7 0.6-2.7 0.6-5.4 1.1-0.6-2-0.6-2-1.5-3.8 6.3-4.2 6.3-4.2 12.5-8.3 7.1 1.2 7.1 1.2 14.2 2.3 6 1.8 6 1.8 11.6 3.6 5.3 3 5.3 3 10.4 6.5 5.6 2.4 5.6 2.4 11.5 4.5 3.9 2.4 3.9 2.4 7.5 4.4 0.2 4.2 0.2 4.2 0.2 8.4zm51.4 9.5c-1.8 4.1-1.8 4.1-3.9 8-3.3-0.6-3.3-0.6-6.5-0.9-2.1-1.8-2.1-1.8-4.5-3.3-1.5 1.2-1.5 1.2-2.9 2.1-3.9 1.2-3.9 1.2-8 2.1-8.9-0.3-8.9-0.3-18.1-0.6-4.5-1.2-4.5-1.2-8.9-1.8-1.2-0.6-2.7-5.3-2.7-5.3 3-2.4 3-2.4 6.2-4.2 4.5 0.9 4.5 0.9 8.9 1.5-1.8-3.3-1.8-3.3-3.8-7.1 2.6-3 2.6-3 5.6-6 4.4 1.2 4.4 1.2 8.6 2.7 3 3.3 3 3.3 5.6 6.5 3.9 2.4 3.9 2.4 7.5 4.5 2 0.6 2 0.6 4.1 1.5 2.4-1.5 2.4-1.5 4.8-2.4 2.6 0 2.6 0 5.3 0 1.2 1.5 1.2 1.5 2.7 2.7zm-510.8-323c-2.1 0.3-2.1 0.3-3.6 0.3 0-3.3 0-3.3 0-6.3 3.3-3.5 3.3-3.5 6.9-7.1 4.7 0.9 4.7 0.9 10.1 1.5-2.4 3.3-2.4 3.3-4.5 6.2-4.1 2.7-4.1 2.7-8.9 5.4z"/>
		</g>
	</g>
</svg>