<svg version="1.2" xmlns="http://www.w3.org/2000/svg" viewBox="0 0 1114 1114">
	<title>g8</title>
	<style>
		.s0 { fill: #292524 } 
	</style>
	<g id="g8">
		<g id="g10">
			<path id="path14" fill-rule="evenodd" class="s0" d="m1113.5 557.3c0 75.1-14.7 148-43.7 216.7-28.1 66.3-68.2 125.8-119.2 176.9-105.1 105.3-244.9 163.2-393.5 163.2-75.1 0-148-14.7-216.6-43.8-66.3-28-125.8-68.2-177-119.4-51.1-51.1-91.2-110.6-119.3-176.9-29-68.7-43.7-141.6-43.7-216.7 0-75.2 14.7-148.1 43.7-216.8 28.1-66.4 68.2-125.9 119.3-177.1 51.2-51.2 110.7-91.3 177-119.4 68.6-29.1 141.5-43.8 216.6-43.8 148.7 0 288.4 58 393.5 163.2 51.1 51.2 91.2 110.7 119.2 177.1 29 68.7 43.7 141.6 43.7 216.8zm-55.2 152.9q0-0.2 0.1-0.6 0.2-0.5 0.3-0.8c0.8-2.6 1.6-5.2 2.3-7.7-0.5 0.5-0.7 0.7-1.4 1.7-0.6 1.5-0.6 1.5-1.5 3.5-0.6 0.3-0.6 0.3-1.5 1.2-0.6-2.4-0.6-2.4-1.2-4.1-0.3-3-0.3-3-0.6-5.7-0.6-1.8-0.6-1.8-0.9-3.5-0.8-2.7-0.8-2.7-1.7-5.7-0.6-3.8-0.6-3.8-1.5-7.7-0.6-1.8-0.6-1.8-1.5-3.6 0.3-2.6 0.3-2.6 0.3-5-0.3-1.8-0.3-1.8-0.9-3.6-0.9-5.3-0.9-5.3-2.1-10.1-1.2-1.2-1.2-1.2-2.3-2.6-1.2-2.1-1.2-2.1-2.4-4.5-1.2-0.6-1.2-0.6-2.7-1.5-0.6-2.6-0.6-2.6-1.2-4.7 1.8-1.2 1.8-1.2 3-1.8 0 0 2.1 0.6 2.4 0.9 0.6 0 2.3 0.3 2.3 0.3 0.9 1.8 0.9 1.8 1.5 3.3 0.9 1.1 0.9 1.1 1.8 2 1.2 0.6 1.2 0.6 2.4 0.9 0.6 1.2 0.6 1.2 1.5 1.8 0.6 2.1 0.6 2.1 1.4 4.5 0.3 1.4 0.3 1.4 0.9 3.2 0 0 2.4 2.1 3 2.7 0.3 0 1.8 2.4 1.8 2.4 0 2.3 0 2.3 0 4.4 0 2.7 0 2.7 0 5.7 0.3 2.3 0.3 2.3 0.6 4.4 0.3 1.8 0.3 1.8 0.9 3.6 0.6 0 0.6 0 1.1 0.3 0.3 2.1 0.3 2.1 0.3 3.8 0.3 0.9 0.3 0.9 0 2.7-0.3 1.5-0.3 1.5-0.5 3-0.3 2.6-0.3 2.6-0.9 5.6 0 0.4 0 0.5 0 0.9q1.9-7 3.7-13.9c-0.5-0.1-0.5-0.1-1.1-0.4-0.3-0.5-0.3-0.5-0.3-1.1-0.3-0.9-0.3-0.9-0.6-1.8-0.3-0.9-0.3-0.9-0.3-2.1 0.3-1.5 0.3-1.5 0.6-3 0.9-0.3 0.9-0.3 1.8-0.9l0.6 1.8c0 0.6 0.3 2.4 0.3 2.4q0.1 0.2 0.1 0.3c9.7-39.7 14.8-81.2 14.8-123.8 0-6.8-0.1-13.5-0.4-20.2-0.9 1.9-1.1 2.3-2.3 4.5-0.6-2.7-0.6-2.7-0.9-5.7-0.9-1.2-0.9-1.2-1.8-1.4-0.3 2.9-0.3 2.9-0.6 6.5-1.5 2.1-1.5 2.1-3 4.4 0 0-1.1 0.9-1.1 4.2 0.2 3.5 2.6 10.7 2.6 10.7 2.4 6.8 2.4 6.8 4.8 13.6 0.6 6.3 0.6 6.3 1.2 13.1-1.2 6.8-1.2 6.8-2.4 13.9-1.8 4.5-1.8 4.5-3.9 9.6-1.5 3.5-1.5 3.5-2.9 7.7-1.5 0.3-1.5 0.3-2.7 0.6 0-3.6 0-3.6 0.3-7.8-0.6-3.2-0.6-3.2-1.2-6.2 0 0-2.4 2.4-2.7 0.3 0-1.8-0.3-2.1-0.3-5.3 0.3-2.4 0-8.1-0.9-8.1-1.1-0.2-4.7 1.2-4.7 1.2 0 0-0.9 8-0.9 9.8 0 2.1 2.1 11.6 2.1 11.6 0 3 0 3 0 5.9 0.9 1.8 0.9 1.8 1.2 3.9 1.8 1.2 1.8 1.2 2.9 2.4 0.9 3.2 0.9 3.2 1.5 5.9 0.6 4.8 0.6 4.8 1.2 9.5-0.6 5.4-0.6 5.4-1.2 9.8-0.3 3.6-0.3 3.6-0.9 7.1-1.2 1.5-1.2 1.5-2.3 3-0.9-0.9-0.9-0.9-1.8-1.5-0.9-3-0.9-3-1.8-5.6-1.5-3.9-1.5-3.9-2.7-8.3 0-6.3 0-6.3-0.3-12.5 0.3-5 0.3-5 0.6-10.1-0.3-3.6-0.3-3.6-0.3-7.1-1.7-4.2-1.7-4.2-3.2-8.3-1.2-4.5-1.2-4.5-2.1-9.2 0-3.9 0-3.9 0.3-8.1-1.2-2.9-1.2-2.9-2.4-5.9 0.6-4.4 0.6-4.4 1.2-8.9 0-4.4 0-4.4 0-9.2-1.2-3-1.2-3-2.4-5.9-0.9 3.8-0.9 3.8-2.1 7.7-1.4 1.8-1.4 1.8-3.5 4.1-1.2-2.3-1.2-2.3-2.4-4.7 0 0-0.9-6.8-0.9-8.3 0-0.9-0.9-9.5-0.9-9.5-1.7-4.5-1.7-4.5-3.5-8-1.8-4.5-1.8-4.5-3.6-8.6-0.9-4.5-0.9-4.5-2.1-9.2-0.3-3-0.3-3-0.5-5.7-1.5 0-1.5 0-3.3 0.3 0 0-1.8 4.8-1.8 5.6 0 1.5-1.2 7.8-1.2 7.8-2.1 0-2.1 0-4.4-0.3-1.8 0-1.8 0-3.9 0-0.3 2.3-0.3 2.3-0.6 5.3-0.6 2.1-0.6 2.1-1.2 5.1-1.7 3.5-1.7 3.5-3.5 6.8 0 0-3.9 2.7-4.5 3.5-0.9 0.9-2.6 5.4-3.5 6.6-0.9 1.5-3.3 1.5-3.3 1.5-1.2 1.7-1.2 1.7-2.1 3.8 0 0-0.9 3.6-1.2 4.5-0.5 0.9-2 2.4-3.2 3-1.5 0.5-5.4 3.5-5.4 3.5-0.5 4.8-0.5 4.8-1.1 9.2 0.3 4.5 0.3 4.5 0.8 9.2 0 4.8 0 4.8 0 9.8-0.5 4.5-0.5 4.5-1.1 8.6-0.3 2.7-0.3 2.7-0.6 5.7-3 4.1-3 4.1-6.3 8.9-1.7 2.6-1.7 2.6-3.2 5.3-1.8-1.5-1.8-1.5-3.6-2.7 0 0-1.5-6.2-1.5-7.4-0.3-1.8-3.2-16-3.2-16-2.4-5.4-2.4-5.4-4.8-11 0 0-2.6-9.5-3.8-12.8-0.9-3.2-5.1-11.5-5.1-11.5-0.6-9.5-0.6-9.5-1.2-18.4-0.3-6-0.3-6-0.3-11.9 0-4.8 0-4.8 0-8.9-1.4-1.2-1.4-1.2-3.2-2.1-0.9 1.5-0.9 1.5-1.8 3.6-2.4 1.1-2.4 1.1-4.7 2.9 0 0-7.2-0.3-7.8-1.8-0.6-2-3.2-5.6-3.2-5.6-0.3-2.1-0.3-2.1-0.9-4.2-0.3-2.3-0.3-2.3-0.6-4.4-1.8-2.7-1.8-2.7-3.6-5.3-2.3-2.1-2.3-2.1-4.4-3.9-2.4-1.8-2.4-1.8-5.1-4.2-0.5-2-0.5-2-1.1-4.4-0.9-0.6-0.9-0.6-1.5-1.2-3 0-3 0-6 0-2.9 0.9-2.9 0.9-5.9 1.8-2.4-3-2.4-3-5-6.3-1.8-1.1-1.8-1.1-3.6-2.6-0.9 2.9-0.9 2.9-1.8 5.6-5.3 0-5.3 0-10.6 0-5.4 0-5.4 0-10.4 0.3-3.3-2.4-3.3-2.4-6.5-4.7 0 0-2.4-6-3.3-7.5-0.9-1.4-1.8-3.8-3.6-4.1-1.8-0.6-4.4 0.9-4.4 0.9-2.4 0.6-2.4 0.6-4.8 0.9-6.2 0.3-6.2 0.3-12.4 0 0 0-5.1-3-6-4.2-0.9-1.5-6.8-9.2-6.8-9.2 0 0-3.5-1.2-3.8-4.4 0-3.3 0.9-6-0.3-7.2-1.2-1.2-4.5-3.5-4.5-3.5-1.2 1.2-1.2 1.2-2.1 2.3-1.7-0.5-1.7-0.5-3.5-1.7-1.5-0.9-1.5-0.9-3-1.8-1.8 1.5-1.8 1.5-3.5 2.6 0.6 3 0.6 3 1.1 6 3.6 3.6 3.6 3.6 6.9 7.1 2.6 4.8 2.6 4.8 5.3 9.5 2.7 4.2 2.7 4.2 5.3 8.3 3.3 2.4 3.3 2.4 6.6 4.2 1.4 4.4 1.4 4.4 2.6 8.6 1.2 2.1 1.2 2.1 2.4 3.9 2.7 1.1 2.7 1.1 5.6 2.6 0 0 3 1.5 5.1 0.9 1.8-0.9 6.2-1.2 7.7-3.3 1.2-2 5.3-6.8 6.2-6.8 1.2-0.3 4.2 3.3 4.2 3.3 1.2 2.1 1.2 2.1 1.8 4.1 3.2 2.4 3.2 2.4 6.2 4.5 2.4 0.6 2.4 0.6 4.7 1.2 3 3.2 3 3.2 6 6.5 0.6 4.8 0.6 4.8 1.2 9.8-2.4 4.2-2.4 4.2-5.1 8.3 0 0-3 3-3 4.5-0.2 1.2-1.4 11.6-1.4 11.6-9.2 5.6-9.2 5.6-18.4 11.2-2.7 3.9-2.7 3.9-5.4 7.2-4.4 0.8-4.4 0.8-8.9 2-1.5 4.5-1.5 4.5-3.2 8.9-4.2 0.9-4.2 0.9-8.6 1.5-4.2 1.8-4.2 1.8-8.6 3.6-7.4 0-7.4 0-14.9 0.3-4.7 5.9-4.7 5.9-9.8 11.9-5.3 2-5.3 2-10.6 4.1-3.3-5.6-3.3-5.6-6.6-11 0 0 1.8-11.5 0.3-14.5-1.4-2.7-6.5-9.5-7.7-12.2-0.9-3-3.5-10.7-3.5-10.7-8.3-14.2-8.3-14.2-16.6-28.8-3.3-8.9-3.3-8.9-6.9-18.1-7.4-9.2-7.4-9.2-14.8-18.1 0.3-6.2 0.3-6.2 0.6-12.5-5-3.5-5-3.5-10.1-7.1-3.8-0.3-3.8-0.3-8-0.9-3-5.3-3-5.3-5.9-11-3.9-1.7-3.9-1.7-7.7-3.2-0.3 3.5-0.3 3.5-0.3 6.8 3.5 6.2 3.5 6.2 7.4 12.5 7.1 5.3 7.1 5.3 14.2 10.4 3 7.7 3 7.7 6.2 15.7-0.5 6.5-0.5 6.5-1.4 12.8 3.5 5.3 3.5 5.3 6.8 10.6 3.2 3.3 3.2 3.3 6.2 6.6 0.9 4.1 0.9 4.1 1.8 8.3 2.7 6.8 2.7 6.8 5.3 13.7 5.1 7.4 5.1 7.4 10.1 15.4 1.2 5.9 1.2 5.9 2.7 11.6 4.4 2 4.4 2 9.2 3.8 2.7 6 2.7 6 5.6 11.6 0 0 1.5 8.9 2.1 11.3 0.3 2.4 5.3 9.8 5.3 9.8 9.5 3.2 9.5 3.2 18.7 6.8 4.8-1.8 4.8-1.8 9.5-3.6 0 0 6.5-2.9 9.2-3.2 2.4 0 11-7.4 11-7.4 2.7 0 2.7 0 5.6 0.3 0.9 2.9 0.9 2.9 2.1 5.9-2.4 6.8-2.4 6.8-4.4 13.3-5.7 11.9-5.7 11.9-11.6 24.4-1.2 5.6-1.2 5.6-2.4 11.6-3.6 4.7-3.6 4.7-7.1 9.8-6.8 8-6.8 8-13.9 16.3-6.9 4.7-6.9 4.7-13.4 9.5-5.3 8.6-5.3 8.6-11 17.2 0 0-9.8 9.2-10.6 11.6-0.6 2.1-4.5 8.9-4.5 8.9-0.3 5.3-0.3 5.3-0.9 10.7-1.5 2.6-1.5 2.6-2.7 5.3 2.4 4.5 2.4 4.5 4.8 9.2-0.9 5.1-0.9 5.1-1.5 10.4 0.9 5.1 0.9 5.1 1.8 10.1 0.6 1.8 0.6 1.8 1.2 3.3 0.6 15.1 0.6 15.1 0.9 30-3.3 4.1-3.3 4.1-6.6 8-2 3.2-2 3.2-4.1 6.5-4.5 0.9-4.5 0.9-8.9 1.5-3.9 3.9-3.9 3.9-8 7.7-1.8 3.9-1.8 3.9-3.6 8-3.3 0.3-3.3 0.3-6.8 1.2-0.6 0.9-0.6 0.9-1.2 1.8-1.8 5.6-1.8 5.6-3.6 11.3 0.3 3.8 0.3 3.8 0.6 7.7 0 4.4 0 4.4 0 8.6-1.1 4.8-1.1 4.8-2.6 9.8-3.3 2.4-3.3 2.4-6.3 4.4-2.9 0.3-2.9 0.3-5.9 0.3-0.9 3.3-0.9 3.3-2.1 6.6-0.9 3.8-0.9 3.8-1.4 7.7-0.9 3-0.9 3-2.1 6.2-3.9 1.5-3.9 1.5-7.7 3-1.8 3.3-1.8 3.3-3.6 6.5-0.3 2.7-0.3 2.7-0.9 5.7-7.7 3.5-7.7 3.5-15.1 7.1-3 3.9-3 3.9-5.6 8-2.7 1.2-2.7 1.2-5.4 2.4 0 0-6.5-0.3-7.7 0.6-0.9 0.6-6.5 5-6.5 5-3.9-0.3-3.9-0.3-8-0.6 0 0-1.5-2.1-3.6-1.7-2.1 0.2-8.3 2-8.3 2-4.1 3.3-4.1 3.3-8.3 6.3 0 0-9.8 0.3-10.4-0.6-0.3-0.9-4.7-4.5-4.7-5.4 0.3-1.2 1.2-7.1 1.2-7.1 0-2.7 0-2.7 0.5-5.6-2-1.8-2-1.8-4.7-3.6-0.9-2.4-0.9-2.4-1.8-4.8-1.8-1.7-1.8-1.7-3.8-3.8-0.6-3.9-0.6-3.9-1.8-7.7-2.1-2.7-2.1-2.7-4.2-5.7-2-1.2-2-1.2-4.7-2.6-1.2-4.5-1.2-4.5-3-8.6 0 0-0.3-13.1 0-14 0.3-1.2 0.9-8.6 1.2-9.8-0.3-0.9-7.4-13.7-7.4-13.7-5-6.2-5-6.2-10.1-12.4-0.9-1.2-0.9-1.2-1.8-2.7 0.3-10.1 0.3-10.1 0.6-20.2 0.9-5.3 0.9-5.3 1.8-10.7 2.7-4.4 2.7-4.4 5-8.9 3.6-3.5 3.6-3.5 7.2-7.1 0.9-3.6 0.9-3.6 2-6.8-1.4-4.2-1.4-4.2-2.9-8.6-1.8-4.8-1.8-4.8-3.9-9.8-1.5-3.9-1.5-3.9-3.2-7.7-2.1-5.7-2.1-5.7-4.5-11 0 0 1.5-6.9 1.5-7.8 0-1.1-4.5-8-4.5-8-3.5-2.6-3.5-2.6-6.8-5.3-2.4-2.7-2.4-2.7-4.7-5.7-3-5-3-5-6-10.3-1.1-4.5-1.1-4.5-2.3-8.7 2.6-2.3 2.6-2.3 5-4.4-0.3-5.6-0.3-5.6-0.6-11 0-4.7 0-4.7 0.3-9.5 0 0 4.2-2.7 4.2-3.9 0-1.1-7.5-7.7-7.5-7.7-4.1 0-4.1 0-8.3 0-5.3 0-5.3 0-10.6-0.3-2.1-2.3-2.1-2.3-4.5-4.7-1.8-2.7-1.8-2.7-3.5-5.4-0.6-3.5-0.6-3.5-1.2-7.1-3-2.1-3-2.1-6-4.1-2.6-0.3-2.6-0.3-5-0.3 0 0-4.2 1.8-5.3 2-1.2 0.3-10.7 2.1-12.2 3-1.2 0.9-6.2 1.2-7.4 3-0.9 1.5-4.5 3.5-5.6 4.4-1.2 0.9-2.4 2.1-4.2 2.1-1.8 0-5.6-0.3-7.1-0.6-1.2-0.3-18.1-2.9-18.1-2.9-2.7 0-2.7 0-5.1 0 0 0-7.4 0.5-7.1 2.3 0 1.8 0.6 3.3-1.2 4.8-1.7 1.8-2.3 3.8-5.3 3.5-3.3-0.3-3-0.3-4.5-0.9-1.7-0.8-5-0.8-5.6-2.3-0.3-1.2-6.5-8.9-6.5-8.9-5.1-7.5-5.1-7.5-10.1-14.9-6.2-5.9-6.2-5.9-12.5-11.6 0 0-6.2-7.1-6.8-8.3-0.6-1.2-2.7-3.5-2.9-5-0.6-1.8-2.1-7.4-2.1-7.4 0 0-0.9-3.6-2.1-4.5-1.5-0.6-7.7-3-7.7-3-0.9-3.5-0.9-3.5-1.8-7.4 0.9-2.6 0.9-2.6 1.8-5.3 1.8-0.9 1.8-0.9 3.5-2.1-4.1-4.2-4.1-4.2-8-8-0.3-3-0.3-3-0.8-6 3.2-1.7 3.2-1.7 6.2-3.5 1.8-3.3 1.8-3.3 3.2-6.3 0 0 0.9-10.6 0.9-12.4 0-1.8-2-11-2-11-0.3-11.3-0.3-11.3-0.6-22.6 1.1-4.1 1.1-4.1 2-8.3 3.9-10.1 3.9-10.1 7.7-20.2 2.7-4.4 2.7-4.4 5.7-8.6 3.3-5.9 3.3-5.9 6.8-12.1 4.8-1.5 4.8-1.5 10.1-3.3 4.7-5.9 4.7-5.9 9.5-11.9 2.4-7.4 2.4-7.4 4.7-15.1-0.3-6.5-0.3-6.5-0.6-13.1 5.1-4.4 5.1-4.4 10.1-8.9 3.9 0.9 3.9 0.9 8 1.5 3-4.5 3-4.5 5.4-8.9 4.1-3.6 4.1-3.6 8.3-7.1 3.8 0.9 3.8 0.9 7.7 1.8 5.6 1.1 5.6 1.1 11.3 2.6 3.2-4.1 3.2-4.1 6.5-8 5-0.9 5-0.9 10.4-1.5 2-2.1 2-2.1 4.4-4.4 10.4-0.9 10.4-0.9 21.1-2.1 3.8-3 3.8-3 8-5.6 6.5 2 6.5 2 13.3 4.1 0 0 5.1-0.3 8.9-1.2 3.6-0.9 9.2-4.4 9.2-4.4 6.6 3.5 6.6 3.5 13.1 7.1 0 5 0 5 0 10.1-3 3.8-3 3.8-5.7 7.7 0 0 0.6 5.9 3.3 8 2.4 2.1 12.2 6.8 12.2 6.8 5.3 0 5.3 0 10.9 0 3 3 3 3 6 5.7 2 1.8 2 1.8 3.8 3.5 4.5 1.5 4.5 1.5 8.9 3 3.9 1.5 3.9 1.5 7.4 3.3 4.2 1.5 4.2 1.5 8.3 3.2 5.1-0.8 5.1-0.8 10.1-2 0.3-7.7 0.3-7.7 0.9-15.5 5.4-1.2 5.4-1.2 10.7-2.3 5.6 3.5 5.6 3.5 11.3 6.8 5 0 5 0 10-0.3 1.2 3.6 1.2 3.6 2.4 7.1 8-0.9 8-0.9 16-1.5 2.7 3.9 2.7 3.9 5.4 7.7 5.3-1.4 5.3-1.4 10.4-3.2 0 0 6.2-4.2 9.8-3.3 3.5 0.9 8 2.7 8 2.7 0 0 2.6 0.3 8-3.6 5.3-3.8 8-9.2 8-9.2 0 0 1.5-8.6 1.2-14.8-0.3-6.3-1.8-12.5-1.8-12.5-5.1-2.1-5.1-2.1-9.8-4.1-3.6 0.3-3.6 0.3-7.1 0.8-3.6 0-3.6 0-7.1 0-3.3-2-3.3-2-6.9-4.4-3.8 2.1-3.8 2.1-8 4.1-5.9-4.1-5.9-4.1-12.1-8.3-6.9-8.3-6.9-8.3-13.7-16.6 6.5-8.3 6.5-8.3 13.1-16.6 0.9-2.4 0.9-2.4 1.8-4.8 7.1 0.9 7.1 0.9 14.2 2.1 5.6-3.2 5.6-3.2 11.6-6.2 6.8-0.9 6.8-0.9 13.6-2.1 6.5 4.5 6.5 4.5 13 8.6 4.2 2.4 4.2 2.4 8.1 4.8 5.3 0.3 5.3 0.3 10.3 0.3 4.8 0 4.8 0 9.5-0.3 0 0 5.7-4.5 6-6.3-0.3-1.8 0-5.9-0.6-7.1-0.6-1.2-6.6-6.5-6.6-6.5-4.7-1.2-4.7-1.2-8.9-2.4-3.2-2.4-3.2-2.4-6.5-4.5-2.3-3.5-2.3-3.5-4.4-6.8-3-1.5-3-1.5-6-2.9-2-2.4-2-2.4-4.1-5.1 3-2.7 3-2.7 5.6-5 0 0 0.9-1.2 3-1.5 2.1-0.6 4.4-1.8 4.4-1.8-2-3-2-3-3.8-5.6-2.1 0.2-2.1 0.2-3.6 0.8-2.9 0.9-2.9 0.9-5.9 1.5-3.6 0.9-3.6 0.9-7.4 1.5-2.7 1.5-2.7 1.5-5.1 3.3-1.4 1.5-1.4 1.5-3.2 2.9 0.6 2.4 0.6 2.4 1.5 4.8 4.7 1.2 4.7 1.2 9.7 2.4-0.3 2-0.3 2-0.3 4.1-5.9 2.1-5.9 2.1-11.8 3.9-5.4 0.3-5.4 0.3-10.7 0.9-1.5-1.5-1.5-1.5-3-2.7 0-2.4 0-2.4 0-5 3.9-2.1 3.9-2.1 7.8-4.2-1.5-2.7-1.5-2.7-3.6-5.6-1.8-1.2-1.8-1.2-3.9-2.4-0.3-2.7-0.3-2.7-0.6-5.7-1.7-0.9-1.7-0.9-3.8-1.7-0.9 0.3-0.9 0.3-2.4 0.3-1.5 2.9-1.5 2.9-3 5.6 0 0-0.3 5.9-0.8 8-0.3 2.1-2.4 5.1-2.4 5.1-3.6 0.3-3.6 0.3-7.4 0.3 0 0-2.4 2-3 3.2-0.6 1.2-2.4 4.2-2.4 4.2 0 0 0.3 4.1 0.3 5.9 0.3 2.1 0.3 4.8 0.3 4.8-2.1 2-2.1 2-4.1 3.8-0.3 3.3-0.3 3.3-0.3 6.6 0.6 3.8 0.6 3.8 1.5 8-3 0.9-3 0.9-6 2-3.5-1.1-3.5-1.1-7.1-2-2.4 0-2.4 0-5-0.3-1.5 2.3-1.5 2.3-3.3 4.7-2.1 1.5-2.1 1.5-4.4 3-0.3 1.8-0.3 1.8-0.9 3.8 4.4 3.3 4.4 3.3 8.9 6.9-1.2 1.8-1.2 1.8-2.1 3.8 0 0-3.9 2.4-3.9 4.2 0 1.5 0 4.7 0 4.7-1.5 0.9-1.5 0.9-2.6 1.8-3 0-3 0-5.7 0-3.2-1.8-3.2-1.8-6.2-3.5-1.2-4.8-1.2-4.8-2.4-9.5-1.2-3.6-1.2-3.6-2.3-6.9 0 0-5.4-6.5-5.7-7.7 0-1.5-2.7-8.3-2.7-8.3-2.6-1.2-2.6-1.2-5-2.1 0.3-3.2 0.3-3.2 0.3-6.2-3.6-3.9-3.6-3.9-7.1-7.7-2.7-2.1-2.7-2.1-5.4-4.5 0 0-5-1.8-6.5-2.4-1.2-0.2-3.3-1.1-4.4-2.6-0.6-1.5-2.7-4.5-2.7-4.5-2.4-2.3-2.4-2.3-4.4-4.7-0.6-2.4-0.6-2.4-1.2-4.8-0.9-1.8-0.9-1.8-2.1-3.8-2.4-0.6-2.4-0.6-4.8-1.5-2.3 0-2.3 0-4.1 0-0.6 2.4-0.6 2.4-1.2 4.7-0.3 2.1-0.3 2.1-0.3 4.5 0 0 2.4 5.3 4.2 7.7 1.7 2.4 10.3 13.1 10.3 13.1 1.5 2.6 1.5 2.6 3 5 3.6 0.9 3.6 0.9 7.4 1.8 2.1 0.3 2.1 0.3 4.2 0.3 2 2.1 2 2.1 3.8 3.8 0 0 3.9 2.7 5.1 4.2 0.9 1.5 6.8 8.9 6.8 8.9-0.6 2.4-0.6 2.4-1.2 4.8-2.4 0-2.4 0-4.4 0-1.5-0.9-1.5-0.9-3-1.5-1.5 0.3-1.5 0.3-3 0.6 0.3 1.8 0.3 1.8 0.6 3.2-0.6 2.7-0.6 2.7-1.2 5.1-0.9 0.9-0.9 0.9-2 2.1-2.7 0.8-2.7 0.8-5.4 1.7-0.9 3.3-0.9 3.3-1.5 6.6-0.6 1.5-0.6 1.5-1.4 3.2-2.1-0.3-2.1-0.3-4.2-0.6-2.4-0.5-2.4-0.5-5-1.1-2.1-1.5-2.1-1.5-4.5-3-0.9-2.1-0.9-2.1-1.5-4.5 4.2-0.3 4.2-0.3 8.6-0.3 0 0 4.8-0.9 5.7-2.6 0.5-1.8 0.5-2.1 1.4-3.9 0.9-1.5 0.3-5.9 0.3-5.9-3.2-3.3-3.2-3.3-6.5-6.3-2.1-3.5-2.1-3.5-3.8-6.8-3-1.2-3-1.2-6-2.7-3.2-1.2-3.2-1.2-6.5-2.3-3.6-4.2-3.6-4.2-7.4-8.7-2.7-1.7-2.7-1.7-5.4-3.8-0.6-3.6-0.6-3.6-1.4-7.1-2.4-2.1-2.4-2.1-4.8-3.9-1.8 0.3-1.8 0.3-3.8 0.9 0 0-0.3 2.1-5.4 2.7-5 0.6-5.9 1.8-5.9 1.8-1.2 3.5-1.2 3.5-2.7 6.8-2.6-1.5-2.6-1.5-5.6-3-1.5-2.1-1.5-2.1-3.3-4.1-5.3 0.8-5.3 0.8-10.9 1.7-3 2.1-3 2.1-5.7 4.2 0.3 3.8 0.3 3.8 0.6 7.7-5.6 6.2-5.6 6.2-11 12.5-6.8 3.8-6.8 3.8-13.9 7.7 0.6 3.9 0.6 3.9 0.6 7.7 1.5 0.6 1.5 0.6 2.6 1.2 0 3 0 3 0 5.9-1.1 1.8-1.1 1.8-2.3 3.6-3.3 1.8-3.3 1.8-6.3 3.3-1.1 3.5-1.1 3.5-2 7.1-3.3 0.6-3.3 0.6-6.8 0.9-4.8-0.9-4.8-0.9-9.5-2.1-4.2 1.8-4.2 1.8-8.3 3.6-2.7 0.3-2.7 0.3-5.4 0.9-1.8-3-1.8-3-3.2-6 0 0-3.9-1.2-5.7-0.9-2.1 0.3-6.5 0.9-6.5 0.9-4.2-1.8-4.2-1.8-8-3.8-0.3-3-0.3-3-0.6-6-2.7-2.9-2.7-2.9-5-5.9 0 0-0.9-5.9 0.5-6.5 1.5-0.6 6-3.3 6-3.3 0 0 2.1-5.9 2.1-7.1 0-1.2 0-6.3 0-6.3 1.4-2.6 1.4-2.6 2.9-5.3-0.9-3-0.9-3-1.8-6.2 1.2-3.6 1.2-3.6 2.4-7.2 3.3-2.3 3.3-2.3 6.5-4.7 5.1-0.3 5.1-0.3 9.8-0.6 0 0 10.1 5.3 11 5.9 1.2 0.6 4.7 1.8 7.1 1.8 1.8 0.3 9.8-0.9 9.8-0.9 1.2-3.8 1.2-3.8 2.4-7.4-0.3-3.9-0.3-3.9 0-8 0.6-2.4 0.6-2.4 1.2-4.5 0.6-1.5 0.6-1.5 1.1-2.6-1.1-3.6-1.1-3.6-2.3-7.2-1.2-2.9-1.2-2.9-2.4-5.9-3-1.5-3-1.5-6.2-2.7-4.2-0.6-4.2-0.6-8-1.5 0.3-2.9 0.3-2.9 0.6-5.9 6.2-0.9 6.2-0.9 12.4-1.8 2.7-2.1 2.7-2.1 5.1-4.1-0.3-2.7-0.3-2.7-0.3-5.4 2.6-0.6 2.6-0.6 5.3-1.5 1.5 1.5 1.5 1.5 3 2.7 2.6-0.9 2.6-0.9 5.6-1.8 4.5-2.9 4.5-2.9 8.9-6.2 2.1-3.6 2.1-3.6 3.9-7.1 5.9-0.3 5.9-0.3 11.5-0.6 1.5-5.4 1.5-5.4 2.7-10.7 3.8-1.2 3.8-1.2 7.7-2.4 1.5-1.8 1.5-1.8 3-3.3 4.4-1.1 4.4-1.1 9.2-2.3 3.5-0.6 3.5-0.6 7.1-1.2 0.9-3 0.9-3 1.5-6-0.6-3.5-0.6-3.5-1.5-7.4-3.6-2.3-3.6-2.3-7.4-5 0.3-3.6 0.3-3.6 0.6-7.1 5.3-1.2 5.3-1.2 10.4-2.4 0.2-2.7 0.2-2.7 0.8-5.1-2-1.2-2-1.2-4.1-2.1 1.2-1.7 1.2-1.7 2.7-3.5 2.6-0.6 2.6-0.6 5.3-1.2 1.5 1.8 1.5 1.8 3 3.6 0 1.5 0 1.5-0.3 2.9 1.7 2.1 1.7 2.1 3.8 4.5 0 0-1.2 4.4-1.2 5.3 0 0.9-5 5.7-5 5.7-0.3 2.3-0.3 2.3-0.3 4.7 2.1 3 2.1 3 3.9 6 1.7 2 1.7 2 3.5 4.4 3.9 0 3.9 0 7.4 0 2.7-1.2 2.7-1.2 5.4-2.1 2.6 0.6 2.6 0.6 5.3 1.2 3.6-0.9 3.6-0.9 7.4-2.1 4.5-2.6 4.5-2.6 8.6-5.3 2.7 0.6 2.7 0.6 5.4 0.9 2.3 1.2 2.3 1.2 4.7 2.7 4.2 0.9 4.2 0.9 7.7 1.4 2.7-2.6 2.7-2.6 5.1-5.3 1.7-5 1.7-5 3.5-10.4 0.6-2.7 0.6-2.7 1.5-5.6-0.9-3-0.9-3-1.5-6.3 2.1-2 2.1-2 4.2-4.4 2.6 1.8 2.6 1.8 5 3.5 1.5 1.5 1.5 1.5 3 3.3 2.9 0.3 2.9 0.3 5.6 0.6 0.9-2.7 0.9-2.7 1.8-5-3-1.8-3-1.8-6.2-3.9-0.9-1.8-0.9-1.8-2.1-3.9 3.3-2 3.3-2 6.2-4.1 3.3-1.5 3.3-1.5 6.8-3.3 3 0.3 3 0.3 5.4 0.9 1.5 1.5 1.5 1.5 2.6 3 2.7-0.3 2.7-0.3 5.4-0.3 1.5-0.9 1.5-0.9 2.7-1.5-1.8-3.6-1.8-3.6-3.3-6.8-3-1.8-3-1.8-6.2-3.9 0 0-5.4 2.1-5.7 2.4 0 0.6-5.9 4.1-5.9 4.1-4.7 0.6-4.7 0.6-10.1 0.9-2.4-1.5-2.4-1.5-4.4-2.9-3-3-3-3-5.4-6.3-1.8-3.2-1.8-3.2-3.2-6.2 0-2.7 0-2.7 0.3-5.3 0.5-4.5 0.5-4.5 1.4-8.7 2.7-0.5 2.7-0.5 5.7-1.4 2.4-1.5 2.4-1.5 5-3 0.6-2.1 0.6-2.1 1.5-4.2 0.9-1.5 0.9-1.5 2.1-3.2 2.4 0 2.4 0 5 0.3 0.6 0.3 0.6 0.3 1.5 0.6 0.9-1.2 0.9-1.2 2.1-2.1-0.6-1.2-0.6-1.2-1.5-2.4-4.2-2.1-4.2-2.1-8.9-4.1-2.4-0.4-2.4-0.4-5-0.4-2.4 0.6-2.4 0.6-5.1 0.9-0.9 1.2-0.9 1.2-2.1 2.7-0.6 2.4-0.6 2.4-1.4 5.1 0 0 0 3.8 0 4.4 0 0.6-3.3 3.9-3.3 3.9-3 1.8-3 1.8-5.6 3.8-3.6 0.6-3.6 0.6-6.9 1.5-2.6 0.9-2.6 0.9-5.6 1.8-1.2 2.1-1.2 2.1-2.7 4.2 0 2 0 2-0.3 3.8 3 4.2 3 4.2 5.7 8 3.2 3.3 3.2 3.3 6.8 6.3 0.3 2.3 0.3 2.3 1.2 5-1.5 3-1.5 3-2.7 6.2-4.1 1.8-4.1 1.8-8 3.9-1.2 1.5-1.2 1.5-2.7 3 0.9 2.9 0.9 2.9 1.8 6.2-2.1 2.1-2.1 2.1-3.9 4.2-3.2 3.2-3.2 3.2-6.8 6.2-2.3 1.8-2.3 1.8-4.4 3.9-3.9-1.2-3.9-1.2-8-2.1-1.8-5.4-1.8-5.4-4.2-10.7-1.8-4.5-1.8-4.5-3.5-8.6-2.4-3.3-2.4-3.3-5.1-6.3-3.8-0.3-3.8-0.3-7.7-0.5-4.4 0.8-4.4 0.8-9.2 2-4.4 3-4.4 3-9.2 6.3-3.8-1.8-3.8-1.8-7.7-3.3-0.9-3.9-0.9-3.9-1.2-7.7 1.2-2.1 1.2-2.1 2.7-4.5-0.6-2.9-0.6-2.9-1.5-5.6-3-1.5-3-1.5-6.2-3.3-0.6-3.8-0.6-3.8-0.6-8 4.4-3.3 4.4-3.3 8.9-6.2 5.6-1.5 5.6-1.5 11.3-3 1.4-1.2 1.4-1.2 2.9-2.4 3-0.6 3-0.6 6.5-1.2 0.3-3.2 0.3-3.2 0.9-6.5 4.2 0 4.2 0 7.7 0 0.6-3.8 0.6-3.8 1.2-7.4 4.2-1.5 4.2-1.5 8.3-3.3 0.6-3.5 0.6-3.5 1.2-6.8 4.5-4.5 4.5-4.5 9.2-8.6 3.6-2.1 3.6-2.1 7.4-4.2 4.2 0 4.2 0 8.6 0 3-1.5 3-1.5 6.3-2.9 2 0.3 2 0.3 4.7 0.3 1.8-1.2 1.8-1.2 4.2-2.4 0.9-1.8 0.9-1.8 1.4-3.3 2.7-0.3 2.7-0.3 5.1-0.3-0.3-2.1-0.3-2.1-0.9-4.1-1.8-2.1-1.8-2.1-3-3.9 3-1.2 3-1.2 5.7-2.4 2.3 1.2 2.3 1.2 4.4 2.4 3 0.6 3 0.6 6.5 1.5 1.8-0.6 1.8-0.6 4.2-0.9 0-2.1 0-2.1-0.3-4.5 3.6 0 3.6 0 6.8-0.2 1.2 1.1 1.2 1.1 2.4 2 1.5-0.3 1.5-0.3 2.7-0.6 1.4 0.6 1.4 0.6 3.2 1.5 1.8 0.6 1.8 0.6 3.9 1.2 2.4-0.6 2.4-0.6 4.4-1.5 3.3 0.6 3.3 0.6 6 1.2 1.2 0.6 1.2 0.6 2 1.2 0.9 1.5 0.9 1.5 1.5 3 3 1.2 3 1.2 5.9 2.3 6.6 2.4 6.6 2.4 13.4 4.8 5.6 2.4 5.6 2.4 11.6 5 8.3 3.3 8.3 3.3 16 6.6 2.4 1.5 2.4 1.5 5 2.9 0.6 2.4 0.6 2.4 1.5 4.8-1.5 2.1-1.5 2.1-3.5 4.1-4.2 0.9-4.2 0.9-9 1.5-4.7-0.6-4.7-0.6-9.4-1.5-3.9-1.7-3.9-1.7-7.8-3.8-1.4 0.6-1.4 0.6-2.9 1.2 1.2 2.9 1.2 2.9 2.9 5.9 2.7 3.6 2.7 3.6 4.8 7.4 3 3.3 3 3.3 6.2 6.9 2.4 2 2.4 2 5.1 4.1 1.7-1.2 1.7-1.2 2.9-2.1-1.4-2-1.4-2-2.9-4.4-0.3-1.5-0.3-1.5-1.2-3 2.1-0.9 2.1-0.9 4.7-1.5 2.4 0.3 2.4 0.3 5.1 0.9 2 1.8 2 1.8 3.8 3.6-0.3 2.1-0.3 2.1-0.6 4.1 2.7 0 2.7 0 5.7 0.6 0.3-2.9 0.3-2.9 0.9-5.3-1.5-2.1-1.5-2.1-2.7-3.9-1.2-1.8-1.2-1.8-2.4-3.5 1.8-1.2 1.8-1.2 3.6-2.4 3.5-0.9 3.5-0.9 6.8-2.1 3.3 0 3.3 0 6.2 0 1.5 2.4 1.5 2.4 3 4.5 1.8 0.6 1.8 0.6 3 0.6 1.1-1.2 1.1-1.2 2-2.4-1.2-2.7-1.2-2.7-2-5.1-1.8-2.6-1.8-2.6-3.6-5.3-3.3-2.1-3.3-2.1-6.2-4.2 0.9-1.4 0.9-1.4 1.4-2.6 3 0 3 0 5.7-0.3 2.4 1.2 2.4 1.2 4.7 2.6 1.5 1.2 1.5 1.2 3 2.4 0.6 2.7 0.6 2.7 1.5 5.4 1.2 1.7 1.2 1.7 2.4 3.2 0 0 4.7 1.5 5.9 1.5 0.9 0.3 5-2.1 5-2.1 4.2-2.9 4.2-2.9 8-5.6 4.2 0 4.2 0 8.3 0.3 1.2-0.6 1.2-0.6 2.4-0.9 2.4 1.8 2.4 1.8 4.8 3.3 2.3-0.9 2.3-0.9 5.3-1.5 2.7 0 2.7 0 5.3 0 0 0 1.5 1.2 2.4 1.5 1.5 0.3 5.1-3.3 5.1-3.3 2 0.3 2 0.3 4.1 0.6 1.5 2.4 1.5 2.4 2.7 5 2.4 1.2 2.4 1.2 5 2.7 0.9-1.5 0.9-1.5 1.8-3-2.4-1.7-2.4-1.7-4.4-3.8-1.2-1.2-1.2-1.2-2.1-2.4-0.6-0.6-0.6-0.6-1.8-1.5-1.5-0.3-1.5-0.3-3.3-0.3-2.3-0.6-2.3-0.6-4.7-1.2-3-0.6-3-0.6-5.7-1.4 0-1.2 0-1.2-0.2-2.4 2-0.9 2-0.9 3.5-1.8 0 0 5.7 0.6 6.5 1.5 0.6 0.6 3.3 3 3.3 3 0 0 2.4 1.7 2.7 1.7 0.6 0 2.9-0.3 3.8 0 0.6 0 6.3 1.8 6.3 1.8 3.5 1.2 3.5 1.2 7.1 2.7 3.2 2.1 3.2 2.1 7.1 4.1 2.1 2.4 2.1 2.4 4.1 4.5 2.4 1.8 2.4 1.8 4.5 3.9 2.7 2 2.7 2 5 3.5 2.1 0.3 2.1 0.3 3.9 0.6 0 0 0.3-2.1 0-2.4-0.3-0.6-4.8-4.4-4.8-4.4 0 0-2.9-3.3-3.2-3.9-0.3-0.3-6-5.3-6-5.3-1.4-1.2-1.4-1.2-3.2-2.1-0.6-1.8-0.6-1.8-1.8-3.9 0 0 0.9-2 1.5-2 0.9 0.3 3.9 0.3 3.9 0.3 0-2.1 0-2.1 0-3.9-0.9-2.4-0.9-2.4-1.8-4.4 0-1.5 0-1.5 0.3-2.7 1.5-0.3 1.5-0.3 2.9-0.6 3.6 1.8 3.6 1.8 6.8 3.3 3 2.9 3 2.9 5.4 5.6 2.1 3.6 2.1 3.6 3.6 6.8 2.3 3.6 2.3 3.6 4.7 7.1 3 4.5 3 4.5 6.2 8.7 1.8 2.3 1.8 2.3 3.6 5 0.6 3.3 0.6 3.3 1.2 6.5-0.9 1.5-0.9 1.5-1.8 3-2.7-0.3-2.7-0.3-5.3-0.6-0.9 1.5-0.9 1.5-1.8 3 1.8 1.5 1.8 1.5 3.2 2.9 3.9 1.5 3.9 1.5 7.2 2.4 0 0 3.5-1.2 3.8-1.5 0-0.6 0.6-4.7 0.6-4.7 0.3-2.7 0.3-2.7 0-5.4 0.9-1.4 0.9-1.4 2.1-2.6 1.5 0.3 1.5 0.3 3.5 0.9 1.5 1.7 1.5 1.7 3 3.5 2.7 2.4 2.7 2.4 4.8 4.5 1.4 2.1 1.4 2.1 3.5 4.4 1.5 0.3 1.5 0.3 3.6 1.2 0 0 0.9-0.9 0-2.4-0.9-1.1-4.5-4.1-5.4-5.3-0.6-0.9-4.7-5.4-4.7-5.4-1.8-1.7-1.8-1.7-3.9-3.2-2.1-1.5-2.1-1.5-4.1-2.7-0.3 1.2-0.3 1.2-0.9 1.8-1.5-0.3-1.5-0.3-3.6-1.2 0 0-1.5 0.3-2.1-0.6-0.8-1.2-2.3-3.5-2.3-3.5-2.4-4.2-2.4-4.2-4.5-8.1-2.6-2.3-2.6-2.3-5-4.4-1.5-3.3-1.5-3.3-2.4-6.5 2.4-0.6 2.4-0.6 4.2-1.5 1.4 2.3 1.4 2.3 2.6 4.4 0.9 2.1 0.9 2.1 2.1 4.2 2.7 2.1 2.7 2.1 5.1 4.1 2.9 1.8 2.9 1.8 5.6 3.6 0-0.9 0-0.9 0-1.8-1.5-2.1-1.5-2.1-3.3-4.1 0.3-1.2 0.3-1.2 1.2-2.4 2.4 1.2 2.4 1.2 5.3 2.7 1.5 1.7 1.5 1.7 3.9 4.1 3 1.8 3 1.8 6.2 3.6 0 0 2.4 2.1 3 2.6 0.3 0.6 3.3 3.9 3.3 3.9 0.3-0.6 0.3-0.6 0.6-1.2-1.5-2.1-1.5-2.1-3-4.4-2.7-2.4-2.7-2.4-5-4.5-2.4-1.8-2.4-1.8-5.1-3.5-1.5-1.5-1.5-1.5-3.5-3.3-0.4-1.8-0.4-1.8-0.9-3.9 0 0 3.8 0.3 4.4 0.6 0.2 0 2.8 1.5 4.5 2.5-88.7-69.1-200.1-110.3-321-110.3-55.6 0-109.3 8.7-159.7 24.9 1.4-0.2 1.6-0.2 3.4-0.2-0.9 0.9-0.9 0.9-1.8 1.8-3.2 1.5-3.2 1.5-7.1 3.2-0.6 1.2-0.6 1.2-1.8 2.7 2.7-0.6 2.7-0.6 5.1-1.2 2.3-1.5 2.3-1.5 5-2.9 4.5-1.8 4.5-1.8 8.9-3.6 4.8-1.5 4.8-1.5 9.8-3 6.8-1.2 6.8-1.2 13.4-2.6 4.1-0.3 4.1-0.3 8.6-0.6-0.9 1.5-0.9 1.5-2.1 2.9-5.4 2.1-5.4 2.1-11.3 4.2-7.1 1.5-7.1 1.5-14.2 3-4.5 1.1-4.5 1.1-9.5 2.6-0.3 0.6-0.3 0.6-0.9 1.5 3-0.3 3-0.3 6.2-0.3 0.3 0.6 0.3 0.6 0.3 0.9-2.7 1.8-2.7 1.8-5.3 3.3-5.4 2.3-5.4 2.3-10.4 4.7-1.2 1.5-1.2 1.5-2.7 3 0.6 0.6 0.6 0.6 2.1 1.2 4.4-0.9 4.4-0.9 8.9-1.8 2.7-0.3 2.7-0.3 5-0.6 0.3 0.9 0.3 0.9 1.2 1.8-1.7 1.5-1.7 1.5-3.2 2.9-3.3 1.2-3.3 1.2-7.1 3-0.9 1.5-0.9 1.5-2.4 3.3 0.3 0.9 0.3 0.9 1.2 1.8 2.6 0 2.6 0 5.6 0 1.8 0.3 1.8 0.3 3.3 0.6-3 3.5-3 3.5-6 7.1-4.1 1.2-4.1 1.2-8.3 2.4-1.2 1.4-1.2 1.4-2.1 3.2-3.2 0.9-3.2 0.9-6.8 2.1-2.1 1.8-2.1 1.8-4.1 3.9-3-0.6-3-0.6-6-1.2-2.6 1.2-2.6 1.2-5 2.6 0 1.5 0 1.5 0.9 3.3 2.9-0.3 2.9-0.3 5.9-0.6 2.7 1.5 2.7 1.5 5.4 2.7 0.8 2.4 0.8 2.4 1.7 4.4-2.9 1.8-2.9 1.8-5.6 3.9-3.9-0.6-3.9-0.6-7.7-0.9-3-1.2-3-1.2-5.6-2.7-2.7 0.3-2.7 0.3-4.8 0.3-3 1.8-3 1.8-5.3 3.3 0 2.1 0 2.1-0.6 4.2 4.1 0 4.1 0 8.3 0 4.1-0.9 4.1-0.9 8-1.5 1.2 1.5 1.2 1.5 2.7 2.6-3.3 2.7-3.3 2.7-6.6 5.7-7.7 5.6-7.7 5.6-15.7 11.3-4.7 1.8-4.7 1.8-9.8 3.2-3.8-0.3-3.8-0.3-7.4-0.6-4.7 0.9-4.7 0.9-8.6 1.2-3.3 2.1-3.3 2.1-6.8 4.2-0.9 3-0.9 3-2.1 5.9-3.3 3.6-3.3 3.6-5.9 6.9-3.9 1.7-3.9 1.7-7.7 3.8-11.3 3.3-11.3 3.3-22.3 6.2-2.4 2.4-2.4 2.4-4.4 4.5-0.9 3.6-0.9 3.6-1.8 7.1-5.4 5.4-5.4 5.4-11 10.7-1.5 5.1-1.5 5.1-3 10.1-3.8 5.6-3.8 5.6-7.4 11-3.8 2.7-3.8 2.7-7.4 4.7-1.8-1.2-1.8-1.2-3.8-2-0.9-2.1-0.9-2.1-1.8-4.5-2.7 0.6-2.7 0.6-5.4 1.2-2.9-5.1-2.9-5.1-5.9-9.8 0-7.4 0-7.4 0.6-14.8-0.6-5.1-0.6-5.1-0.9-9.8 2.7-4.8 2.7-4.8 5.4-9.2 3.5-3 3.5-3 7.4-6.3 3.2-2.4 3.2-2.4 6.5-4.7 1.2-2.4 1.2-2.4 1.8-4.8-0.6-0.9-0.6-0.9-1.5-2.1-4.5 1.2-4.5 1.2-9.2 2.4 0.9-1.2 0.9-1.2 1.5-2.1 2.4-1.2 2.4-1.2 4.4-1.7 1.8-1.2 1.8-1.2 3.9-2.4 0.3-2.4 0.3-2.4 0.6-4.8-1.8 0.6-1.8 0.6-3 0.6-2.1 2.4-2.1 2.4-3.8 4.2-1.2 0-1.2 0-3 0.3 2.4-6 2.4-6 5.3-12.5 0.2-1.6 0.3-2.4 0.3-3.2-21.1 16-41 33.5-59.5 52.5q0 0.1-0.1 0.3c0 0 0.6 3.5 3.3 3.3 2.6-0.4 7.4-0.9 7.4-0.9 1.2 0 1.2 0 2.7 0-0.6 1.4-0.6 1.4-0.9 3.2-3.6 3.9-3.6 3.9-7.1 8.3-0.9 1.8-0.9 1.8-2.1 4.2-2.1 1.2-2.1 1.2-3.9 2.1-0.9-0.9-0.9-0.9-1.8-1.5-0.3-1.8-0.3-1.8-0.6-3.6 0 0-1.1-0.9-1.4-1.2 0-0.9-0.6-2-0.6-2-1.8 1.1-1.8 1.1-3.3 1.7-1.5 2.4-1.5 2.4-2.7 4.8 0 0.6 0 0.6 0 1.5 0.9 0.9 0.9 0.9 1.8 1.5 1.5 0 1.5 0 2.7-0.3 0.3 1.7 0.3 1.7 0.9 3.2-1.5 3.3-1.5 3.3-2.7 6.3-1.5 2.6-1.5 2.6-2.7 5.3-1.2 0.6-1.2 0.6-2.3 1.5-0.9 0-0.9 0-1.8-0.3-1.2-1.5-1.2-1.5-2.4-3.3-1.2 0.6-1.2 0.6-2.7 1.2-0.8 2.1-0.8 2.1-1.4 3.6 1.7 1.5 1.7 1.5 3.5 2.9-1.2 2.1-1.2 2.1-2.9 4.8-1.8 0.6-1.8 0.6-3.3 1.2 0 0-2.1-0.9-2.4-1.2-0.3-0.9-3.3-4.2-3.3-4.2-1.1-1.2-1.1-1.2-2-2-1.2-0.9-1.2-0.9-2.1-1.8q0 0-0.1 0-7.3 9.1-14.2 18.6c2.1-0.8 2.2-0.8 4.2-1.4 2.1-1.5 2.1-1.5 4.5-3 0.6 0 0.6 0 1.1 0 0 2.4 0 2.4 0.3 4.5 0 0 1.8 0.6 2.4 0.6 0.6-0.3 2.7-1.2 2.7-1.2 0.6 0.3 0.6 0.3 0.6 0.9-0.9 2.1-0.9 2.1-1.8 3.8 0 0-3 3-3 3.6-0.6 0.9-2.3 5.6-2.3 5.6 0.3 1.5 0.3 1.5 0.6 3 3.5 0 3.5 0 7.1 0.3 3.8-4.1 3.8-4.1 7.7-8.3 2.4-4.2 2.4-4.2 5-8.6 0.6 2.4 0.6 2.4 1.5 4.4-0.6 2.1-0.6 2.1-0.9 3.6 1.2 0.9 1.2 0.9 2.7 1.5-0.6 2.7-0.6 2.7-0.9 5 0.9 1.2 0.9 1.2 1.5 2.1-1.5 2.1-1.5 2.1-3 4.5 0.3 2 0.3 2 0.9 3.8 0 1.5 0 1.5 0 3-0.3 1.5-0.3 1.5-0.6 2.4 1.5 0.6 1.5 0.6 3 0.9 1.8-0.3 1.8-0.3 3.5-0.6 1.8 0.3 1.8 0.3 3.6 0.6-0.3 0.8-0.3 0.8-0.3 2-2.7 2.4-2.7 2.4-5.3 5.1-2.7 2.1-2.7 2.1-5.4 4.1-1.2 1.8-1.2 1.8-2 3.3 0.8 0.6 0.8 0.6 1.4 0.9 2.4-1.8 2.4-1.8 5.1-3.9 1.5-1.7 1.5-1.7 3.2-3.8 3-0.9 3-0.9 5.7-1.5 0 0 2.6-0.3 2.6 0.9-0.3 0.9-0.8 2.7-1.1 3.8-0.3 0.9-3.3 13.4-3.3 13.4-1.5 1.5-1.5 1.5-3 3-3.5 0.3-3.5 0.3-7.1 0.9-1.8 2-1.8 2-3.3 3.8-3.8 3.3-3.8 3.3-7.7 6.2-4.7 1.5-4.7 1.5-9.5 3.3-3.5 0.6-3.5 0.6-7.4 1.8-2-0.6-2-0.6-4.4-0.6-1.2 1.5-1.2 1.5-2.7 3-2.1 2.1-2.1 2.1-4.1 4.1-3.9 4.2-3.9 4.2-7.8 8.3-0.6 2.4-0.6 2.4-1.4 4.8 1.4-0.6 1.4-0.6 2.6-0.9 2.7-3 2.7-3 4.8-5.9 2.1-2.7 2.1-2.7 4.1-5.4 2.7-0.9 2.7-0.9 5.7-1.5 1.2 1.8 1.2 1.8 2.3 3.6-1.7 2.1-1.7 2.1-3.8 4.4-0.9 2.1-0.9 2.1-1.5 4.2 0 2.1 0 2.1 0.6 3.9 1.2 0.3 1.2 0.3 2.4 0.9 2.6-0.3 2.6-0.3 5-0.3 2.4-0.3 2.4-0.3 4.8-0.3 0.2 2.3 0.2 2.3 0.5 4.4-2 3.9-2 3.9-3.8 7.1-3 1.5-3 1.5-5.9 2.7-2.1 2.7-2.1 2.7-4.2 5.4-2.1 3.2-2.1 3.2-4.1 6.5-2.4 1.5-2.4 1.5-4.8 2.4-0.9 0.3-0.9 0.3-1.8 0 0.3-3.3 0.3-3.3 0.6-6.3 2.7-3.2 2.7-3.2 5.7-6.8 2.3-3 2.3-3 4.4-5.6 0.3-2.7 0.3-2.7 0.3-5.1-1.8 0.6-1.8 0.6-3.3 0.9-1.4 2.7-1.4 2.7-2.9 5.6-3.9 5.4-3.9 5.4-7.4 10.7-2.1 2.4-2.1 2.4-4.5 4.5-4.7 3.2-4.7 3.2-9.5 7.1-1.2 2.7-1.2 2.7-2.4 5.9 0.3 0.6 0.3 0.6 0.3 1.2 0.9 1.8 0.9 1.8 1.5 3.6-0.9 2.4-0.9 2.4-1.5 4.4 0 0-2 1.5-2.3 1.8-0.3 0-3 0.6-3.6 0.9-0.6 0-3.3 0.6-3.3 0.6-0.5 1.8-0.5 1.8-1.1 3.3-0.6 1.8-0.6 1.8-1.2 3.5-2.1 1.5-2.1 1.5-3.9 2.4-1.2 2.4-1.2 2.4-2.4 5.1 0 0-2 6.2-1.7 6.8 0 0.3-0.6 3.2-0.6 3.2 0 0-3.6 3.6-3.9 3.6-0.3 0.6-1.5 2.1-1.5 2.1-0.3 1.8-0.3 1.8-0.3 3.3 0.9 1.1 0.9 1.1 1.5 2.3-0.9 5.1-0.9 5.1-1.5 9.2-2 2.7-2 2.7-3.8 6-0.3 1.5-0.3 1.5-0.9 3.2-1.8 0.3-1.8 0.3-3.3 0-1.2 2.1-1.2 2.1-2.3 4.5-0.9 2.4-0.9 2.4-1.8 4.2-3 4.7-3 4.7-5.7 8.9-1.1 3.2-1.1 3.2-2.6 7.1 0.6 4.7 0.6 4.7 0.9 9.5-0.3 6.2-0.3 6.2-0.3 11.9 0.3 5.9 0.3 5.9 0.6 12.1 0 3 0 3 0 6-0.9 2.9-0.9 2.9-1.8 6.5-0.9-2.7-0.9-2.7-2.1-4.8-1.5-4.7-1.5-4.7-2.7-9.5 0.3-6.5 0.3-6.5 0.6-13.3-0.6-3.6-0.6-3.6-1.2-7.7-0.8-1.2-0.8-1.2-1.7-2.4-1.5 1.2-1.5 1.2-2.7 3.3-0.6-2.1-0.6-2.1-1.2-3.9-1.8-0.3-1.8-0.3-3.6 0-0.7 0.5-1 0.7-1.4 1-2.5 18.1-4.2 36.5-4.8 55.2 1.2 0.2 1.4 0.2 3 0.2 0.6 2.1 0.6 2.1 1.2 4.7-0.9 3.6-0.9 3.6-1.5 7.8-0.3 2.9-0.3 2.9-0.9 6.2-0.3 2.7-0.3 2.7-0.6 5.3 0 5.4 0 5.4 0 10.4 0.6 2.7 0.6 2.7 0.9 5.4 0.9-1.8 0.9-1.8 1.5-3.3 0.6-0.6 0.6-0.6 1.2-1.2 1.2 0.6 1.2 0.6 2 1.5 1.2 1.2 1.2 1.2 2.1 1.5 0.9 1.5 0.9 1.5 1.5 3.6-0.3 1.4-0.3 1.4-0.6 3.5 0 2.1 0 2.1 0 4.8 0 5 0 5 0.3 10.9 0 3.6 0 3.6 0.3 7.2 0.9 1.5 0.9 1.5 1.5 3 0.6 2 0.6 2 1.2 3.5 0.3 2.1 0.3 2.1 0.6 3.6 0.5 0.9 0.5 0.9 1.4 1.7 1.2 0 1.2 0 2.4-0.2 1.2-1.2 1.2-1.2 2.4-2.4 0.9 0.6 0.9 0.6 2.1 1.2 1.4 2 1.4 2 2.6 3.8 1.5 3 1.5 3 3.3 6.3 0.3-3.3 0.3-3.3 0.9-6.3 1.2-0.6 1.2-0.6 2.4-1.2 0.6-4.1 0.6-4.1 1.1-8.3 0.9-1.5 0.9-1.5 2.1-3.2 1.5 0.3 1.5 0.3 3.3 0.3 0.9-3.6 0.9-3.6 1.8-7.8 0.9-0.3 0.9-0.3 1.7-0.8 1.8 2 1.8 2 3.6 4.4 0 0 2.7-2.4 3.3-2.4 0.6 0 3.5 5.4 3.5 5.4 1.5 1.5 1.5 1.5 3.3 2.6 2.1 3 2.1 3 4.1 6 4.5 0 4.5 0 8.9 0.9 3.3-2.4 3.3-2.4 6.6-4.2 3.5 0.9 3.5 0.9 7.1 1.8 0 3.3 0 3.3 0.3 5.9 1.2 3.3 1.2 3.3 2.7 6.9 1.7 1.7 1.7 1.7 3.8 3.8 1.2 2.1 1.2 2.1 2.1 4.2 1.8 1.5 1.8 1.5 3.5 2.3 0.9 3 0.9 3 1.8 5.4 1.5 0.6 1.5 0.6 3.3 1.2 0.6 3 0.6 3 1.5 5.9 1.7 0.9 1.7 0.9 3.8 2.4 1.8-2.4 1.8-2.4 3.6-4.5 2.6 0.6 2.6 0.6 5.3 1.5 3.6 3.9 3.6 3.9 7.4 7.7 4.5 6.6 4.5 6.6 8.9 12.8 3 5.4 3 5.4 6.3 10.7 0.6 3.3 0.6 3.3 1.1 6.5-1.1 3.3-1.1 3.3-2 6.9-2.1 4.1-2.1 4.1-4.2 8.3-1.5 2.3-1.5 2.3-3.2 5 0.8 0.9 0.8 0.9 2 2.4 0.9-1.2 0.9-1.2 1.8-2.7 1.8-3.3 1.8-3.3 3.6-6.5 1.2-1.8 1.2-1.8 2.6-3.6 2.4 0.9 2.4 0.9 4.8 1.2 0.6 1.2 0.6 1.2 1.2 2.7 0 2.1 0 2.1 0 3.8 0 0-1.8 1.2-1.8 2.1 0 0.9 2.1 3.6 2.1 3.6 1.5-1.5 1.5-1.5 2.6-3 1.2-1.8 1.2-1.8 2.4-3.6 0 0 2.7-0.5 4.8 0 1.7 0 6.5 0.4 6.5 0.4 1.8 1.4 1.8 1.4 3.5 2.6 0 0 5.1 5.1 5.7 6.3 0.9 1.1 8.6 5.3 8.6 5.3 0.6-1.5 0.6-1.5 1.2-3 2.3 1.5 2.3 1.5 5 3.3 5.9 1.2 5.9 1.2 12.2 2.7 1.4 2.6 1.4 2.6 2.9 5.6 2.7 0.6 2.7 0.6 5.7 1.2 2 3.6 2 3.6 4.4 7.4 2.4 1.8 2.4 1.8 5.1 3.6 2.6 0.3 2.6 0.3 5.3 0.9 0.6 5.3 0.6 5.3 1.5 10.9 1.8 1.2 1.8 1.2 3.8 2.4 0 3.9 0 3.9 0 8-1.7 4.5-1.7 4.5-3.5 8.4-3 5-3 5-6.2 9.8-1.2 4.7-1.2 4.7-2.7 8.9-0.6 2.9-0.6 2.9-1.2 5.3-3.9 1.2-3.9 1.2-8 2.1 3.5 13.6 3.5 13.6 6.8 26.7-1.2 2.7-1.2 2.7-2.7 5 0 7.2 0 7.2 0.3 14.3-2 2.1-2 2.1-4.4 3.5 0.9 6.3 0.9 6.3 1.5 12.2-4.5-0.6-4.5-0.6-8.3-1.2-1.2 0.9-1.2 0.9-1.8 2.1-3.9-0.6-3.9-0.6-8-1.2-5.7 3.9-5.7 3.9-11.3 7.1 1.8 10.1 1.8 10.1 3.9 19.9-2.7 0.6-2.7 0.6-5.7 1.2 0.3 3.9 0.3 3.9 1.2 7.7-0.9 1.5-0.9 1.5-1.8 2.4 0.6 2.1 0.6 2.1 0.9 4.2-1.5-0.9-1.5-0.9-2.9-1.5 0 0-1.2-3.6-1.2-4.2-0.3-0.6-2.1-3.5-2.1-3.5-0.6 1.5-0.6 1.5-1.2 2.6 0.6 2.1 0.6 2.1 1.5 4.5 0.6 3 0.6 3 1.5 6.2-1.2 3.3-1.2 3.3-2.4 6-2.1 0.6-2.1 0.6-3.9 0.9-2.3-1.2-2.3-1.2-5.3-2.7-1.8-1.8-1.8-1.8-4.1-3.6-1.2 0.3-1.2 0.3-2.7 0.3 1.5 1.5 1.5 1.5 2.7 3 2.6 1.8 2.6 1.8 5 3.6 1.5 2.3 1.5 2.3 2.4 4.1 1.2 2.4 1.2 2.4 2.3 5.1-0.3 1.7-0.3 1.7-1.1 3.2-1.8-0.3-1.8-0.3-3.3-0.3-1.5 0-1.5 0-2.7 0.3-3.5-1.5-3.5-1.5-7.1-3.2-0.3 0.6-0.3 0.6-0.6 0.8 0.7 1.3 1.1 2.1 1.5 2.8 95.1 96.7 227.4 156.8 373.4 156.8 235.8 0 435.6-156.7 501.2-371.5zm-678-646.6c2.7-0.3 2.7-0.3 5.7-0.9 5-2.2 5.3-2.3 9.8-4.6q-7.6 2.5-15.1 5.2-0.2 0.1-0.4 0.3zm-291.8 270.2c2.7-2.1 2.7-2.1 5.3-4.5 2.1-4.4 2.1-4.4 4.5-9.2 1.5-4.4 1.5-4.4 3.2-9.5 0.6-2.1 0.6-2.1 1.2-3.8 1.8-2.7 1.8-2.7 3.3-5.4 1.8-2.1 1.8-2.1 3.8-3.8 0.9-2.7 0.9-2.7 1.5-4.5 0.6-2.1 0.6-2.1 1.2-4.2 0.3-3.5 0.3-3.5 1.2-6.8 0.9-3 0.9-3 2.1-5.9 1.5-1.5 1.5-1.5 3.2-3 1.5-3.3 1.5-3.3 3-5.9 0.2-1.5 0.4-2.3 0.5-3-9.8 14.5-18.9 29.6-27.3 45.2 0.2 0.5 0.3 0.8 0.7 1.7-1.5 2.4-1.5 2.4-2.4 4.2-2.3 6.2-2.3 6.2-4.7 12.7-0.3 2.7-0.3 2.7-0.3 5.7zm36.9 520.5c-0.3-0.7-0.7-1.5-1.3-2.8 0.9 0 0.9 0 1.8 0-0.9-2.4-0.9-2.4-2.1-4.8-0.9-2.6-0.9-2.6-1.8-5.3 0.6-0.3 0.6-0.3 1.5-0.6-1.2-3.9-1.2-3.9-2.1-6.8-1.8-2.1-1.8-2.1-3.3-3.6-0.6-1.8-0.6-1.8-1.4-3.8 0.8-0.6 0.8-0.6 1.7-1.8-1.4-5.1-1.4-5.1-2.9-10.1-1.8-3.6-1.8-3.6-3.9-7.7-1.5-3.9-1.5-3.9-2.9-7.2-1.8-3.2-1.8-3.2-3.6-6.2-3.6-3.9-3.6-3.9-7.1-8-2.1-1.8-2.1-1.8-4.5-3.6-4.4-7.4-4.4-7.4-8.9-14.5-0.9-3-0.9-3-2.1-6-3.2-8-3.2-8-6.5-15.7-2.6-5.6-2.6-5.6-5-11.3-2.4-6.2-2.4-6.2-4.8-13.3-0.9-2.4-0.9-2.4-2-4.8-1.2-1.2-1.2-1.2-2.7-2.3-1.8-6.6-1.8-6.6-3.3-13.7 0.6-0.6 0.6-0.6 1.5-1.5 0.9 0.3 0.9 0.3 1.8 0.6-1.5-4.4-1.5-4.4-2.7-8.3-1.2-3-1.2-3-2.3-6.2 0.5-2.4 0.5-2.4 0.8-5.1 0.3-4.4 0.3-4.4 0.3-9.2 0.9-2.1 0.9-2.1 1.8-5 0.6-1.2 0.6-1.2 1.5-1.8 0.9-0.9 0.9-0.9 1.8-0.9 0-6.2 0-6.2-0.3-12.8-1.2-5.6-1.2-5.6-2.1-11-2.1-5.9-2.1-5.9-3.8-11.5-1.2-1.5-1.2-1.5-2.4-2.4-0.3 2.1-0.3 2.1-0.3 4.1-0.6 1.8-0.6 1.8-0.9 3.3-1.5-0.3-1.5-0.3-3-0.6-0.9-1.5-0.9-1.5-1.8-3-1.1-0.2-1.1-0.2-2.3-1.1-0.6-0.3-0.6-0.3-1.2-1.5-0.9-3.6-0.9-3.6-1.8-7.4-0.9-0.9-0.9-0.9-2.1-1.5-0.9-2.4-0.9-2.4-2-5.1-0.3-2.9-0.3-2.9-0.3-6.5-2.4-6.8-2.4-6.8-4.2-13.4q0 0-0.1-0.1c6.5 96.8 39.3 186.4 91.3 261.8zm-56.8-303.8c-3 2.1-3 2.1-5.6 3.8-0.6 1.2-0.6 1.2-1.2 3 0.6 2.7 0.6 2.7 1.5 5.6-1.2 2.1-1.2 2.1-2.4 3.9-2.1-0.3-2.1-0.3-4.2-1.2-0.5-3.2-0.5-3.2-1.1-6.2 1.7-1.5 1.7-1.5 3.8-3.6-0.6-1.5-0.6-1.5-0.9-3.5-0.6-3.9-0.6-3.9-1.2-8.4-1.7-2.6-1.7-2.6-3.5-5.3-3-2.7-3-2.7-5.7-5.3-1.4 0-1.4 0-2.9 0.6-1.2 1.4-1.2 1.4-2.1 2.9-0.9 0.3-0.9 0.3-1.8 0.9-0.3-1.5-0.3-1.5-0.6-3 2.4-3.5 2.4-3.5 4.5-6.5 2.7 0.6 2.7 0.6 5.3 1.2 2.4 1.2 2.4 1.2 4.5 2.4 2.3 2.7 2.3 2.7 4.4 5 2.7 1.8 2.7 1.8 5.4 3.3 1.7 2.1 1.7 2.1 3.8 3.6 0 3.5 0 3.5 0 6.8zm162-381.2c-2.4 0.6-2.4 0.6-4.2 0.6 1.8-2.4 1.8-2.4 3.3-4.7 2.3-1.2 2.3-1.2 5-2.7 2.1-0.6 2.1-0.6 4.5-0.9 0.6 0.6 0.6 0.6 0.6 1.5-1.8 1.8-1.8 1.8-3.9 3.2-2.7 1.5-2.7 1.5-5.3 3zm123.9-1.2c-0.6-0.3-0.6-0.3-1.1-0.6-0.9-1.8-0.9-1.8-1.8-3.5 2.9-3.9 2.9-3.9 6.5-7.7 2.4-1.2 2.4-1.2 5-2.7 1.5 0.9 1.5 0.9 3 2.1-0.6 1.1-0.6 1.1-0.6 2 2.4-0.3 2.4-0.3 4.8-0.9 1.4-2 1.4-2 2.9-3.8 2.7-0.3 2.7-0.3 6-0.9 1.4 1.5 1.4 1.5 3.2 3.3 3.3-0.3 3.3-0.3 6.8-0.9 3.9-1.8 3.9-1.8 8.3-3.9 3 0 3 0 5.7 0.3 2.4 1.5 2.4 1.5 5.3 2.7-2 5-2 5-3.2 9.5-3.9 3-3.9 3-7.8 5.9-4.1 0.9-4.1 0.9-8 1.8-2.6 0.9-2.6 0.9-5.3 2.1-0.9 2.4-0.9 2.4-2.1 4.4-2.9-0.3-2.9-0.3-5.9-0.6-1.8-1.7-1.8-1.7-4.2-3.5-2.3-0.3-2.3-0.3-5.3-0.3-2.7 1.5-2.7 1.5-5 2.6-2.7 0-2.7 0-5.4 0 1.2-1.7 1.2-1.7 2.4-3.2 2.1-1.8 2.1-1.8 4.4-3.9-0.6-1.8-0.6-1.8-0.6-3.5-2.6 0-2.6 0-5.6 0-1.2 1.7-1.2 1.7-2.4 3.2zm187.8-111.6c-0.3-1.2-0.3-1.2-0.9-2.7 5.1-0.9 5.1-0.9 9.5-1.7 0.9 1.1 0.9 1.1 2.7 2.6 1.7-0.9 1.7-0.9 3.8-1.5 2.1 0.9 2.1 0.9 4.5 1.8 2 0 2 0 4.1 0 0.9-1.5 0.9-1.5 2.1-2.9 3.9 0 3.9 0 8 0 2.4 0.8 2.4 0.8 4.5 1.7 1.4 1.5 1.4 1.5 2.9 3 6 1.5 6 1.5 11.3 2.7 4.7 1.5 4.7 1.5 9.8 2.9 1.8 1.5 1.8 1.5 3.5 3.3-1.1 0.9-1.1 0.9-2 2.1-5.4-0.3-5.4-0.3-11-0.3-3.3-0.6-3.3-0.6-6.8-1.2 0.6-1.2 0.6-1.2 1.2-2.7-1.8-0.6-1.8-0.6-4.5-1.5-2.4 0.6-2.4 0.6-4.7 0.9-1.5 0.9-1.5 0.9-3.6 1.5-0.3 2.4-0.3 2.4 0.3 4.8-0.6 1.2-0.6 1.2-1.5 2-3-0.5-3-0.5-6.5-1.1-1.8-1.2-1.8-1.2-4.2-2.7-2.3-1.5-2.3-1.5-5-3 0-0.9 0-0.9 0-1.8 1.5-0.8 1.5-0.8 3-1.7 0.6-0.9 0.6-0.9 0.6-1.8-2.4-0.3-2.4-0.3-4.5-0.3-0.9 0.3-0.9 0.3-2.1 0.9-0.9 0.6-0.9 0.6-1.7 1.2-3 0.3-3 0.3-6 0.5-2.1-0.5-2.1-0.5-4.1-1.1-1.5-1.8-1.5-1.8-2.7-3.9zm42.7-3c-0.9-1.2-0.9-1.2-1.2-2 2.1-1.2 2.1-1.2 3.6-2.4 2.9 0.3 2.9 0.3 6.2 0.3 0.9 0.6 0.9 0.6 2.4 1.2 0 0 3.8 0.9 4.4 0.9 1.2 0.3 5.1 0.6 5.1 0.6 2 0 2 0 4.1-0.3 1.2-0.3 1.2-0.3 1.5-0.6 3.3 0 3.3 0 5.6 0 1.8 0.3 1.8 0.3 3.3 0.3 0.9 0.8 0.9 0.8 1.8 1.7-1.2 0.6-1.2 0.6-2.4 1.5-2.1 0.6-2.1 0.6-4.7 0.9-2.4 0.9-2.4 0.9-5.7 1.5-1.5 0.3-1.5 0.3-2.9 0.6-3.6 0-3.6 0-7.2 0-3.8-0.9-3.8-0.9-8-1.5-2.9-1.2-2.9-1.2-5.9-2.7zm-406.9 273.4c0.8 2.1 0.8 2.1 2.3 3.9-0.6 2.4-0.6 2.4-0.9 4.2-2.9 3.2-2.9 3.2-5.6 6.8-2.4-1.8-2.4-1.8-4.4-3.6-2.7 1.2-2.7 1.2-5.4 2.4-0.6-4.2-0.6-4.2-0.9-8.3-2.6 1.5-2.6 1.5-5 3.3-2.7 1.1-2.7 1.1-5.1 2.3 0.9-5 0.9-5 1.8-10.4 3.9-4.1 3.9-4.1 8-8.3 2.1-4.4 2.1-4.4 4.5-8.9 2.4 0.3 2.4 0.3 4.1 0.9 0.3 1.8 0.3 1.8 0.3 3.9 3.3 0.6 3.3 0.6 6.9 0.6 0 2.6 0 2.6 0.2 5.6-0.5 2.7-0.5 2.7-0.8 5.6zm-81 229.5c1.2 2.1 1.2 2.1 2.1 3.3-1.2 3.8-1.2 3.8-2.7 7.4-2.1-0.3-2.1-0.3-4.2-1.2-1.4-1.5-1.4-1.5-2.9-3-0.9 1.2-0.9 1.2-1.8 2.1-2.7 0.9-2.7 0.9-5.1 1.5-5-0.3-5-0.3-10-0.9-2.4-0.9-2.4-0.9-4.8-1.2-0.6-0.6-1.5-5-1.5-5 1.8-1.5 1.8-1.5 3.3-3.9 2.4 0.9 2.4 0.9 4.8 1.8-0.9-3.3-0.9-3.3-2.1-6.8 1.5-2.4 1.5-2.4 3.2-5.1 2.4 0.9 2.4 0.9 4.8 2.4 1.5 3 1.5 3 3.2 5.7 2.4 2 2.4 2 4.8 4.4 1.2 0.9 1.2 0.9 2.4 1.5 1.4-0.9 1.4-0.9 3.2-3 1.8 0 1.8 0 3.3 0zm320.6-284.4c-2.4-1.8-2.4-1.8-4.7-3.2 0.3-3.9 0.3-3.9 0.3-7.8 2.6-1.1 2.6-1.1 5.6-2.9-0.6-1.5-0.6-1.5-1.5-3-1.8-1.5-1.8-1.5-3.5-3 2.3-2.9 2.3-2.9 4.7-6.5 3.6 0.3 3.6 0.3 6.5 0.6 1.8-4.2 1.8-4.2 3.3-7.7 4.5-0.3 4.5-0.3 8.9-0.3 3.8 2.7 3.8 2.7 7.4 5.3-0.9 1.8-0.9 1.8-1.8 3.6-2 1.8-2 1.8-3.8 3.3 1.5 2.6 1.5 2.6 2.9 5.3-2 4.2-2 4.2-4.1 8.3-3.9 0.3-3.9 0.3-8 0.3-6 3.9-6 3.9-12.2 7.7zm20.5-50.7c-1.8-2.1-1.8-2.1-3.9-4.2 0.9-2.4 0.9-2.4 1.5-5 2.4-1.2 2.4-1.2 4.2-2.1 1.5 1.5 1.5 1.5 2.9 2.9 0 1.8 0 1.8-0.3 3.6 2.4-1.2 2.4-1.2 4.2-2.1 1.5-2 1.5-2 3-4.1 1.4-1.2 1.4-1.2 2.9-2.4 3.3 0.3 3.3 0.3 6.2 0.6 0.3 1.8 0.3 1.8 0.6 3.6-0.3 1.2-0.3 1.2-0.3 2.6 3-0.3 3-0.3 6-0.6 1.5 0 1.5 0 2.9 0 0.9 1.8 0.9 1.8 2.1 3.3 0 1.5 0 1.5-0.3 3-2.4 0.9-2.4 0.9-4.4 1.8-0.6 1.1-0.6 1.1-0.6 2 1.2 1.2 1.2 1.2 2.4 2.4 2.6 0.6 2.6 0.6 5 1.5 0.3 1.2 0.3 1.2 0.9 2.1-0.9 1.7-0.9 1.7-1.8 3.5 0.3 1.2 0.3 1.2 0.6 2.4 1.8 0.9 1.8 0.9 4.1 1.8-0.5 1.5-0.5 1.5-0.8 3 2.3 1.7 2.3 1.7 5 3.5 0 2.7 0 2.7-0.6 5.4 2.1 1.1 2.1 1.1 3.6 2.6 3.5 0.3 3.5 0.3 6.5 0.9 0.6 3.9 0.6 3.9 0.6 7.7-0.6 1.5-0.6 1.5-1.2 2.7-2.4 0.3-2.4 0.3-4.7 0.9-1.8 0.3-1.8 0.3-3.9 0.9 0.3 1.2 0.3 1.2 0.6 2.7 1.8 0.9 1.8 0.9 3.3 1.7-0.6 1.2-0.6 1.2-1.5 2.4-0.3 0.6-0.3 0.6-1.2 0.9-2.1-0.3-2.1-0.3-4.5-0.6-1.2 0.9-1.2 0.9-2.6 1.5-1.5 1.2-1.5 1.2-3 2.4-2.4 0.3-2.4 0.3-4.4 0.6-1.8-0.3-1.8-0.3-3.6-0.9-2.4-0.3-2.4-0.3-4.8-0.3-1.4 0.9-1.4 0.9-2.6 2.1-1.2 1.5-1.2 1.5-2.7 2.6-1.8 1.5-1.8 1.5-3.5 2.7-3.6 0.3-3.6 0.3-6.9 0.9-0.6-2.7-0.6-2.7-0.9-5.3 7.2-4.5 7.2-4.5 14.6-9-0.6-1.1-0.6-1.1-0.9-2.3-3.9-0.6-3.9-0.6-7.7-1.2 0.3-1.5 0.3-1.5 0.6-2.7 2.3-1.2 2.3-1.2 4.7-2.1-1.8-2.6-1.8-2.6-3.5-5 1.1-2.7 1.1-2.7 1.7-5.4 4.5-0.3 4.5-0.3 8.9-0.5 0-2.4 0-2.4 0.6-5.1-2.1-2.7-2.1-2.7-4.7-5-3.9-0.6-3.9-0.6-8-1.2-0.3-1.8-0.3-1.8-0.9-3.9-2.7-2.7-2.7-2.7-6-5.3 1.8-1.5 1.8-1.5 3-3 1.8-0.9 1.8-0.9 3.3-1.5-1.2-1.8-1.2-1.8-3-3.2-1.2-1.5-1.2-1.5-2.4-3-2.3 0.9-2.3 0.9-4.4 1.8zm26.7-14.9c-0.6-0.9-0.6-0.9-1.2-1.8 0.3-0.9 0.3-0.9 0.9-2 1.5 0 1.5 0 2.9-0.3 0.4 0.9 0.4 0.9 0.4 1.7-0.9 0.9-0.9 0.9-1.8 1.8-0.6 0.3-0.6 0.3-1.2 0.6zm7.7-7.4c-1.5-0.9-1.5-0.9-3-1.8 0.3-2.1 0.3-2.1 0.6-4.1 0.9-1.2 0.9-1.2 2.1-2.4 1.2 0 1.2 0 2.4 0 1.2 0.3 1.2 0.3 2 0.6 0 3 0 3-0.6 5.6-0.5 0.9-0.5 0.9-1.1 1.5-1.5 0.6-1.5 0.6-2.4 0.6zm-36.5-76.9c-0.3-1.5-0.3-1.5-0.9-3 1.2-2.9 1.2-2.9 3-5.6 2.1-0.9 2.1-0.9 4.4-2.1 2.7 0.6 2.7 0.6 5.1 1.2-1.5 3.3-1.5 3.3-3 6.3-4.4 1.7-4.4 1.7-8.6 3.2zm101.8 253.8c-4.8-2.4-4.8-2.4-9.5-4.7 0.3-4.2 0.3-4.2 0.5-8.3 0 0 5.4-3 6.9-3 1.2 0 5.6-0.6 5.6-0.6 0.6 2.4 0.6 2.4 0.9 5 0 0-1.5 1.2-2.1 4.2-0.6 2.7-2.3 7.4-2.3 7.4zm0.2-19.9c-0.6-2.6-0.6-2.6-1.4-5.3 1.2-3.3 1.2-3.3 2-6.5 2.4 0 2.4 0 4.8-0.3 1.2 3.2 1.2 3.2 2.4 6.5-1.5 2.1-1.5 2.1-2.7 3.9-2.4 0.8-2.4 0.8-5.1 1.7zm106.5 44c-3.2 0.3-3.2 0.3-6.2 0.3 0.3-3.3 0.3-3.3 0.6-6.3 5-0.3 5-0.3 10.1-0.6 2.9 1.5 2.9 1.5 5.9 3.3-1.5 1.5-1.5 1.5-3.3 3.3-3.5 0-3.5 0-7.1 0zm54 15.7c-2.1 0.3-2.1 0.3-4.1 0.6 0.2-3 0.2-3 0.6-5.9 2.6-0.9 2.6-0.9 5.3-2.1 2.4-0.6 2.4-0.6 4.4-1.2 1.8 0.6 1.8 0.6 3 0.9 0.6 1.2 0.6 1.2 1.2 2.4-0.6 1.5-0.6 1.5-1.5 2.9-2.1 0.3-2.1 0.3-4.1 0.6-2.4 0.9-2.4 0.9-4.8 1.8zm113.9 384.7c1.5 2.1 1.5 2.1 3 4.5 0 3.6 0 3.6-0.3 6.8-1.2 3.6-1.2 3.6-2.4 6.8-1.2 1.5-1.2 1.5-2.1 3-1.2 3.3-1.2 3.3-2 6.5-1.2 1.8-1.2 1.8-2.7 3.6 0 3 0 3 0.3 5.3-0.9 2.1-0.9 2.1-1.8 4.2-1.2 1.2-1.2 1.2-2.7 3-2.1 1.2-2.1 1.2-4.4 2.4-0.3 2-0.3 2-0.9 4.4 0.6 2.4 0.6 2.4 1.2 5 0 0-1.2 2.1-1.5 3.3-0.3 1.2-3.6 7.1-3.6 7.1-0.9 3-0.9 3-1.7 6-1.2 2.1-1.2 2.1-3 4.4-0.6 1.5-0.6 1.5-1.2 3.3-1.8 0.9-1.8 0.9-3.3 2.1-2 1.8-2 1.8-4.1 3.5-2.1 0.6-2.1 0.6-4.2 1.2-1.7 1.5-1.7 1.5-3.5 3-1.8-1.2-1.8-1.2-3.6-2.4-3.3-0.9-3.3-0.9-6.8-1.2 0 0-0.6-5.9 0.9-7.1 1.8-1.2 3-6.2 3-6.2-3.3-0.9-3.3-0.9-6.9-1.5 0-3.3 0-3.3 0.3-6.5 3-2.7 3-2.7 6-5.4 2.6-3.6 2.6-3.6 5.3-7.1 0.6-3 0.6-3 1.2-5.7-1.8-3.5-1.8-3.5-3.9-7.1 1.8-5.3 1.8-5.3 3.6-10.7 4.1-4.4 4.1-4.4 8.3-8.9 3-2.1 3-2.1 5.3-3.8 1.5 2.1 1.5 2.1 2.7 4.7 1.8-2.6 1.8-2.6 3.3-5 2.9-3.9 2.9-3.9 5.6-7.7 3-4.8 3-4.8 5.9-8.9 0.6-3.9 0.6-3.9 1.5-7.8 3-1.5 3-1.5 5.9-2.3 0.9 3.5 0.9 3.5 1.8 7.1 0.6 2.1 0.6 2.1 1.5 4.1zm178.3-174.5c0.6 2.4 0.6 2.4 1.2 5 0 3.3 0 3.3 0 6-0.3 2.6-0.3 2.6-0.6 5.3-0.9 1.5-0.9 1.5-1.8 3.3-1.2 0.9-1.2 0.9-2.4 2.1-1.8-0.3-1.8-0.3-3.3-0.6-1.1-3.6-1.1-3.6-2.6-6.9 0-3.5 0-3.5 0-7.1 0 0 0.6-5.3 1.2-6.2 0.6-0.9 3.5-6.9 3.5-6.9 1.2 0.6 1.2 0.6 2.7 0.6 0.9 3 0.9 3 2.1 5.4zm-238.5-508.8c-0.9-3-0.9-3-1.2-5.7 0 0 2.4-1.8 3.6-2.1 1.2 0 3.5-2 3.5-2 1.2 0 1.2 0 2.4-0.3-0.6-2.1-0.6-2.1-0.9-4.2 0-1.2 0-1.2 0-2.4 4.2 0.3 4.2 0.3 8.3 0.9 0.9-0.9 0.9-0.9 2.1-1.8 2.4 0.6 2.4 0.6 5 1.8 1.2-1.2 1.2-1.2 1.8-2.6 3.3 0.6 3.3 0.6 5.9 1.2 3.3 1.1 3.3 1.1 6.9 2 3.2 0.3 3.2 0.3 6.2 0.3 1.8-0.3 1.8-0.3 3.3-0.9 1.4-0.3 1.4-0.3 2.9 0 3 1.2 3 1.2 6.3 2.7 2 1.5 2 1.5 3.8 2.7 0 0-0.6 0.9-1.2 0.9 0 0.3-4.1 0-4.1 0 0 0-7.4-1.5-7.7-1.5-0.6 0-9.8 0-9.8 0 0 0-6.9 0-7.7 0.6-0.6 0.3-6 3.8-6 3.8-2.9 0.6-2.9 0.6-6.2 1.5-0.3 2.1-0.3 2.1-1.2 3.9 0 1.2 0 1.2 0.3 2.6 0 0 2.4 3 3 3.6 0.6 0.6 4.7 3.9 4.7 3.9 1.2 0.9 1.2 0.9 2.1 2.1 0.6 0.2 0.6 0.2 1.5 0.5 0.3 1.2 0.3 1.2 0.9 2.7-2.1 0.3-2.1 0.3-3.3 0.9-3.6-0.6-3.6-0.6-7.1-0.9-3.6-1.5-3.6-1.5-7.1-2.7-1.8-2.6-1.8-2.6-3.9-5.3-2.1-1.5-2.1-1.5-4.4-3-1.5-1.4-1.5-1.4-2.7-3.2zm-9.5 21.3c0 0-1.5-2.3-1.8-2.9 0-0.3 2.1-4.5 2.1-4.5 2.7 0.6 2.7 0.6 5.6 0.9 0.3 1.5 0.3 1.5 1.2 3-0.6 1.5-0.6 1.5-0.9 2.9-1.2 0.6-1.2 0.6-2.3 0.9-2.1 0-2.1 0-3.9-0.3zm-172-16.3c0.9 0.9 0.9 0.9 1.2 2.1-3 0.6-3 0.6-6 1.5-2.6-0.3-2.6-0.3-5.6-0.9 0.6-1.2 0.6-1.2 0.9-2.7 2.6-0.9 2.6-0.9 5.3-1.8 1.8 0 1.8 0 3.6 0.3 0.3 0.9 0.3 0.9 0.6 1.5zm24-4.4c0 0.6-0.6 2.3-0.6 2.6-0.6 0.3-2.1 1.8-2.4 1.8-0.9 0.3-5.6-1.5-5.6-1.5-0.9-0.9-0.9-0.9-1.5-1.7 0 0-1.5-0.6-1.5 0-0.3 0.5 0.3 2 0.3 2 0.6 0.6 0.6 0.6 1.2 1.2-0.3 1.5-0.3 1.5-0.9 3 0 0-1.5 1.8-2.3 1.8-0.4 0-2.1-0.6-2.1-0.6-0.3-0.9-0.3-0.9-0.9-1.5 0.3-1.5 0.3-1.5 0.3-3-2.1-1.2-2.1-1.2-4.5-2.1 1.2-2 1.2-2 2.1-3.8 2.1 0 2.1 0 4.7 0 0.9 0.9 0.9 0.9 2.1 1.8 1.5 0 1.5 0 3.3 0 0 0 1.2-0.9 3-0.6 1.4 0 5.3 0 5.3 0.6zm484.9 441.1c-0.5 1.5-0.5 1.5-1.1 3-0.9 0-0.9 0-1.5 0-0.3-3-0.3-3-0.6-5.1 0.9-4.7 0.9-4.7 1.5-10.1 0.9 0 0.9 0 1.7-0.6 0.4 2.7 0.4 2.7 0.9 5.4-0.3 3.5-0.3 3.5-0.9 7.4z"/>
		</g>
	</g>
</svg>